<?xml version="1.0" encoding="UTF-8" standalone="no"?>
<!DOCTYPE svg  PUBLIC '-//W3C//DTD SVG 1.1//EN'  'http://www.w3.org/Graphics/SVG/1.1/DTD/svg11.dtd'>
<svg xmlns="http://www.w3.org/2000/svg">
<defs>
<font id="ProximaNovaExCn-Regular" horiz-adv-x="378">
<font-face underline-position="-113" font-weight="400" descent="-200" panose-1="2 0 5 6 3 0 0 2 0 4" units-per-em="1000" unicode-range="U+0020-2215" bbox="-100 -270 734 886" x-height="483" underline-thickness="20" font-family="ProximaNovaExCn" ascent="800" cap-height="667"/>
<missing-glyph horiz-adv-x="1000"/>
<glyph glyph-name=".notdef" horiz-adv-x="1000"/>
<glyph glyph-name=".null" horiz-adv-x="0"/>
<glyph glyph-name=".null" horiz-adv-x="0"/>
<glyph glyph-name="nonmarkingreturn" horiz-adv-x="333"/>
<glyph glyph-name="space" horiz-adv-x="172" unicode=" "/>
<glyph glyph-name="exclam" horiz-adv-x="227" unicode="!" d="M113 -10q-21 0 -36.5 15.5t-15.5 36.5t15.5 36t36.5 15q22 0 37 -15t15 -36t-15 -36.5t-37 -15.5zM142 183h-56l-16 484h86z"/>
<glyph glyph-name="quotedbl" horiz-adv-x="336" unicode='&quot;' d="M256 417h-36q-25 203 -25 217q0 18 12.5 30.5t30.5 12.5t30.5 -12.5t12.5 -30.5zM115 417h-35q-25 203 -25 217q0 18 13 30.5t30 12.5t29.5 -12.5t12.5 -30.5z"/>
<glyph glyph-name="numbersign" horiz-adv-x="423" unicode="#" d="M222 232l48 203h-70l-47 -203h69zM225 0h-57l44 183h-71l-42 -183h-57l43 183h-68l11 49h69l47 203h-69l9 49h71l42 183h57l-42 -183h70l42 183h56l-42 -183h68l-10 -49h-70l-47 -203h71l-11 -49h-72z"/>
<glyph glyph-name="dollar" horiz-adv-x="343" unicode="$" d="M246 159q0 52 -35 95v-180q35 30 35 85zM115 516q0 -48 40 -91v174q-40 -25 -40 -83zM155 -100v88q-83 3 -135 61l38 60q37 -51 97 -53v254q-31 27 -43.5 39.5t-34 39.5t-30.5 57t-9 67q0 61 32 105t85 56v94h56v-91q59 -6 100 -46l-33 -58q-28 30 -67 36v-238 q35 -31 54.5 -53.5t38 -64.5t18.5 -90q0 -62 -30 -107.5t-81 -60.5v-95h-56z"/>
<glyph glyph-name="percent" horiz-adv-x="570" unicode="%" d="M420 35q32 0 50 32.5t18 83.5q0 52 -18 85.5t-50 33.5q-31 0 -49.5 -33.5t-18.5 -85.5q0 -50 18.5 -83t49.5 -33zM150 395q31 0 49.5 33.5t18.5 83.5q0 52 -18.5 85t-49.5 33q-32 0 -50 -33t-18 -85q0 -51 18 -84t50 -33zM420 -12q-54 0 -87 46t-33 117q0 72 33 118.5 t87 46.5q55 0 88 -46.5t33 -118.5q0 -71 -33 -117t-88 -46zM169 0h-41l273 667h42zM150 349q-55 0 -88 46t-33 117q0 72 33 118.5t88 46.5t87.5 -46.5t32.5 -118.5q0 -71 -32.5 -117t-87.5 -46z"/>
<glyph glyph-name="ampersand" horiz-adv-x="399" unicode="&amp;" d="M159 515q0 -42 18 -101q63 65 63 132q0 38 -11.5 57.5t-27.5 19.5q-42 0 -42 -108zM175 46q40 0 76 68q-38 69 -54 103q-20 38 -42 88q-47 -63 -47 -139q0 -56 19 -88t48 -32zM394 0h-77q-15 25 -35 60q-50 -72 -117 -72q-57 0 -92.5 47t-35.5 128q0 68 24 113.5t68 90.5 q-35 92 -35 148q0 73 29 117.5t78 44.5q41 0 70 -37t29 -92q0 -44 -17 -83t-33.5 -58t-50.5 -53q20 -49 42 -91q15 -31 39 -76q17 52 34 137l58 -24q-23 -109 -56 -178q32 -52 78 -122z"/>
<glyph glyph-name="quotesingle" horiz-adv-x="195" unicode="&apos;" d="M115 417h-35q-25 203 -25 217q0 18 13 30.5t30 12.5t29.5 -12.5t12.5 -30.5z"/>
<glyph glyph-name="parenleft" horiz-adv-x="209" unicode="(" d="M190 -178l-48 -21q-95 208 -95 442t95 442l48 -20q-67 -208 -67 -422q0 -215 67 -421z"/>
<glyph glyph-name="parenright" horiz-adv-x="209" unicode=")" d="M66 -199l-47 21q67 206 67 421q0 214 -67 422l47 20q96 -207 96 -442t-96 -442z"/>
<glyph glyph-name="asterisk" horiz-adv-x="303" unicode="*" d="M173 392h-43l6 116l-97 -63l-22 37l102 53l-102 52l22 37l97 -62l-6 115h43l-6 -115l97 62l22 -37l-103 -52l103 -53l-22 -37l-97 63z"/>
<glyph glyph-name="plus" d="M349 312h-133v-154h-53v154h-134v50h134v148h53v-148h133v-50z" unicode="+"/>
<glyph glyph-name="comma" horiz-adv-x="227" unicode="," d="M170 20q0 -43 -22 -82t-56 -63l-35 28q24 17 42 43t21 50q-1 0 -5.5 -0.5t-6.5 -0.5q-20 0 -33.5 13.5t-13.5 34.5t14.5 35.5t36.5 14.5q24 0 41 -19.5t17 -53.5z"/>
<glyph glyph-name="hyphen" horiz-adv-x="235" unicode="-" d="M205 211h-175v61h175v-61z"/>
<glyph glyph-name="period" horiz-adv-x="227" unicode="." d="M114 -10q-22 0 -37.5 15.5t-15.5 36.5t15.5 36t37.5 15q21 0 36 -15t15 -36t-15 -36.5t-36 -15.5z"/>
<glyph glyph-name="slash" horiz-adv-x="200" unicode="/" d="M53 -20h-53l147 707h53z"/>
<glyph glyph-name="zero" horiz-adv-x="412" unicode="0" d="M206 56q28 0 46.5 23.5t26 68.5t10 85.5t2.5 99.5q0 47 -1 79.5t-6 72.5t-14 65t-25 42t-39 17q-27 0 -45.5 -23.5t-26.5 -67.5t-10.5 -85.5t-2.5 -99.5q0 -46 1 -79t6 -73.5t14 -65t25 -42t39 -17.5zM206 -12q-46 0 -79.5 31t-51 83.5t-25 109.5t-7.5 121 q0 65 7.5 121.5t25 109t51 83t79.5 30.5t80 -30.5t51.5 -83t25 -109t7.5 -121.5t-7.5 -121.5t-25 -109t-51 -83.5t-80.5 -31z"/>
<glyph glyph-name="one" horiz-adv-x="292" unicode="1" d="M229 0h-76v567l-99 -107l-45 48l153 159h67v-667z"/>
<glyph glyph-name="two" horiz-adv-x="391" unicode="2" d="M347 0h-295v63q143 229 179.5 305.5t36.5 139.5q0 44 -21 72.5t-55 28.5q-62 0 -100 -83l-54 42q29 55 65.5 82t90.5 27q70 0 111 -46.5t41 -121.5q0 -66 -38 -151t-161 -291h200v-67z"/>
<glyph glyph-name="three" horiz-adv-x="390" unicode="3" d="M187 -12q-54 0 -95 31.5t-63 80.5l56 41q37 -85 99 -85q87 0 87 129q0 67 -27 95.5t-63 28.5q-29 0 -37 -2v70q8 -1 35 -1q39 0 62 29t23 84q0 120 -79 120q-61 0 -94 -78l-55 38q23 52 63.5 80t88.5 28q70 0 111 -44t41 -133q0 -54 -25.5 -98t-68.5 -57q43 -10 72 -56 t29 -109q0 -87 -41 -139.5t-119 -52.5z"/>
<glyph glyph-name="four" horiz-adv-x="366" unicode="4" d="M224 240v332l-146 -332h146zM299 0h-75v173h-210v69l195 425h90v-427h53v-67h-53v-173z"/>
<glyph glyph-name="five" horiz-adv-x="393" unicode="5" d="M194 -12q-59 0 -94.5 28t-61.5 84l55 40q31 -84 98 -84q39 0 62 43.5t23 104.5q0 149 -77 149q-27 0 -46.5 -13.5t-40.5 -48.5l-57 19v357h272v-67h-197v-236q32 56 91 56q61 0 97 -56t36 -159q0 -91 -43.5 -154t-116.5 -63z"/>
<glyph glyph-name="six" horiz-adv-x="393" unicode="6" d="M204 56q40 0 57.5 42t17.5 104q0 149 -74 149q-54 0 -84 -104q3 -191 83 -191zM207 -12q-164 0 -164 345q0 70 9.5 129t29.5 108.5t55.5 78t84.5 28.5q41 0 74.5 -23t51.5 -63l-45 -50q-26 68 -79 68q-30 0 -51 -24.5t-32 -66.5t-16 -86t-5 -94v-14q15 40 42 66.5 t64 26.5q57 0 94 -55.5t37 -157.5q0 -90 -39 -153t-111 -63z"/>
<glyph glyph-name="seven" horiz-adv-x="330" unicode="7" d="M156 0h-80l151 600h-206v67h288v-52z"/>
<glyph glyph-name="eight" horiz-adv-x="391" unicode="8" d="M196 56q35 0 57 29.5t22 83.5q0 41 -17.5 76.5t-35 52t-26.5 18.5q-10 -2 -28 -18.5t-35 -52t-17 -76.5q0 -54 22 -83.5t58 -29.5zM196 371q10 5 24 17t31 43.5t17 68.5q0 51 -18.5 80t-53.5 29q-74 0 -74 -109q0 -37 17 -68.5t32 -44t25 -16.5zM196 -12 q-76 0 -116.5 45.5t-40.5 126.5q0 60 32.5 111t72.5 73q-38 20 -67.5 64.5t-29.5 102.5q0 80 42.5 123t106.5 43t106.5 -43t42.5 -123q0 -58 -30 -102.5t-68 -64.5q40 -22 72.5 -72.5t32.5 -110.5q0 -81 -41 -127t-115 -46z"/>
<glyph glyph-name="nine" horiz-adv-x="393" unicode="9" d="M187 315q54 0 84 104q-3 191 -82 191q-40 0 -58 -42t-18 -104q0 -149 74 -149zM170 -11q-41 0 -74.5 23t-51.5 63l46 50q25 -68 79 -68q38 0 62 43.5t32.5 100.5t8.5 126v15q-15 -41 -41.5 -67t-63.5 -26q-58 0 -95 55t-37 158q0 90 39 153t111 63q165 0 165 -345 q0 -70 -9.5 -129t-29.5 -108.5t-56 -78t-85 -28.5z"/>
<glyph glyph-name="colon" horiz-adv-x="227" unicode=":" d="M114 -10q-22 0 -37.5 15.5t-15.5 36.5t15.5 36t37.5 15q21 0 36 -15t15 -36t-15 -36.5t-36 -15.5zM114 387q-22 0 -37.5 15.5t-15.5 35.5q0 22 15.5 37t37.5 15q21 0 36 -15t15 -37q0 -20 -15 -35.5t-36 -15.5z"/>
<glyph glyph-name="semicolon" horiz-adv-x="227" unicode=";" d="M170 22q0 -43 -22 -82.5t-56 -63.5l-35 29q24 16 42 42.5t21 49.5q-1 0 -5.5 -0.5t-6.5 -0.5q-20 0 -33.5 13.5t-13.5 34.5t14.5 36t36.5 15q24 0 41 -20t17 -53zM114 387q-22 0 -37.5 15.5t-15.5 35.5q0 22 15.5 37t37.5 15q21 0 36 -15t15 -37q0 -20 -15 -35.5 t-36 -15.5z"/>
<glyph glyph-name="less" d="M349 161l-320 149v49l320 149v-58l-259 -116l259 -114v-59z" unicode="&lt;"/>
<glyph glyph-name="equal" d="M349 212h-320v49h320v-49zM349 407h-320v49h320v-49z" unicode="="/>
<glyph glyph-name="greater" d="M349 310l-320 -149v59l259 114l-259 116v58l320 -149v-49z" unicode="&gt;"/>
<glyph glyph-name="question" horiz-adv-x="313" unicode="?" d="M160 -10q-21 0 -36.5 15.5t-15.5 36.5t15.5 36t36.5 15t36 -15t15 -36t-15 -36.5t-36 -15.5zM134 183q-26 33 -26 83q0 33 11 61.5t26.5 50t31 42t26.5 47.5t11 58q0 33 -21 59.5t-54 26.5q-37 0 -67 -33l-34 49q45 51 115 51q59 0 97.5 -41t38.5 -100q0 -45 -18 -84.5 t-39.5 -63.5t-39.5 -58t-18 -68q0 -32 19 -53z"/>
<glyph glyph-name="at" horiz-adv-x="600" unicode="@" d="M257 137q20 0 39.5 14t29 27.5t25.5 38.5l35 162q-12 68 -53 68q-55 0 -90 -76t-35 -155t49 -79zM263 -70q-104 0 -166 77t-62 208q0 164 99 294t231 130q90 0 145 -65.5t55 -179.5q0 -128 -46 -218.5t-103 -90.5q-32 0 -52 19.5t-22 50.5l-1 7q-47 -77 -108 -77 q-38 0 -64.5 29t-26.5 94q0 69 22 135t65 111t96 45q56 0 72 -72l11 56h63l-59 -278q-3 -15 -3 -24q0 -26 6.5 -36t22.5 -10q12 0 27 17.5t30 48.5t25 82.5t10 110.5q0 101 -45.5 156t-120.5 55q-77 0 -145.5 -57t-108 -147t-39.5 -185q0 -116 53 -184.5t143 -68.5 q71 0 137 56l17 -26q-76 -63 -158 -63z"/>
<glyph glyph-name="A" horiz-adv-x="364" unicode="A" d="M244 220l-62 357l-62 -357h124zM357 0h-77l-27 153h-142l-27 -153h-77l131 667h87z"/>
<glyph glyph-name="B" horiz-adv-x="403" unicode="B" d="M196 67q86 0 86 120q0 52 -21.5 86.5t-64.5 34.5h-58v-241h58zM192 375q81 0 81 112q0 113 -81 113h-54v-225h54zM213 0h-150v667h144q69 0 106.5 -46t37.5 -124q0 -122 -87 -153q42 -7 69 -55t27 -109q0 -85 -36.5 -132.5t-110.5 -47.5z"/>
<glyph glyph-name="C" horiz-adv-x="390" unicode="C" d="M217 -12q-89 0 -131.5 94.5t-42.5 250.5t42.5 250.5t131.5 94.5q99 0 138 -128l-62 -24q-13 43 -29.5 63.5t-46.5 20.5q-96 0 -96 -277t96 -277q33 0 50.5 26.5t27.5 74.5l63 -23q-34 -146 -141 -146z"/>
<glyph glyph-name="D" horiz-adv-x="427" unicode="D" d="M190 67q116 0 116 266q0 267 -116 267h-52v-533h52zM190 0h-127v667h127q99 0 147 -90.5t48 -243.5q0 -154 -47.5 -243.5t-147.5 -89.5z"/>
<glyph glyph-name="E" horiz-adv-x="352" unicode="E" d="M311 0h-248v667h248v-67h-173v-225h166v-67h-166v-241h173v-67z"/>
<glyph glyph-name="F" horiz-adv-x="351" unicode="F" d="M138 0h-75v667h248v-67h-173v-225h166v-67h-166v-308z"/>
<glyph glyph-name="G" horiz-adv-x="411" unicode="G" d="M217 -12q-88 0 -131 92.5t-43 252.5t43 252.5t131 92.5q103 0 138 -128l-62 -24q-13 42 -29.5 63t-46.5 21q-96 0 -96 -277t96 -277q48 0 72 41v175h-89v67h157v-271q-51 -80 -140 -80z"/>
<glyph glyph-name="H" horiz-adv-x="436" unicode="H" d="M373 0h-75v309h-160v-309h-75v667h75v-290h160v290h75v-667z"/>
<glyph glyph-name="I" horiz-adv-x="201" unicode="I" d="M138 0h-75v667h75v-667z"/>
<glyph glyph-name="J" horiz-adv-x="321" unicode="J" d="M113 -12q-63 0 -106 46l28 60q29 -38 71 -38q78 0 78 89v522h75v-525q0 -78 -39 -116t-107 -38z"/>
<glyph glyph-name="K" horiz-adv-x="418" unicode="K" d="M407 0h-87l-137 289l-45 -86v-203h-75v667h75v-347l171 347h85l-169 -317z"/>
<glyph glyph-name="L" horiz-adv-x="333" unicode="L" d="M311 0h-248v667h75v-600h173v-67z"/>
<glyph glyph-name="M" horiz-adv-x="558" unicode="M" d="M495 0h-74v499l-127 -499h-30l-126 499v-499h-75v667h102l114 -447l116 447h100v-667z"/>
<glyph glyph-name="N" horiz-adv-x="436" unicode="N" d="M373 0h-72l-163 462v-462h-75v667h75l160 -453v453h75v-667z"/>
<glyph glyph-name="O" horiz-adv-x="434" unicode="O" d="M217 56q50 0 73 77t23 200q0 124 -23 200.5t-73 76.5q-96 0 -96 -277t96 -277zM217 -12q-61 0 -101 48t-56.5 122.5t-16.5 174.5t16.5 174.5t56.5 122.5t101 48q89 0 131.5 -95.5t42.5 -249.5t-42.5 -249.5t-131.5 -95.5z"/>
<glyph glyph-name="P" horiz-adv-x="387" unicode="P" d="M193 336q43 0 65.5 36t22.5 96t-22.5 96t-65.5 36h-55v-264h55zM138 0h-75v667h137q78 0 118.5 -56.5t40.5 -142.5t-40.5 -142.5t-118.5 -56.5h-62v-269z"/>
<glyph glyph-name="Q" horiz-adv-x="434" unicode="Q" d="M217 56q11 0 23 5l-56 148l56 22l44 -115q29 70 29 217q0 124 -23 200.5t-73 76.5q-96 0 -96 -277t96 -277zM217 -12q-61 0 -101 48t-56.5 122.5t-16.5 174.5t16.5 174.5t56.5 122.5t101 48q89 0 131.5 -95.5t42.5 -249.5q0 -217 -76 -301l18 -45l-56 -22l-12 32 q-23 -9 -48 -9z"/>
<glyph glyph-name="R" horiz-adv-x="409" unicode="R" d="M193 336q43 0 65.5 36t22.5 96t-22.5 96t-65.5 36h-55v-264h55zM365 0h-81l-87 269h-59v-269h-75v667h140q69 0 112.5 -53.5t43.5 -143.5q0 -80 -27.5 -125t-64.5 -59z"/>
<glyph glyph-name="S" horiz-adv-x="354" unicode="S" d="M163 -12q-87 0 -143 61l38 60q18 -24 45.5 -38.5t55.5 -14.5q37 0 62 28.5t25 74.5q0 42 -21.5 76t-52 60t-61 53.5t-52 69.5t-21.5 95q0 72 43.5 118.5t110.5 46.5q72 0 119 -47l-33 -58q-34 37 -85 37q-33 0 -55.5 -26t-22.5 -68q0 -35 21.5 -66.5t52 -58t60.5 -56 t51.5 -73.5t21.5 -99q0 -77 -44 -126t-115 -49z"/>
<glyph glyph-name="T" horiz-adv-x="322" unicode="T" d="M199 0h-76v600h-105v67h286v-67h-105v-600z"/>
<glyph glyph-name="U" horiz-adv-x="437" unicode="U" d="M218 -12q-70 0 -112.5 46t-42.5 138v495h75v-498q0 -114 80 -114q81 0 81 114v498h75v-495q0 -92 -43 -138t-113 -46z"/>
<glyph glyph-name="V" horiz-adv-x="364" unicode="V" d="M225 0h-87l-131 667h77l98 -567l98 567h77z"/>
<glyph glyph-name="W" horiz-adv-x="548" unicode="W" d="M424 0h-80l-70 514l-70 -514h-79l-107 667h78l71 -531l75 531h64l76 -531l70 531h78z"/>
<glyph glyph-name="X" horiz-adv-x="368" unicode="X" d="M365 0h-84l-97 268l-97 -268h-83l137 339l-130 328h84l89 -257l89 257h84l-130 -327z"/>
<glyph glyph-name="Y" horiz-adv-x="372" unicode="Y" d="M224 0h-75v283l-150 384h82l105 -307l107 307h80l-149 -384v-283z"/>
<glyph glyph-name="Z" horiz-adv-x="340" unicode="Z" d="M307 0h-274v66l184 534h-184v67h267v-63l-186 -537h193v-67z"/>
<glyph glyph-name="bracketleft" horiz-adv-x="182" unicode="[" d="M164 -190h-129v868h129v-52h-75v-764h75v-52z"/>
<glyph glyph-name="backslash" horiz-adv-x="200" unicode="\" d="M148 -20l-147 707h53l147 -707h-53z"/>
<glyph glyph-name="bracketright" horiz-adv-x="182" unicode="]" d="M147 -190h-130v52h76v764h-76v52h130v-868z"/>
<glyph glyph-name="asciicircum" horiz-adv-x="330" unicode="^" d="M311 333h-55l-91 275l-91 -275h-55l120 334h52z"/>
<glyph glyph-name="underscore" horiz-adv-x="279" unicode="_" d="M282 -92h-285v52h285v-52z"/>
<glyph glyph-name="grave" horiz-adv-x="146" unicode="`" d="M146 556h-46l-100 144h67z"/>
<glyph glyph-name="a" horiz-adv-x="376" unicode="a" d="M176 38q51 0 75 63v92q-24 65 -75 65q-36 0 -54.5 -31.5t-18.5 -78.5t18.5 -78.5t54.5 -31.5zM320 0h-69v48q-16 -30 -41.5 -45t-52.5 -15q-56 0 -90 44.5t-34 116.5q0 71 34 115t90 44q27 0 52.5 -14.5t41.5 -42.5v80q0 53 -17 79t-58 26q-51 0 -95 -51l-29 49 q55 61 135 61q133 0 133 -151v-344z"/>
<glyph glyph-name="b" horiz-adv-x="384" unicode="b" d="M124 0h-68v667h68v-251q14 38 39.5 58.5t51.5 20.5q66 0 99 -69.5t33 -184.5q0 -116 -33 -184.5t-99 -68.5q-25 0 -50.5 20.5t-40.5 56.5v-65zM124 129q9 -33 30 -56.5t44 -23.5q77 0 77 192q0 193 -77 193q-23 0 -44 -24.5t-30 -57.5v-223z"/>
<glyph glyph-name="c" horiz-adv-x="317" unicode="c" d="M196 -12q-75 0 -117 71t-42 183q0 111 41.5 182t117.5 71q59 0 99 -44l-28 -52q-28 35 -62 35q-49 0 -72.5 -55t-23.5 -137t23.5 -137.5t72.5 -55.5q34 0 62 35l28 -52q-36 -44 -99 -44z"/>
<glyph glyph-name="d" horiz-adv-x="384" unicode="d" d="M186 49q23 0 44.5 24t29.5 56v224q-9 32 -30 56.5t-44 24.5q-77 0 -77 -193q0 -192 77 -192zM328 0h-68v65q-15 -36 -40.5 -56.5t-50.5 -20.5q-66 0 -99 68.5t-33 184.5q0 115 33 184.5t99 69.5q26 0 51.5 -20.5t39.5 -58.5v251h68v-667z"/>
<glyph glyph-name="e" horiz-adv-x="373" unicode="e" d="M272 270q0 69 -19 118.5t-64 49.5q-31 0 -51 -29.5t-26 -64t-6 -74.5h166zM205 -12q-83 0 -125.5 70t-42.5 184q0 112 39 182.5t115 70.5q77 0 113 -69.5t36 -182.5v-24h-234q0 -80 27 -127t77 -47q47 0 80 58l41 -36q-51 -79 -126 -79z"/>
<glyph glyph-name="f" horiz-adv-x="224" unicode="f" d="M139 0h-69v423h-47v60h47v81q0 53 27 83t76 30q44 0 69 -27l-24 -54q-16 20 -35 20q-44 0 -44 -52v-81h65v-60h-65v-423z"/>
<glyph glyph-name="g" horiz-adv-x="384" unicode="g" d="M186 55q23 0 44 24.5t30 57.5v216q-9 32 -30 56.5t-44 24.5q-77 0 -77 -190q0 -189 77 -189zM178 -196q-79 0 -128 49l28 58q39 -46 94 -46q88 0 88 116v93q-15 -37 -40.5 -58.5t-50.5 -21.5q-66 0 -99 67t-33 183q0 115 33 183t99 68q26 0 51.5 -20.5t39.5 -58.5v67h68 v-495q0 -97 -41 -140.5t-109 -43.5z"/>
<glyph glyph-name="h" d="M322 0h-68v372q0 62 -46 62q-26 0 -49 -23t-35 -56v-355h-68v667h68v-252q16 34 46.5 57t61.5 23q48 0 69 -25t21 -80v-390z" unicode="h"/>
<glyph glyph-name="i" horiz-adv-x="180" unicode="i" d="M124 0h-68v483h68v-483zM90 554q-19 0 -33 14t-14 33t14 33.5t33 14.5q20 0 34 -14.5t14 -33.5t-14 -33t-34 -14z"/>
<glyph glyph-name="j" horiz-adv-x="180" unicode="j" d="M27 -196q-40 0 -58 31l26 49q8 -19 28 -19q33 0 33 64v554h68v-554q0 -67 -24 -96t-73 -29zM90 554q-19 0 -33 14t-14 33t14 33.5t33 14.5q20 0 34 -14.5t14 -33.5t-14 -33t-34 -14z"/>
<glyph glyph-name="k" horiz-adv-x="361" unicode="k" d="M345 0h-74l-91 219l-56 -96v-123h-68v667h68v-451l148 267h74l-122 -216z"/>
<glyph glyph-name="l" horiz-adv-x="180" unicode="l" d="M124 0h-68v667h68v-667z"/>
<glyph glyph-name="m" horiz-adv-x="576" unicode="m" d="M520 0h-69v371q0 63 -46 63q-26 0 -49 -23.5t-34 -55.5v-355h-68v371q0 63 -46 63q-26 0 -49 -23.5t-35 -55.5v-355h-68v483h68v-68q16 33 46 56.5t62 23.5q39 0 62 -21.5t26 -60.5q16 34 46.5 58t63.5 24q90 0 90 -105v-390z"/>
<glyph glyph-name="n" d="M322 0h-68v371q0 63 -46 63q-26 0 -49 -23t-35 -56v-355h-68v483h68v-68q16 34 46.5 57t61.5 23q90 0 90 -105v-390z" unicode="n"/>
<glyph glyph-name="o" horiz-adv-x="382" unicode="o" d="M191 49q82 0 82 193q0 192 -82 192t-82 -192q0 -193 82 -193zM191 -12q-78 0 -116 72t-38 182q0 109 38 181t116 72t115.5 -71.5t37.5 -181.5t-37.5 -182t-115.5 -72z"/>
<glyph glyph-name="p" horiz-adv-x="384" unicode="p" d="M198 49q77 0 77 193q0 192 -77 192q-23 0 -44 -23.5t-30 -56.5v-224q9 -33 30.5 -57t43.5 -24zM215 -12q-26 0 -51.5 20.5t-39.5 58.5v-251h-68v667h68v-65q15 36 40.5 56.5t50.5 20.5q66 0 99 -68.5t33 -184.5q0 -115 -33 -184.5t-99 -69.5z"/>
<glyph glyph-name="q" horiz-adv-x="384" unicode="q" d="M169 -12q-66 0 -99 69.5t-33 184.5q0 116 33 184.5t99 68.5q25 0 50.5 -20.5t40.5 -56.5v65h68v-667h-68v251q-14 -38 -39.5 -58.5t-51.5 -20.5zM186 49q23 0 44 24.5t30 56.5v224q-8 33 -29.5 56.5t-44.5 23.5q-77 0 -77 -192q0 -193 77 -193z"/>
<glyph glyph-name="r" horiz-adv-x="252" unicode="r" d="M124 0h-68v483h68v-77q39 87 112 87v-71q-9 3 -18 3q-29 0 -53.5 -23t-40.5 -58v-344z"/>
<glyph glyph-name="s" horiz-adv-x="309" unicode="s" d="M152 -12q-86 0 -131 61l33 47q40 -52 93 -52q30 0 50.5 19.5t20.5 52.5q0 25 -13.5 46t-33.5 34.5t-44 31t-44 35t-33.5 46.5t-13.5 66q0 52 35.5 86t92.5 34q70 0 115 -54l-32 -46q-31 44 -82 44q-29 0 -46.5 -18t-17.5 -44q0 -28 18.5 -50.5t45.5 -40t54 -37.5 t45.5 -53.5t18.5 -77.5q0 -58 -37.5 -94t-93.5 -36z"/>
<glyph glyph-name="t" horiz-adv-x="233" unicode="t" d="M156 -12q-45 0 -65.5 25t-20.5 79v331h-49v60h49v132h69v-132h65v-60h-65v-321q0 -28 6.5 -40.5t23.5 -12.5q21 0 32 17l22 -50q-26 -28 -67 -28z"/>
<glyph glyph-name="u" d="M322 0h-68v66q-17 -34 -45.5 -56t-62.5 -22q-48 0 -69 25t-21 80v390h68v-372q0 -62 46 -62q26 0 49 22.5t35 54.5v357h68v-483z" unicode="u"/>
<glyph glyph-name="v" horiz-adv-x="326" unicode="v" d="M200 0h-75l-116 483h74l79 -399l82 399h72z"/>
<glyph glyph-name="w" horiz-adv-x="541" unicode="w" d="M423 0h-71l-81 389l-82 -389h-71l-105 483h72l72 -387l77 387h70l79 -387l73 387h72z"/>
<glyph glyph-name="x" horiz-adv-x="326" unicode="x" d="M313 0h-73l-77 191l-78 -191h-73l109 244l-103 239h73l72 -184l72 184h72l-103 -239z"/>
<glyph glyph-name="y" horiz-adv-x="326" unicode="y" d="M33 -189l11 60q11 -6 24 -6q17 0 26 10t16 35l19 75l-120 498h74l79 -396l82 396h72l-143 -589q-14 -51 -36.5 -70.5t-61.5 -19.5q-26 0 -42 7z"/>
<glyph glyph-name="z" horiz-adv-x="303" unicode="z" d="M268 0h-234v54l151 369h-151v60h230v-52l-150 -371h154v-60z"/>
<glyph glyph-name="braceleft" horiz-adv-x="202" unicode="{" d="M185 -190h-30q-39 0 -68 29t-29 75v237q0 30 -13.5 50t-38.5 20v46q25 0 38.5 20t13.5 50v236q0 46 29.5 75.5t67.5 29.5h30v-52h-30q-18 0 -30.5 -14.5t-12.5 -38.5v-241q0 -69 -45 -88q45 -19 45 -88v-242q0 -23 12.5 -38t30.5 -15h30v-51z"/>
<glyph glyph-name="bar" horiz-adv-x="177" unicode="|" d="M114 -20h-51v707h51v-707z"/>
<glyph glyph-name="braceright" horiz-adv-x="202" unicode="}" d="M17 -190v51h30q18 0 30.5 15t12.5 38v242q0 69 45 88q-45 19 -45 88v241q0 24 -12.5 38.5t-30.5 14.5h-30v52h30q38 0 67.5 -29.5t29.5 -75.5v-236q0 -30 13.5 -50t38.5 -20v-46q-25 0 -38.5 -20t-13.5 -50v-237q0 -46 -29 -75t-68 -29h-30z"/>
<glyph glyph-name="asciitilde" horiz-adv-x="395" unicode="~" d="M315 667l52 -5q-2 -37 -5 -63t-10.5 -62t-18 -58t-30 -38t-45.5 -16q-33 0 -52.5 30t-25 65.5t-16 65.5t-28.5 30q-26 0 -36.5 -41.5t-19.5 -151.5l-53 6q2 36 5 63t10.5 62t18.5 57.5t30 38.5t45 16q33 0 53 -30t25 -66.5t15.5 -66.5t28.5 -30q27 0 37.5 41.5 t19.5 152.5z"/>
<glyph glyph-name="nbspace" horiz-adv-x="172" unicode=" "/>
<glyph glyph-name="exclamdown" horiz-adv-x="227" unicode="¡" d="M61 441q0 21 15.5 36.5t37.5 15.5q21 0 36.5 -15.5t15.5 -36.5t-15.5 -36t-36.5 -15q-22 0 -37.5 15t-15.5 36zM70 -184l16 484h56l15 -484h-87z"/>
<glyph glyph-name="cent" horiz-adv-x="317" unicode="¢" d="M109 242q0 -149 62 -185v368q-62 -34 -62 -183zM171 -100v91q-64 12 -99 80.5t-35 170.5q0 101 35 169.5t99 80.5v73h55v-73q39 -9 69 -41l-28 -52q-21 25 -41 31v-378q21 7 41 32l28 -52q-28 -34 -69 -41v-91h-55z"/>
<glyph glyph-name="sterling" horiz-adv-x="380" unicode="£" d="M30 271v50h67q-16 31 -23.5 47.5t-16 50t-8.5 68.5q0 78 44 134t112 56q53 0 89.5 -30t48.5 -84l-60 -28q-23 78 -75 78q-32 0 -55.5 -34.5t-23.5 -93.5q0 -28 5.5 -53.5t11 -39t17.5 -38.5t16 -33h76v-50h-59q5 -25 5 -49q0 -38 -18.5 -79.5t-46.5 -65.5q18 10 38 10 q23 0 52.5 -15.5t46.5 -15.5q44 0 65 34l27 -59q-12 -18 -40.5 -30.5t-57.5 -12.5q-35 0 -67 20.5t-51 20.5q-31 0 -78 -36l-27 55q40 27 64 70.5t24 88.5q0 30 -12 64h-90z"/>
<glyph glyph-name="currency" horiz-adv-x="391" unicode="¤" d="M196 162q31 0 51 26t27 62t7 83q0 46 -7 82t-27 62t-51 26q-46 0 -66 -49t-20 -121q0 -73 20 -122t66 -49zM196 97q-54 0 -90 34l-65 -66l-43 43l73 73q-29 61 -29 152q0 93 30 153l-74 74l43 43l67 -68q35 33 88 33q52 0 87 -32l67 67l43 -43l-74 -74q30 -60 30 -153 q0 -91 -30 -154l74 -74l-43 -43l-67 67q-37 -32 -87 -32z"/>
<glyph glyph-name="yen" horiz-adv-x="372" unicode="¥" d="M224 0h-75v124h-128v49h128v110h-128v49h109l-131 335h82l105 -307l107 307h80l-130 -335h106v-49h-125v-110h125v-49h-125v-124z"/>
<glyph glyph-name="brokenbar" horiz-adv-x="177" unicode="¦" d="M114 371h-51v316h51v-316zM114 -20h-51v316h51v-316z"/>
<glyph glyph-name="section" horiz-adv-x="310" unicode="§" d="M221 288q0 58 -55 103q-68 -12 -68 -73q0 -31 16 -56.5t55 -52.5q52 27 52 79zM283 300q0 -82 -72 -116q72 -56 72 -135q0 -54 -37 -92t-94 -38q-80 0 -131 61l33 46q39 -54 93 -54q31 0 51 22.5t20 52.5q0 27 -13.5 49t-33.5 36t-44 31.5t-44 34.5t-33.5 46t-13.5 65 q0 38 22 69t62 40q-84 62 -84 142q0 52 35.5 84.5t85.5 32.5q74 0 121 -55l-32 -42q-37 45 -84 45q-27 0 -44 -18.5t-17 -46.5q0 -25 13.5 -45.5t33.5 -34.5t44 -31.5t44 -35.5t33.5 -47.5t13.5 -65.5z"/>
<glyph glyph-name="dieresis" horiz-adv-x="264" unicode="¨" d="M105 603q0 -18 -13 -30.5t-31 -12.5q-17 0 -30 12.5t-13 30.5t13 30.5t30 12.5q18 0 31 -12.5t13 -30.5zM246 603q0 -18 -13 -30.5t-31 -12.5q-17 0 -30 12.5t-13 30.5t13 30.5t30 12.5q18 0 31 -12.5t13 -30.5z"/>
<glyph glyph-name="copyright" horiz-adv-x="778" unicode="©" d="M512 211l25 -24q-57 -66 -145 -66q-87 0 -148 61.5t-61 151.5q0 92 60.5 153t148.5 61q90 0 145 -65l-25 -24q-19 26 -52 41.5t-68 15.5q-72 0 -123 -50.5t-51 -131.5q0 -77 51.5 -129t122.5 -52q36 0 68 16t52 42zM704 334q0 130 -92.5 222.5t-222.5 92.5t-222.5 -92.5 t-92.5 -222.5t92.5 -222.5t222.5 -92.5t222.5 92.5t92.5 222.5zM734 334q0 -142 -101 -243.5t-244 -101.5t-244 101.5t-101 243.5t101 243.5t244 101.5t244 -101.5t101 -243.5z"/>
<glyph glyph-name="ordfeminine" horiz-adv-x="280" unicode="ª" d="M129 355q37 0 52 38v59q-15 39 -52 39q-23 0 -36 -19.5t-13 -48.5t13 -48.5t36 -19.5zM234 326h-53v33q-23 -41 -68 -41q-39 0 -63 28.5t-24 75.5t24 75t63 28q45 0 68 -38v52q0 65 -53 65q-37 0 -67 -36l-22 37q40 43 98 43q50 0 73.5 -27.5t23.5 -85.5v-209z"/>
<glyph glyph-name="guillemotleft" horiz-adv-x="325" unicode="«" d="M178 63h-58l-90 180l90 177h58l-90 -177zM295 63h-59l-90 180l90 177h59l-90 -177z"/>
<glyph glyph-name="logicalnot" d="M349 456v-244h-52v195h-268v49h320z" unicode="¬"/>
<glyph glyph-name="uni00AD" horiz-adv-x="235" unicode="­" d="M205 211h-175v61h175v-61z"/>
<glyph glyph-name="registered" horiz-adv-x="494" unicode="®" d="M309 512q0 19 -13.5 32.5t-30.5 13.5h-67v-90h67q16 0 30 13t14 31zM345 343h-40l-63 96h-44v-96h-32v243h99q32 0 54.5 -20.5t22.5 -53.5q0 -35 -22.5 -53.5t-39.5 -18.5zM431 465q0 77 -53.5 130.5t-130.5 53.5t-130.5 -53.5t-53.5 -130.5q0 -76 54 -130t130 -54 t130 54t54 130zM459 465q0 -88 -62 -150t-150 -62t-150 62t-62 150t62 150t150 62q89 0 150.5 -61.5t61.5 -150.5z"/>
<glyph glyph-name="macron" horiz-adv-x="248" unicode="¯" d="M248 573h-248v45h248v-45z"/>
<glyph glyph-name="degree" horiz-adv-x="288" unicode="°" d="M219 556q0 31 -22.5 53t-53.5 22t-52.5 -22t-21.5 -53t21.5 -52.5t52.5 -21.5t53.5 21.5t22.5 52.5zM264 556q0 -49 -35.5 -84t-85.5 -35q-49 0 -84 34.5t-35 84.5t35 85.5t84 35.5q50 0 85.5 -35.5t35.5 -85.5z"/>
<glyph glyph-name="plusminus" d="M349 44h-320v50h320v-50zM349 312h-133v-154h-53v154h-134v50h134v148h53v-148h133v-50z" unicode="±"/>
<glyph glyph-name="twosuperior" horiz-adv-x="265" unicode="²" d="M241 421h-210v42q99 130 126 174.5t27 83.5q0 27 -15 43.5t-39 16.5q-45 0 -70 -51l-36 32q40 65 109 65q48 0 77 -28t29 -77q0 -42 -27 -90t-112 -165h141v-46z"/>
<glyph glyph-name="threesuperior" horiz-adv-x="265" unicode="³" d="M243 530q0 -52 -29.5 -84t-82.5 -32q-75 0 -111 66l39 32q25 -52 70 -52q58 0 58 73q0 38 -18 54.5t-43 16.5q-22 0 -27 -1v46q5 -1 24 -1q27 0 43.5 17t16.5 49q0 67 -54 67q-42 0 -68 -48l-37 30q36 64 107 64q48 0 77 -27t29 -80q0 -33 -18 -59t-46 -33q28 -6 49 -33 t21 -65z"/>
<glyph glyph-name="acute" horiz-adv-x="146" unicode="´" d="M146 700l-100 -144h-46l79 144h67z"/>
<glyph glyph-name="mu" horiz-adv-x="387" unicode="µ" d="M124 8v-192h-68v667h68v-372q0 -64 49 -64q26 0 47.5 23t33.5 56v357h68v-384q0 -26 6.5 -38t23.5 -12q9 0 14 1l6 -58q-14 -4 -33 -4q-39 0 -59 20.5t-25 63.5q-30 -84 -86 -84q-29 0 -45 20z"/>
<glyph glyph-name="paragraph" horiz-adv-x="449" unicode="¶" d="M375 -100h-43v724h-90v-724h-43v423q-71 0 -121.5 50.5t-50.5 121.5t50.5 121.5t121.5 50.5h176v-767z"/>
<glyph glyph-name="periodcentered" horiz-adv-x="227" unicode="·" d="M165 245q0 -21 -15 -36.5t-37 -15.5q-21 0 -36.5 15.5t-15.5 36.5q0 20 15.5 35.5t36.5 15.5t36.5 -15t15.5 -36z"/>
<glyph glyph-name="cedilla" horiz-adv-x="165" unicode="¸" d="M77 -191q-39 0 -77 30l17 35q30 -27 59 -27q19 0 33 12t14 31q0 15 -8 24.5t-21 9.5q-14 0 -28 -14l-31 17l31 84h43l-27 -67q13 10 29 10q23 0 38.5 -18t15.5 -47q0 -35 -25 -57.5t-63 -22.5z"/>
<glyph glyph-name="onesuperior" horiz-adv-x="215" unicode="¹" d="M162 421h-55v328l-60 -63l-32 33l99 102h48v-400z"/>
<glyph glyph-name="ordmasculine" horiz-adv-x="289" unicode="º" d="M144 363q58 0 58 120q0 119 -58 119q-57 0 -57 -119q0 -120 57 -120zM144 318q-55 0 -84 47.5t-29 117.5t29 117.5t84 47.5q56 0 84.5 -47t28.5 -118t-28.5 -118t-84.5 -47z"/>
<glyph glyph-name="guillemotright" horiz-adv-x="325" unicode="»" d="M295 243l-90 -180h-59l90 180l-90 177h59zM178 243l-90 -180h-58l90 180l-90 177h58z"/>
<glyph glyph-name="onequarter" horiz-adv-x="576" unicode="¼" d="M444 667l-274 -667h-41l273 667h42zM469 147v189l-93 -189h93zM560 102h-36v-102h-55v102h-141v46l128 252h68v-253h36v-45zM162 267h-55v328l-60 -63l-32 33l99 102h48v-400z"/>
<glyph glyph-name="onehalf" horiz-adv-x="608" unicode="½" d="M444 667l-274 -667h-41l273 667h42zM585 0h-210v42q99 130 126 174.5t27 83.5q0 27 -15 43.5t-39 16.5q-45 0 -70 -51l-36 32q40 65 109 65q48 0 77 -28t29 -77q0 -42 -27 -90t-112 -165h141v-46zM162 267h-55v328l-60 -63l-32 33l99 102h48v-400z"/>
<glyph glyph-name="threequarters" horiz-adv-x="612" unicode="¾" d="M243 376q0 -52 -29.5 -84t-82.5 -32q-75 0 -111 66l39 32q25 -52 70 -52q58 0 58 73q0 38 -18 54.5t-43 16.5q-22 0 -27 -1v46q5 -1 24 -1q27 0 43.5 17t16.5 49q0 67 -54 67q-42 0 -68 -48l-37 30q36 64 107 64q48 0 77 -27t29 -80q0 -33 -18 -59t-46 -33q28 -6 49 -33 t21 -65zM480 667l-274 -667h-41l273 667h42zM505 147v189l-93 -189h93zM596 102h-36v-102h-55v102h-141v46l128 252h68v-253h36v-45z"/>
<glyph glyph-name="questiondown" horiz-adv-x="270" unicode="¿" d="M153 493q21 0 36.5 -15.5t15.5 -36.5t-15.5 -36t-36.5 -15t-36.5 15t-15.5 36t15.5 36.5t36.5 15.5zM178 298q27 -36 27 -84q0 -40 -16.5 -75t-36.5 -57t-36.5 -55.5t-16.5 -70.5q0 -33 21 -60t54 -27q36 0 67 34l34 -50q-46 -50 -115 -50q-59 0 -97.5 41t-38.5 100 q0 45 18 84.5t39.5 63.5t39.5 57.5t18 67.5q0 31 -19 54z"/>
<glyph glyph-name="Agrave" horiz-adv-x="364" unicode="À" d="M218 723h-46l-100 144h67zM244 220l-62 357l-62 -357h124zM357 0h-77l-27 153h-142l-27 -153h-77l131 667h87z"/>
<glyph glyph-name="Aacute" horiz-adv-x="364" unicode="Á" d="M291 867l-100 -144h-46l79 144h67zM244 220l-62 357l-62 -357h124zM357 0h-77l-27 153h-142l-27 -153h-77l131 667h87z"/>
<glyph glyph-name="Acircumflex" horiz-adv-x="364" unicode="Â" d="M244 220l-62 357l-62 -357h124zM357 0h-77l-27 153h-142l-27 -153h-77l131 667h87zM282 723h-41l-60 105l-57 -105h-42l66 144h66z"/>
<glyph glyph-name="Atilde" horiz-adv-x="364" unicode="Ã" d="M222 721q-24 0 -38 23.5t-23.5 47.5t-21.5 24q-31 0 -31 -89h-39q0 59 18.5 96.5t54.5 37.5q24 0 38 -23.5t24 -47.5t22 -24q30 0 30 89h39q0 -59 -18.5 -96.5t-54.5 -37.5zM244 220l-62 357l-62 -357h124zM357 0h-77l-27 153h-142l-27 -153h-77l131 667h87z"/>
<glyph glyph-name="Adieresis" horiz-adv-x="364" unicode="Ä" d="M244 220l-62 357l-62 -357h124zM357 0h-77l-27 153h-142l-27 -153h-77l131 667h87zM155 770q0 -18 -13 -30.5t-31 -12.5q-17 0 -30 12.5t-13 30.5t13 30.5t30 12.5q18 0 31 -12.5t13 -30.5zM296 770q0 -18 -13 -30.5t-31 -12.5q-17 0 -30 12.5t-13 30.5t13 30.5t30 12.5 q18 0 31 -12.5t13 -30.5z"/>
<glyph glyph-name="Aring" horiz-adv-x="364" unicode="Å" d="M182 728q20 0 33.5 14t13.5 34q0 19 -14 32.5t-33 13.5t-33 -13.5t-14 -32.5q0 -20 13.5 -34t33.5 -14zM182 692q-34 0 -58.5 24.5t-24.5 59.5q0 34 24.5 58t58.5 24t58 -24t24 -58q0 -35 -24 -59.5t-58 -24.5zM244 220l-62 357l-62 -357h124zM357 0h-77l-27 153h-142 l-27 -153h-77l131 667h87z"/>
<glyph glyph-name="AE" horiz-adv-x="554" unicode="Æ" d="M263 220v357l-107 -357h107zM511 0h-248v153h-125l-47 -153h-77l217 667h280v-67h-172v-225h165v-67h-165v-241h172v-67z"/>
<glyph glyph-name="Ccedilla" horiz-adv-x="390" unicode="Ç" d="M212 -187q-40 0 -77 30l17 35q30 -27 59 -27q19 0 33 12t14 31q0 15 -8 24.5t-21 9.5q-14 0 -28 -14l-31 17l22 59q-76 14 -112.5 106t-36.5 237q0 156 42.5 250.5t131.5 94.5q99 0 138 -128l-62 -24q-13 43 -29.5 63.5t-46.5 20.5q-96 0 -96 -277t96 -277 q33 0 50.5 26.5t27.5 74.5l63 -23q-32 -134 -125 -145l-16 -41q13 10 29 10q23 0 38.5 -18t15.5 -47q0 -35 -25 -57.5t-63 -22.5z"/>
<glyph glyph-name="Egrave" horiz-adv-x="352" unicode="È" d="M223 723h-46l-100 144h67zM311 0h-248v667h248v-67h-173v-225h166v-67h-166v-241h173v-67z"/>
<glyph glyph-name="Eacute" horiz-adv-x="352" unicode="É" d="M311 0h-248v667h248v-67h-173v-225h166v-67h-166v-241h173v-67zM296 867l-100 -144h-46l79 144h67z"/>
<glyph glyph-name="Ecircumflex" horiz-adv-x="352" unicode="Ê" d="M311 0h-248v667h248v-67h-173v-225h166v-67h-166v-241h173v-67zM289 723h-41l-60 105l-57 -105h-42l66 144h66z"/>
<glyph glyph-name="Edieresis" horiz-adv-x="352" unicode="Ë" d="M311 0h-248v667h248v-67h-173v-225h166v-67h-166v-241h173v-67zM161 770q0 -18 -13 -30.5t-31 -12.5q-17 0 -30 12.5t-13 30.5t13 30.5t30 12.5q18 0 31 -12.5t13 -30.5zM302 770q0 -18 -13 -30.5t-31 -12.5q-17 0 -30 12.5t-13 30.5t13 30.5t30 12.5q18 0 31 -12.5 t13 -30.5z"/>
<glyph glyph-name="Igrave" horiz-adv-x="201" unicode="Ì" d="M137 723h-46l-100 144h67zM138 0h-75v667h75v-667z"/>
<glyph glyph-name="Iacute" horiz-adv-x="201" unicode="Í" d="M210 867l-100 -144h-46l79 144h67zM138 0h-75v667h75v-667z"/>
<glyph glyph-name="Icircumflex" horiz-adv-x="201" unicode="Î" d="M138 0h-75v667h75v-667zM201 723h-41l-60 105l-57 -105h-42l66 144h66z"/>
<glyph glyph-name="Idieresis" horiz-adv-x="201" unicode="Ï" d="M138 0h-75v667h75v-667zM76 770q0 -18 -13 -30.5t-31 -12.5q-17 0 -30 12.5t-13 30.5t13 30.5t30 12.5q18 0 31 -12.5t13 -30.5zM217 770q0 -18 -13 -30.5t-31 -12.5q-17 0 -30 12.5t-13 30.5t13 30.5t30 12.5q18 0 31 -12.5t13 -30.5z"/>
<glyph glyph-name="Eth" horiz-adv-x="446" unicode="Ð" d="M209 67q116 0 116 266q0 267 -116 267h-52v-243h83v-56h-83v-234h52zM209 0h-127v301h-61v56h61v310h127q99 0 147 -90.5t48 -243.5q0 -154 -47.5 -243.5t-147.5 -89.5z"/>
<glyph glyph-name="Ntilde" horiz-adv-x="436" unicode="Ñ" d="M373 0h-72l-163 462v-462h-75v667h75l160 -453v453h75v-667zM255 721q-24 0 -38 23.5t-23.5 47.5t-21.5 24q-31 0 -31 -89h-39q0 59 18.5 96.5t54.5 37.5q24 0 38 -23.5t24 -47.5t22 -24q30 0 30 89h39q0 -59 -18.5 -96.5t-54.5 -37.5z"/>
<glyph glyph-name="Ograve" horiz-adv-x="434" unicode="Ò" d="M217 56q50 0 73 77t23 200q0 124 -23 200.5t-73 76.5q-96 0 -96 -277t96 -277zM217 -12q-61 0 -101 48t-56.5 122.5t-16.5 174.5t16.5 174.5t56.5 122.5t101 48q89 0 131.5 -95.5t42.5 -249.5t-42.5 -249.5t-131.5 -95.5zM253 723h-46l-100 144h67z"/>
<glyph glyph-name="Oacute" horiz-adv-x="434" unicode="Ó" d="M217 56q50 0 73 77t23 200q0 124 -23 200.5t-73 76.5q-96 0 -96 -277t96 -277zM217 -12q-61 0 -101 48t-56.5 122.5t-16.5 174.5t16.5 174.5t56.5 122.5t101 48q89 0 131.5 -95.5t42.5 -249.5t-42.5 -249.5t-131.5 -95.5zM326 867l-100 -144h-46l79 144h67z"/>
<glyph glyph-name="Ocircumflex" horiz-adv-x="434" unicode="Ô" d="M217 56q50 0 73 77t23 200q0 124 -23 200.5t-73 76.5q-96 0 -96 -277t96 -277zM217 -12q-61 0 -101 48t-56.5 122.5t-16.5 174.5t16.5 174.5t56.5 122.5t101 48q89 0 131.5 -95.5t42.5 -249.5t-42.5 -249.5t-131.5 -95.5zM318 723h-41l-60 105l-57 -105h-42l66 144h66z "/>
<glyph glyph-name="Otilde" horiz-adv-x="434" unicode="Õ" d="M258 721q-24 0 -38 23.5t-23.5 47.5t-21.5 24q-31 0 -31 -89h-39q0 59 18.5 96.5t54.5 37.5q24 0 38 -23.5t24 -47.5t22 -24q30 0 30 89h39q0 -59 -18.5 -96.5t-54.5 -37.5zM217 56q50 0 73 77t23 200q0 124 -23 200.5t-73 76.5q-96 0 -96 -277t96 -277zM217 -12 q-61 0 -101 48t-56.5 122.5t-16.5 174.5t16.5 174.5t56.5 122.5t101 48q89 0 131.5 -95.5t42.5 -249.5t-42.5 -249.5t-131.5 -95.5z"/>
<glyph glyph-name="Odieresis" horiz-adv-x="434" unicode="Ö" d="M217 56q50 0 73 77t23 200q0 124 -23 200.5t-73 76.5q-96 0 -96 -277t96 -277zM217 -12q-61 0 -101 48t-56.5 122.5t-16.5 174.5t16.5 174.5t56.5 122.5t101 48q89 0 131.5 -95.5t42.5 -249.5t-42.5 -249.5t-131.5 -95.5zM190 770q0 -18 -13 -30.5t-31 -12.5 q-17 0 -30 12.5t-13 30.5t13 30.5t30 12.5q18 0 31 -12.5t13 -30.5zM331 770q0 -18 -13 -30.5t-31 -12.5q-17 0 -30 12.5t-13 30.5t13 30.5t30 12.5q18 0 31 -12.5t13 -30.5z"/>
<glyph glyph-name="multiply" d="M296 192l-107 107l-107 -107l-35 35l108 107l-108 107l35 35l107 -107l107 107l35 -35l-107 -107l107 -107z" unicode="×"/>
<glyph glyph-name="Oslash" horiz-adv-x="434" unicode="Ø" d="M217 56q50 0 73 77t23 200q0 85 -10 145l-152 -366q24 -56 66 -56zM121 333q0 -85 10 -145l151 365q-24 57 -65 57q-96 0 -96 -277zM217 -12q-58 0 -99 44l-13 -32h-52l33 80q-43 90 -43 253q0 100 16.5 174.5t56.5 122.5t101 48q57 0 99 -45l14 34h51l-34 -82 q44 -89 44 -252q0 -154 -42.5 -249.5t-131.5 -95.5z"/>
<glyph glyph-name="Ugrave" horiz-adv-x="437" unicode="Ù" d="M255 723h-46l-100 144h67zM218 -12q-70 0 -112.5 46t-42.5 138v495h75v-498q0 -114 80 -114q81 0 81 114v498h75v-495q0 -92 -43 -138t-113 -46z"/>
<glyph glyph-name="Uacute" horiz-adv-x="437" unicode="Ú" d="M218 -12q-70 0 -112.5 46t-42.5 138v495h75v-498q0 -114 80 -114q81 0 81 114v498h75v-495q0 -92 -43 -138t-113 -46zM328 867l-100 -144h-46l79 144h67z"/>
<glyph glyph-name="Ucircumflex" horiz-adv-x="437" unicode="Û" d="M218 -12q-70 0 -112.5 46t-42.5 138v495h75v-498q0 -114 80 -114q81 0 81 114v498h75v-495q0 -92 -43 -138t-113 -46zM318 723h-41l-60 105l-57 -105h-42l66 144h66z"/>
<glyph glyph-name="Udieresis" horiz-adv-x="437" unicode="Ü" d="M218 -12q-70 0 -112.5 46t-42.5 138v495h75v-498q0 -114 80 -114q81 0 81 114v498h75v-495q0 -92 -43 -138t-113 -46zM191 770q0 -18 -13 -30.5t-31 -12.5q-17 0 -30 12.5t-13 30.5t13 30.5t30 12.5q18 0 31 -12.5t13 -30.5zM332 770q0 -18 -13 -30.5t-31 -12.5 q-17 0 -30 12.5t-13 30.5t13 30.5t30 12.5q18 0 31 -12.5t13 -30.5z"/>
<glyph glyph-name="Yacute" horiz-adv-x="372" unicode="Ý" d="M296 867l-100 -144h-46l79 144h67zM224 0h-75v283l-150 384h82l105 -307l107 307h80l-149 -384v-283z"/>
<glyph glyph-name="Thorn" horiz-adv-x="387" unicode="Þ" d="M193 215q43 0 65.5 35.5t22.5 95.5q0 61 -22.5 97t-65.5 36h-55v-264h55zM138 0h-75v667h75v-121h62q78 0 118.5 -57t40.5 -143q0 -85 -40.5 -141.5t-118.5 -56.5h-62v-148z"/>
<glyph glyph-name="germandbls" horiz-adv-x="452" unicode="ß" d="M437 118q0 -53 -37 -91.5t-92 -38.5q-75 0 -127 61l31 49q39 -54 86 -54q27 0 47 20t20 52q0 30 -17.5 53.5t-42.5 41t-50.5 36.5t-43 50t-17.5 71q0 30 15.5 55.5t33.5 40.5t33.5 37t15.5 46q0 29 -21.5 49t-54.5 20q-37 0 -59.5 -24t-22.5 -73v-519h-68v519 q0 69 41.5 113.5t108.5 44.5q61 0 102.5 -35.5t41.5 -88.5q0 -34 -15.5 -62t-34 -42.5t-34 -34.5t-15.5 -41q0 -28 18 -50t44 -39t52 -36.5t44 -52.5t18 -77z"/>
<glyph glyph-name="agrave" horiz-adv-x="376" unicode="à" d="M223 556h-46l-100 144h67zM176 38q51 0 75 63v92q-24 65 -75 65q-36 0 -54.5 -31.5t-18.5 -78.5t18.5 -78.5t54.5 -31.5zM320 0h-69v48q-16 -30 -41.5 -45t-52.5 -15q-56 0 -90 44.5t-34 116.5q0 71 34 115t90 44q27 0 52.5 -14.5t41.5 -42.5v80q0 53 -17 79t-58 26 q-51 0 -95 -51l-29 49q55 61 135 61q133 0 133 -151v-344z"/>
<glyph glyph-name="aacute" horiz-adv-x="376" unicode="á" d="M296 700l-100 -144h-46l79 144h67zM176 38q51 0 75 63v92q-24 65 -75 65q-36 0 -54.5 -31.5t-18.5 -78.5t18.5 -78.5t54.5 -31.5zM320 0h-69v48q-16 -30 -41.5 -45t-52.5 -15q-56 0 -90 44.5t-34 116.5q0 71 34 115t90 44q27 0 52.5 -14.5t41.5 -42.5v80q0 53 -17 79 t-58 26q-51 0 -95 -51l-29 49q55 61 135 61q133 0 133 -151v-344z"/>
<glyph glyph-name="acircumflex" horiz-adv-x="376" unicode="â" d="M290 556h-41l-60 105l-57 -105h-42l66 144h66zM176 38q51 0 75 63v92q-24 65 -75 65q-36 0 -54.5 -31.5t-18.5 -78.5t18.5 -78.5t54.5 -31.5zM320 0h-69v48q-16 -30 -41.5 -45t-52.5 -15q-56 0 -90 44.5t-34 116.5q0 71 34 115t90 44q27 0 52.5 -14.5t41.5 -42.5v80 q0 53 -17 79t-58 26q-51 0 -95 -51l-29 49q55 61 135 61q133 0 133 -151v-344z"/>
<glyph glyph-name="atilde" horiz-adv-x="376" unicode="ã" d="M229 554q-24 0 -38 24t-23.5 47.5t-21.5 23.5q-31 0 -31 -89h-39q0 59 18.5 96.5t54.5 37.5q19 0 32 -15t19 -32.5t14.5 -32.5t18.5 -15q30 0 30 89h39q0 -59 -18.5 -96.5t-54.5 -37.5zM176 38q51 0 75 63v92q-24 65 -75 65q-36 0 -54.5 -31.5t-18.5 -78.5t18.5 -78.5 t54.5 -31.5zM320 0h-69v48q-16 -30 -41.5 -45t-52.5 -15q-56 0 -90 44.5t-34 116.5q0 71 34 115t90 44q27 0 52.5 -14.5t41.5 -42.5v80q0 53 -17 79t-58 26q-51 0 -95 -51l-29 49q55 61 135 61q133 0 133 -151v-344z"/>
<glyph glyph-name="adieresis" horiz-adv-x="376" unicode="ä" d="M161 603q0 -18 -13 -30.5t-31 -12.5q-17 0 -30 12.5t-13 30.5t13 30.5t30 12.5q18 0 31 -12.5t13 -30.5zM302 603q0 -18 -13 -30.5t-31 -12.5q-17 0 -30 12.5t-13 30.5t13 30.5t30 12.5q18 0 31 -12.5t13 -30.5zM176 38q51 0 75 63v92q-24 65 -75 65q-36 0 -54.5 -31.5 t-18.5 -78.5t18.5 -78.5t54.5 -31.5zM320 0h-69v48q-16 -30 -41.5 -45t-52.5 -15q-56 0 -90 44.5t-34 116.5q0 71 34 115t90 44q27 0 52.5 -14.5t41.5 -42.5v80q0 53 -17 79t-58 26q-51 0 -95 -51l-29 49q55 61 135 61q133 0 133 -151v-344z"/>
<glyph glyph-name="aring" horiz-adv-x="376" unicode="å" d="M188 581q20 0 33.5 14t13.5 34q0 19 -14 32.5t-33 13.5t-33 -13.5t-14 -32.5q0 -20 13.5 -34t33.5 -14zM188 545q-34 0 -58.5 24.5t-24.5 59.5q0 34 24.5 58t58.5 24t58 -24t24 -58q0 -35 -24 -59.5t-58 -24.5zM176 38q51 0 75 63v92q-24 65 -75 65q-36 0 -54.5 -31.5 t-18.5 -78.5t18.5 -78.5t54.5 -31.5zM320 0h-69v48q-16 -30 -41.5 -45t-52.5 -15q-56 0 -90 44.5t-34 116.5q0 71 34 115t90 44q27 0 52.5 -14.5t41.5 -42.5v80q0 53 -17 79t-58 26q-51 0 -95 -51l-29 49q55 61 135 61q133 0 133 -151v-344z"/>
<glyph glyph-name="ae" horiz-adv-x="584" unicode="æ" d="M257 168v25q-26 65 -79 65q-34 0 -54.5 -29t-20.5 -79q0 -51 20 -79t55 -28t57 34.5t22 90.5zM323 270h160q0 69 -18 118.5t-61 49.5q-30 0 -49.5 -29t-25.5 -64t-6 -75zM551 219h-228q1 -80 26.5 -127t74.5 -47q46 0 77 58l40 -36q-49 -79 -125 -79q-48 0 -75.5 23 t-48.5 67q-39 -90 -125 -90q-64 0 -99 43t-35 116t34.5 117t92.5 44q64 0 97 -57v80q0 105 -78 105q-53 0 -98 -51l-29 49q55 61 131 61q46 0 74.5 -23.5t36.5 -62.5q34 86 110 86q75 0 111 -70.5t36 -182.5v-23z"/>
<glyph glyph-name="ccedilla" horiz-adv-x="317" unicode="ç" d="M194 -189q-40 0 -77 30l17 35q30 -27 59 -27q19 0 33 12t14 31q0 15 -8 24.5t-21 9.5q-14 0 -28 -14l-31 17l22 61q-66 10 -101.5 79.5t-35.5 172.5q0 111 41.5 182t117.5 71q59 0 99 -44l-28 -52q-28 35 -62 35q-49 0 -72.5 -55t-23.5 -137t23.5 -137.5t72.5 -55.5 q34 0 62 35l28 -52q-31 -38 -79 -43l-17 -43q13 10 29 10q23 0 38.5 -18t15.5 -47q0 -35 -25 -57.5t-63 -22.5z"/>
<glyph glyph-name="egrave" horiz-adv-x="373" unicode="è" d="M228 556h-46l-100 144h67zM272 270q0 69 -19 118.5t-64 49.5q-31 0 -51 -29.5t-26 -64t-6 -74.5h166zM205 -12q-83 0 -125.5 70t-42.5 184q0 112 39 182.5t115 70.5q77 0 113 -69.5t36 -182.5v-24h-234q0 -80 27 -127t77 -47q47 0 80 58l41 -36q-51 -79 -126 -79z"/>
<glyph glyph-name="eacute" horiz-adv-x="373" unicode="é" d="M272 270q0 69 -19 118.5t-64 49.5q-31 0 -51 -29.5t-26 -64t-6 -74.5h166zM205 -12q-83 0 -125.5 70t-42.5 184q0 112 39 182.5t115 70.5q77 0 113 -69.5t36 -182.5v-24h-234q0 -80 27 -127t77 -47q47 0 80 58l41 -36q-51 -79 -126 -79zM300 700l-100 -144h-46l79 144h67 z"/>
<glyph glyph-name="ecircumflex" horiz-adv-x="373" unicode="ê" d="M272 270q0 69 -19 118.5t-64 49.5q-31 0 -51 -29.5t-26 -64t-6 -74.5h166zM205 -12q-83 0 -125.5 70t-42.5 184q0 112 39 182.5t115 70.5q77 0 113 -69.5t36 -182.5v-24h-234q0 -80 27 -127t77 -47q47 0 80 58l41 -36q-51 -79 -126 -79zM292 556h-41l-60 105l-57 -105 h-42l66 144h66z"/>
<glyph glyph-name="edieresis" horiz-adv-x="373" unicode="ë" d="M272 270q0 69 -19 118.5t-64 49.5q-31 0 -51 -29.5t-26 -64t-6 -74.5h166zM205 -12q-83 0 -125.5 70t-42.5 184q0 112 39 182.5t115 70.5q77 0 113 -69.5t36 -182.5v-24h-234q0 -80 27 -127t77 -47q47 0 80 58l41 -36q-51 -79 -126 -79zM164 603q0 -18 -13 -30.5 t-31 -12.5q-17 0 -30 12.5t-13 30.5t13 30.5t30 12.5q18 0 31 -12.5t13 -30.5zM305 603q0 -18 -13 -30.5t-31 -12.5q-17 0 -30 12.5t-13 30.5t13 30.5t30 12.5q18 0 31 -12.5t13 -30.5z"/>
<glyph glyph-name="igrave" horiz-adv-x="180" unicode="ì" d="M127 556h-46l-100 144h67zM124 0h-68v483h68v-483z"/>
<glyph glyph-name="iacute" horiz-adv-x="180" unicode="í" d="M124 0h-68v483h68v-483zM200 700l-100 -144h-46l79 144h67z"/>
<glyph glyph-name="icircumflex" horiz-adv-x="180" unicode="î" d="M124 0h-68v483h68v-483zM191 556h-41l-60 105l-57 -105h-42l66 144h66z"/>
<glyph glyph-name="idieresis" horiz-adv-x="180" unicode="ï" d="M124 0h-68v483h68v-483zM63 603q0 -18 -13 -30.5t-31 -12.5q-17 0 -30 12.5t-13 30.5t13 30.5t30 12.5q18 0 31 -12.5t13 -30.5zM204 603q0 -18 -13 -30.5t-31 -12.5q-17 0 -30 12.5t-13 30.5t13 30.5t30 12.5q18 0 31 -12.5t13 -30.5z"/>
<glyph glyph-name="eth" horiz-adv-x="382" unicode="ð" d="M191 49q82 0 82 186t-82 186q-44 0 -63 -53.5t-19 -132.5q0 -186 82 -186zM118 513l-17 38l97 43q-23 46 -35 65l62 30q16 -26 35 -67l69 31l17 -37l-69 -31q67 -162 67 -330q0 -121 -37 -194t-116 -73q-78 0 -116 70.5t-38 176.5q0 105 35 175.5t104 70.5q57 0 83 -61 q-14 62 -44 137z"/>
<glyph glyph-name="ntilde" d="M231 554q-24 0 -38 24t-23.5 47.5t-21.5 23.5q-31 0 -31 -89h-39q0 59 18.5 96.5t54.5 37.5q19 0 32 -15t19 -32.5t14.5 -32.5t18.5 -15q30 0 30 89h39q0 -59 -18.5 -96.5t-54.5 -37.5zM322 0h-68v371q0 63 -46 63q-26 0 -49 -23t-35 -56v-355h-68v483h68v-68 q16 34 46.5 57t61.5 23q90 0 90 -105v-390z" unicode="ñ"/>
<glyph glyph-name="ograve" horiz-adv-x="382" unicode="ò" d="M228 556h-46l-100 144h67zM191 49q82 0 82 193q0 192 -82 192t-82 -192q0 -193 82 -193zM191 -12q-78 0 -116 72t-38 182q0 109 38 181t116 72t115.5 -71.5t37.5 -181.5t-37.5 -182t-115.5 -72z"/>
<glyph glyph-name="oacute" horiz-adv-x="382" unicode="ó" d="M191 49q82 0 82 193q0 192 -82 192t-82 -192q0 -193 82 -193zM191 -12q-78 0 -116 72t-38 182q0 109 38 181t116 72t115.5 -71.5t37.5 -181.5t-37.5 -182t-115.5 -72zM300 700l-100 -144h-46l79 144h67z"/>
<glyph glyph-name="ocircumflex" horiz-adv-x="382" unicode="ô" d="M191 49q82 0 82 193q0 192 -82 192t-82 -192q0 -193 82 -193zM191 -12q-78 0 -116 72t-38 182q0 109 38 181t116 72t115.5 -71.5t37.5 -181.5t-37.5 -182t-115.5 -72zM291 556h-41l-60 105l-57 -105h-42l66 144h66z"/>
<glyph glyph-name="otilde" horiz-adv-x="382" unicode="õ" d="M231 554q-24 0 -38 24t-23.5 47.5t-21.5 23.5q-31 0 -31 -89h-39q0 59 18.5 96.5t54.5 37.5q19 0 32 -15t19 -32.5t14.5 -32.5t18.5 -15q30 0 30 89h39q0 -59 -18.5 -96.5t-54.5 -37.5zM191 49q82 0 82 193q0 192 -82 192t-82 -192q0 -193 82 -193zM191 -12 q-78 0 -116 72t-38 182q0 109 38 181t116 72t115.5 -71.5t37.5 -181.5t-37.5 -182t-115.5 -72z"/>
<glyph glyph-name="odieresis" horiz-adv-x="382" unicode="ö" d="M191 49q82 0 82 193q0 192 -82 192t-82 -192q0 -193 82 -193zM191 -12q-78 0 -116 72t-38 182q0 109 38 181t116 72t115.5 -71.5t37.5 -181.5t-37.5 -182t-115.5 -72zM164 603q0 -18 -13 -30.5t-31 -12.5q-17 0 -30 12.5t-13 30.5t13 30.5t30 12.5q18 0 31 -12.5 t13 -30.5zM305 603q0 -18 -13 -30.5t-31 -12.5q-17 0 -30 12.5t-13 30.5t13 30.5t30 12.5q18 0 31 -12.5t13 -30.5z"/>
<glyph glyph-name="divide" horiz-adv-x="374" unicode="÷" d="M232 192q0 -18 -13 -31t-31 -13t-30.5 13t-12.5 31t12.5 31t30.5 13t31 -13t13 -31zM345 312h-316v50h316v-50zM232 478q0 -18 -13 -31t-31 -13t-30.5 13t-12.5 31t12.5 31t30.5 13t31 -13t13 -31z"/>
<glyph glyph-name="oslash" horiz-adv-x="382" unicode="ø" d="M191 49q82 0 82 193q0 55 -9 100l-129 -255q19 -38 56 -38zM109 242q0 -61 8 -102l130 256q-21 38 -56 38q-82 0 -82 -192zM91 0h-45l29 58q-38 68 -38 184q0 109 38 181t116 72q51 0 88 -35l12 23h45l-30 -59q38 -69 38 -182q0 -110 -37.5 -182t-115.5 -72q-53 0 -88 35 z"/>
<glyph glyph-name="ugrave" d="M226 556h-46l-100 144h67zM322 0h-68v66q-17 -34 -45.5 -56t-62.5 -22q-48 0 -69 25t-21 80v390h68v-372q0 -62 46 -62q26 0 49 22.5t35 54.5v357h68v-483z" unicode="ù"/>
<glyph glyph-name="uacute" d="M322 0h-68v66q-17 -34 -45.5 -56t-62.5 -22q-48 0 -69 25t-21 80v390h68v-372q0 -62 46 -62q26 0 49 22.5t35 54.5v357h68v-483zM298 700l-100 -144h-46l79 144h67z" unicode="ú"/>
<glyph glyph-name="ucircumflex" d="M322 0h-68v66q-17 -34 -45.5 -56t-62.5 -22q-48 0 -69 25t-21 80v390h68v-372q0 -62 46 -62q26 0 49 22.5t35 54.5v357h68v-483zM290 556h-41l-60 105l-57 -105h-42l66 144h66z" unicode="û"/>
<glyph glyph-name="udieresis" d="M322 0h-68v66q-17 -34 -45.5 -56t-62.5 -22q-48 0 -69 25t-21 80v390h68v-372q0 -62 46 -62q26 0 49 22.5t35 54.5v357h68v-483zM163 603q0 -18 -13 -30.5t-31 -12.5q-17 0 -30 12.5t-13 30.5t13 30.5t30 12.5q18 0 31 -12.5t13 -30.5zM304 603q0 -18 -13 -30.5 t-31 -12.5q-17 0 -30 12.5t-13 30.5t13 30.5t30 12.5q18 0 31 -12.5t13 -30.5z" unicode="ü"/>
<glyph glyph-name="yacute" horiz-adv-x="326" unicode="ý" d="M272 700l-100 -144h-46l79 144h67zM33 -189l11 60q11 -6 24 -6q17 0 26 10t16 35l19 75l-120 498h74l79 -396l82 396h72l-143 -589q-14 -51 -36.5 -70.5t-61.5 -19.5q-26 0 -42 7z"/>
<glyph glyph-name="thorn" horiz-adv-x="384" unicode="þ" d="M198 49q77 0 77 193q0 192 -77 192q-23 0 -44 -23.5t-30 -56.5v-224q9 -33 30.5 -57t43.5 -24zM215 -12q-63 0 -91 75v-247h-68v851h68v-245q32 73 91 73q66 0 99 -68.5t33 -184.5q0 -115 -33 -184.5t-99 -69.5z"/>
<glyph glyph-name="ydieresis" horiz-adv-x="326" unicode="ÿ" d="M138 603q0 -18 -13 -30.5t-31 -12.5q-17 0 -30 12.5t-13 30.5t13 30.5t30 12.5q18 0 31 -12.5t13 -30.5zM279 603q0 -18 -13 -30.5t-31 -12.5q-17 0 -30 12.5t-13 30.5t13 30.5t30 12.5q18 0 31 -12.5t13 -30.5zM33 -189l11 60q11 -6 24 -6q17 0 26 10t16 35l19 75 l-120 498h74l79 -396l82 396h72l-143 -589q-14 -51 -36.5 -70.5t-61.5 -19.5q-26 0 -42 7z"/>
<glyph glyph-name="Amacron" horiz-adv-x="364" unicode="Ā" d="M306 740h-248v45h248v-45zM244 220l-62 357l-62 -357h124zM357 0h-77l-27 153h-142l-27 -153h-77l131 667h87z"/>
<glyph glyph-name="amacron" horiz-adv-x="376" unicode="ā" d="M312 573h-248v45h248v-45zM176 38q51 0 75 63v92q-24 65 -75 65q-36 0 -54.5 -31.5t-18.5 -78.5t18.5 -78.5t54.5 -31.5zM320 0h-69v48q-16 -30 -41.5 -45t-52.5 -15q-56 0 -90 44.5t-34 116.5q0 71 34 115t90 44q27 0 52.5 -14.5t41.5 -42.5v80q0 53 -17 79t-58 26 q-51 0 -95 -51l-29 49q55 61 135 61q133 0 133 -151v-344z"/>
<glyph glyph-name="Abreve" horiz-adv-x="364" unicode="Ă" d="M301 780q-45 -61 -119 -61t-119 61l36 28q13 -20 36 -32t47 -12q55 0 83 44zM244 220l-62 357l-62 -357h124zM357 0h-77l-27 153h-142l-27 -153h-77l131 667h87z"/>
<glyph glyph-name="abreve" horiz-adv-x="376" unicode="ă" d="M307 613q-45 -61 -119 -61t-119 61l36 28q13 -20 36 -32t47 -12q55 0 83 44zM176 38q51 0 75 63v92q-24 65 -75 65q-36 0 -54.5 -31.5t-18.5 -78.5t18.5 -78.5t54.5 -31.5zM320 0h-69v48q-16 -30 -41.5 -45t-52.5 -15q-56 0 -90 44.5t-34 116.5q0 71 34 115t90 44 q27 0 52.5 -14.5t41.5 -42.5v80q0 53 -17 79t-58 26q-51 0 -95 -51l-29 49q55 61 135 61q133 0 133 -151v-344z"/>
<glyph glyph-name="Aogonek" horiz-adv-x="364" unicode="Ą" d="M244 220l-62 357l-62 -357h124zM352 -115l35 -18q-16 -53 -68 -53q-32 0 -51 19.5t-19 56.5q0 58 50 110h-19l-27 153h-142l-27 -153h-77l131 667h87l132 -667q-66 -44 -66 -108q0 -41 29 -41q26 0 32 34z"/>
<glyph glyph-name="aogonek" horiz-adv-x="376" unicode="ą" d="M176 38q51 0 75 63v92q-24 65 -75 65q-36 0 -54.5 -31.5t-18.5 -78.5t18.5 -78.5t54.5 -31.5zM315 -115l35 -18q-16 -53 -68 -53q-32 0 -51 19.5t-19 56.5q0 58 50 110h-11v48q-16 -30 -41.5 -45t-52.5 -15q-56 0 -90 44.5t-34 116.5q0 71 34 115t90 44q27 0 52.5 -14.5 t41.5 -42.5v80q0 53 -17 79t-58 26q-51 0 -95 -51l-29 49q55 61 135 61q133 0 133 -151v-344q-66 -44 -66 -108q0 -41 29 -41q26 0 32 34z"/>
<glyph glyph-name="Cacute" horiz-adv-x="390" unicode="Ć" d="M217 -12q-89 0 -131.5 94.5t-42.5 250.5t42.5 250.5t131.5 94.5q99 0 138 -128l-62 -24q-13 43 -29.5 63.5t-46.5 20.5q-96 0 -96 -277t96 -277q33 0 50.5 26.5t27.5 74.5l63 -23q-34 -146 -141 -146zM327 867l-100 -144h-46l79 144h67z"/>
<glyph glyph-name="cacute" horiz-adv-x="317" unicode="ć" d="M196 -12q-75 0 -117 71t-42 183q0 111 41.5 182t117.5 71q59 0 99 -44l-28 -52q-28 35 -62 35q-49 0 -72.5 -55t-23.5 -137t23.5 -137.5t72.5 -55.5q34 0 62 35l28 -52q-36 -44 -99 -44zM306 700l-100 -144h-46l79 144h67z"/>
<glyph glyph-name="Ccircumflex" horiz-adv-x="390" unicode="Ĉ" d="M217 -12q-89 0 -131.5 94.5t-42.5 250.5t42.5 250.5t131.5 94.5q99 0 138 -128l-62 -24q-13 43 -29.5 63.5t-46.5 20.5q-96 0 -96 -277t96 -277q33 0 50.5 26.5t27.5 74.5l63 -23q-34 -146 -141 -146zM318 723h-41l-60 105l-57 -105h-42l66 144h66z"/>
<glyph glyph-name="ccircumflex" horiz-adv-x="317" unicode="ĉ" d="M196 -12q-75 0 -117 71t-42 183q0 111 41.5 182t117.5 71q59 0 99 -44l-28 -52q-28 35 -62 35q-49 0 -72.5 -55t-23.5 -137t23.5 -137.5t72.5 -55.5q34 0 62 35l28 -52q-36 -44 -99 -44zM297 556h-41l-60 105l-57 -105h-42l66 144h66z"/>
<glyph glyph-name="Cdotaccent" horiz-adv-x="390" unicode="Ċ" d="M217 724q-18 0 -31 13t-13 31t13 31t31 13t31 -13t13 -31t-13 -31t-31 -13zM217 -12q-89 0 -131.5 94.5t-42.5 250.5t42.5 250.5t131.5 94.5q99 0 138 -128l-62 -24q-13 43 -29.5 63.5t-46.5 20.5q-96 0 -96 -277t96 -277q33 0 50.5 26.5t27.5 74.5l63 -23 q-34 -146 -141 -146z"/>
<glyph glyph-name="cdotaccent" horiz-adv-x="317" unicode="ċ" d="M198 557q-18 0 -31 13t-13 31t13 31t31 13t31 -13t13 -31t-13 -31t-31 -13zM196 -12q-75 0 -117 71t-42 183q0 111 41.5 182t117.5 71q59 0 99 -44l-28 -52q-28 35 -62 35q-49 0 -72.5 -55t-23.5 -137t23.5 -137.5t72.5 -55.5q34 0 62 35l28 -52q-36 -44 -99 -44z"/>
<glyph glyph-name="Ccaron" horiz-adv-x="390" unicode="Č" d="M217 -12q-89 0 -131.5 94.5t-42.5 250.5t42.5 250.5t131.5 94.5q99 0 138 -128l-62 -24q-13 43 -29.5 63.5t-46.5 20.5q-96 0 -96 -277t96 -277q33 0 50.5 26.5t27.5 74.5l63 -23q-34 -146 -141 -146zM253 723h-66l-69 144h42l60 -105l57 105h41z"/>
<glyph glyph-name="ccaron" horiz-adv-x="317" unicode="č" d="M196 -12q-75 0 -117 71t-42 183q0 111 41.5 182t117.5 71q59 0 99 -44l-28 -52q-28 35 -62 35q-49 0 -72.5 -55t-23.5 -137t23.5 -137.5t72.5 -55.5q34 0 62 35l28 -52q-36 -44 -99 -44zM232 556h-66l-69 144h42l60 -105l57 105h41z"/>
<glyph glyph-name="Dcaron" horiz-adv-x="427" unicode="Ď" d="M190 67q116 0 116 266q0 267 -116 267h-52v-533h52zM190 0h-127v667h127q99 0 147 -90.5t48 -243.5q0 -154 -47.5 -243.5t-147.5 -89.5zM244 723h-66l-69 144h42l60 -105l57 105h41z"/>
<glyph glyph-name="dcaron" horiz-adv-x="466" unicode="ď" d="M186 49q23 0 44.5 24t29.5 56v224q-9 32 -30 56.5t-44 24.5q-77 0 -77 -193q0 -192 77 -192zM328 0h-68v65q-15 -36 -40.5 -56.5t-50.5 -20.5q-66 0 -99 68.5t-33 184.5q0 115 33 184.5t99 69.5q26 0 51.5 -20.5t39.5 -58.5v251h68v-667zM471 614q0 -39 -20 -74.5 t-50 -57.5l-31 25q23 16 39.5 40.5t17.5 46.5h-4q-4 -1 -6 -1q-17 0 -28.5 12t-11.5 30t12.5 31t30.5 13q21 0 36 -17.5t15 -47.5z"/>
<glyph glyph-name="Dcroat" horiz-adv-x="446" unicode="Đ" d="M209 67q116 0 116 266q0 267 -116 267h-52v-243h83v-56h-83v-234h52zM209 0h-127v301h-61v56h61v310h127q99 0 147 -90.5t48 -243.5q0 -154 -47.5 -243.5t-147.5 -89.5z"/>
<glyph glyph-name="dcroat" horiz-adv-x="391" unicode="đ" d="M186 49q23 0 44.5 24t29.5 56v224q-9 32 -30 56.5t-44 24.5q-77 0 -77 -193q0 -192 77 -192zM328 0h-68v65q-15 -36 -40.5 -56.5t-50.5 -20.5q-66 0 -99 68.5t-33 184.5q0 115 33 184.5t99 69.5q26 0 51.5 -20.5t39.5 -58.5v120h-120v45h120v86h68v-86h45v-45h-45v-536z "/>
<glyph glyph-name="Emacron" horiz-adv-x="352" unicode="Ē" d="M312 740h-248v45h248v-45zM311 0h-248v667h248v-67h-173v-225h166v-67h-166v-241h173v-67z"/>
<glyph glyph-name="emacron" horiz-adv-x="373" unicode="ē" d="M314 573h-248v45h248v-45zM272 270q0 69 -19 118.5t-64 49.5q-31 0 -51 -29.5t-26 -64t-6 -74.5h166zM205 -12q-83 0 -125.5 70t-42.5 184q0 112 39 182.5t115 70.5q77 0 113 -69.5t36 -182.5v-24h-234q0 -80 27 -127t77 -47q47 0 80 58l41 -36q-51 -79 -126 -79z"/>
<glyph glyph-name="Ebreve" horiz-adv-x="352" unicode="Ĕ" d="M307 780q-45 -61 -119 -61t-119 61l36 28q13 -20 36 -32t47 -12q55 0 83 44zM311 0h-248v667h248v-67h-173v-225h166v-67h-166v-241h173v-67z"/>
<glyph glyph-name="ebreve" horiz-adv-x="373" unicode="ĕ" d="M310 613q-45 -61 -119 -61t-119 61l36 28q13 -20 36 -32t47 -12q55 0 83 44zM272 270q0 69 -19 118.5t-64 49.5q-31 0 -51 -29.5t-26 -64t-6 -74.5h166zM205 -12q-83 0 -125.5 70t-42.5 184q0 112 39 182.5t115 70.5q77 0 113 -69.5t36 -182.5v-24h-234q0 -80 27 -127 t77 -47q47 0 80 58l41 -36q-51 -79 -126 -79z"/>
<glyph glyph-name="Edotaccent" horiz-adv-x="352" unicode="Ė" d="M194 724q-18 0 -31 13t-13 31t13 31t31 13t31 -13t13 -31t-13 -31t-31 -13zM311 0h-248v667h248v-67h-173v-225h166v-67h-166v-241h173v-67z"/>
<glyph glyph-name="edotaccent" horiz-adv-x="373" unicode="ė" d="M191 557q-18 0 -31 13t-13 31t13 31t31 13t31 -13t13 -31t-13 -31t-31 -13zM272 270q0 69 -19 118.5t-64 49.5q-31 0 -51 -29.5t-26 -64t-6 -74.5h166zM205 -12q-83 0 -125.5 70t-42.5 184q0 112 39 182.5t115 70.5q77 0 113 -69.5t36 -182.5v-24h-234q0 -80 27 -127 t77 -47q47 0 80 58l41 -36q-51 -79 -126 -79z"/>
<glyph glyph-name="Eogonek" horiz-adv-x="352" unicode="Ę" d="M311 0q-66 -44 -66 -108q0 -41 29 -41q26 0 32 34l35 -18q-16 -53 -68 -53q-32 0 -51 19.5t-19 56.5q0 58 50 110h-190v667h248v-67h-173v-225h166v-67h-166v-241h173v-67z"/>
<glyph glyph-name="eogonek" horiz-adv-x="373" unicode="ę" d="M272 270q0 69 -19 118.5t-64 49.5q-31 0 -51 -29.5t-26 -64t-6 -74.5h166zM253 -115l35 -18q-16 -53 -68 -53q-32 0 -51 19.5t-19 56.5q0 54 40 99q-76 7 -114.5 75.5t-38.5 177.5q0 112 39 182.5t115 70.5q77 0 113 -69.5t36 -182.5v-24h-234q0 -80 27 -127t77 -47 q47 0 80 58l41 -36q-30 -47 -73 -67q-66 -44 -66 -108q0 -41 29 -41q26 0 32 34z"/>
<glyph glyph-name="Ecaron" horiz-adv-x="352" unicode="Ě" d="M311 0h-248v667h248v-67h-173v-225h166v-67h-166v-241h173v-67zM219 723h-66l-69 144h42l60 -105l57 105h41z"/>
<glyph glyph-name="ecaron" horiz-adv-x="373" unicode="ě" d="M272 270q0 69 -19 118.5t-64 49.5q-31 0 -51 -29.5t-26 -64t-6 -74.5h166zM205 -12q-83 0 -125.5 70t-42.5 184q0 112 39 182.5t115 70.5q77 0 113 -69.5t36 -182.5v-24h-234q0 -80 27 -127t77 -47q47 0 80 58l41 -36q-51 -79 -126 -79zM226 556h-66l-69 144h42l60 -105 l57 105h41z"/>
<glyph glyph-name="Gcircumflex" horiz-adv-x="411" unicode="Ĝ" d="M217 -12q-88 0 -131 92.5t-43 252.5t43 252.5t131 92.5q103 0 138 -128l-62 -24q-13 42 -29.5 63t-46.5 21q-96 0 -96 -277t96 -277q48 0 72 41v175h-89v67h157v-271q-51 -80 -140 -80zM318 723h-41l-60 105l-57 -105h-42l66 144h66z"/>
<glyph glyph-name="gcircumflex" horiz-adv-x="384" unicode="ĝ" d="M186 55q23 0 44 24.5t30 57.5v216q-9 32 -30 56.5t-44 24.5q-77 0 -77 -190q0 -189 77 -189zM178 -196q-79 0 -128 49l28 58q39 -46 94 -46q88 0 88 116v93q-15 -37 -40.5 -58.5t-50.5 -21.5q-66 0 -99 67t-33 183q0 115 33 183t99 68q26 0 51.5 -20.5t39.5 -58.5v67h68 v-495q0 -97 -41 -140.5t-109 -43.5zM292 556h-41l-60 105l-57 -105h-42l66 144h66z"/>
<glyph glyph-name="Gbreve" horiz-adv-x="411" unicode="Ğ" d="M338 780q-45 -61 -119 -61t-119 61l36 28q13 -20 36 -32t47 -12q55 0 83 44zM217 -12q-88 0 -131 92.5t-43 252.5t43 252.5t131 92.5q103 0 138 -128l-62 -24q-13 42 -29.5 63t-46.5 21q-96 0 -96 -277t96 -277q48 0 72 41v175h-89v67h157v-271q-51 -80 -140 -80z"/>
<glyph glyph-name="gbreve" horiz-adv-x="384" unicode="ğ" d="M311 613q-45 -61 -119 -61t-119 61l36 28q13 -20 36 -32t47 -12q55 0 83 44zM186 55q23 0 44 24.5t30 57.5v216q-9 32 -30 56.5t-44 24.5q-77 0 -77 -190q0 -189 77 -189zM178 -196q-79 0 -128 49l28 58q39 -46 94 -46q88 0 88 116v93q-15 -37 -40.5 -58.5t-50.5 -21.5 q-66 0 -99 67t-33 183q0 115 33 183t99 68q26 0 51.5 -20.5t39.5 -58.5v67h68v-495q0 -97 -41 -140.5t-109 -43.5z"/>
<glyph glyph-name="Gdotaccent" horiz-adv-x="411" unicode="Ġ" d="M218 724q-18 0 -31 13t-13 31t13 31t31 13t31 -13t13 -31t-13 -31t-31 -13zM217 -12q-88 0 -131 92.5t-43 252.5t43 252.5t131 92.5q103 0 138 -128l-62 -24q-13 42 -29.5 63t-46.5 21q-96 0 -96 -277t96 -277q48 0 72 41v175h-89v67h157v-271q-51 -80 -140 -80z"/>
<glyph glyph-name="gdotaccent" horiz-adv-x="384" unicode="ġ" d="M190 557q-18 0 -31 13t-13 31t13 31t31 13t31 -13t13 -31t-13 -31t-31 -13zM186 55q23 0 44 24.5t30 57.5v216q-9 32 -30 56.5t-44 24.5q-77 0 -77 -190q0 -189 77 -189zM178 -196q-79 0 -128 49l28 58q39 -46 94 -46q88 0 88 116v93q-15 -37 -40.5 -58.5t-50.5 -21.5 q-66 0 -99 67t-33 183q0 115 33 183t99 68q26 0 51.5 -20.5t39.5 -58.5v67h68v-495q0 -97 -41 -140.5t-109 -43.5z"/>
<glyph glyph-name="Gcommaaccent" horiz-adv-x="411" unicode="Ģ" d="M217 -12q-88 0 -131 92.5t-43 252.5t43 252.5t131 92.5q103 0 138 -128l-62 -24q-13 42 -29.5 63t-46.5 21q-96 0 -96 -277t96 -277q48 0 72 41v175h-89v67h157v-271q-51 -80 -140 -80zM264 -138q0 -39 -20 -74.5t-50 -57.5l-31 25q23 16 39.5 40.5t17.5 46.5h-4 q-4 -1 -6 -1q-17 0 -28.5 12t-11.5 30t12.5 31t30.5 13q21 0 36 -17.5t15 -47.5z"/>
<glyph glyph-name="gcommaaccent" horiz-adv-x="384" unicode="ģ" d="M186 55q23 0 44 24.5t30 57.5v216q-9 32 -30 56.5t-44 24.5q-77 0 -77 -190q0 -189 77 -189zM178 -196q-79 0 -128 49l28 58q39 -46 94 -46q88 0 88 116v93q-15 -37 -40.5 -58.5t-50.5 -21.5q-66 0 -99 67t-33 183q0 115 33 183t99 68q26 0 51.5 -20.5t39.5 -58.5v67h68 v-495q0 -97 -41 -140.5t-109 -43.5zM143 611q0 43 19.5 81t47.5 58l32 -25q-23 -16 -39 -40t-17 -46q2 1 4 1q17 0 30.5 -12.5t13.5 -30.5t-13 -31t-32 -13t-32.5 15t-13.5 43z"/>
<glyph glyph-name="Hcircumflex" horiz-adv-x="436" unicode="Ĥ" d="M373 0h-75v309h-160v-309h-75v667h75v-290h160v290h75v-667zM318 723h-41l-60 105l-57 -105h-42l66 144h66z"/>
<glyph glyph-name="hcircumflex" d="M322 0h-68v372q0 62 -46 62q-26 0 -49 -23t-35 -56v-355h-68v667h68v-252q16 34 46.5 57t61.5 23q48 0 69 -25t21 -80v-390zM289 723h-41l-60 105l-57 -105h-42l66 144h66z" unicode="ĥ"/>
<glyph glyph-name="Hbar" horiz-adv-x="478" unicode="Ħ" d="M159 377h160v124h-160v-124zM394 0h-75v309h-160v-309h-75v501h-63v45h63v121h75v-121h160v121h75v-121h58v-45h-58v-501z"/>
<glyph glyph-name="hbar" horiz-adv-x="392" unicode="ħ" d="M254 536h-116v-121q16 34 46.5 57t61.5 23q48 0 69 -25t21 -80v-390h-68v372q0 62 -46 62q-26 0 -49 -23t-35 -56v-355h-68v536h-49v45h49v86h68v-86h116v-45z"/>
<glyph glyph-name="Itilde" horiz-adv-x="201" unicode="Ĩ" d="M142 721q-24 0 -38 23.5t-23.5 47.5t-21.5 24q-31 0 -31 -89h-39q0 59 18.5 96.5t54.5 37.5q24 0 38 -23.5t24 -47.5t22 -24q30 0 30 89h39q0 -59 -18.5 -96.5t-54.5 -37.5zM138 0h-75v667h75v-667z"/>
<glyph glyph-name="itilde" horiz-adv-x="180" unicode="ĩ" d="M131 554q-24 0 -38 24t-23.5 47.5t-21.5 23.5q-31 0 -31 -89h-39q0 59 18.5 96.5t54.5 37.5q19 0 32 -15t19 -32.5t14.5 -32.5t18.5 -15q30 0 30 89h39q0 -59 -18.5 -96.5t-54.5 -37.5zM124 0h-68v483h68v-483z"/>
<glyph glyph-name="Imacron" horiz-adv-x="201" unicode="Ī" d="M224 740h-248v45h248v-45zM138 0h-75v667h75v-667z"/>
<glyph glyph-name="imacron" horiz-adv-x="180" unicode="ī" d="M214 573h-248v45h248v-45zM124 0h-68v483h68v-483z"/>
<glyph glyph-name="Ibreve" horiz-adv-x="201" unicode="Ĭ" d="M219 780q-45 -61 -119 -61t-119 61l36 28q13 -20 36 -32t47 -12q55 0 83 44zM138 0h-75v667h75v-667z"/>
<glyph glyph-name="ibreve" horiz-adv-x="180" unicode="ĭ" d="M209 613q-45 -61 -119 -61t-119 61l36 28q13 -20 36 -32t47 -12q55 0 83 44zM124 0h-68v483h68v-483z"/>
<glyph glyph-name="Iogonek" horiz-adv-x="201" unicode="Į" d="M134 -115l35 -18q-16 -53 -68 -53q-32 0 -51 19.5t-19 56.5q0 58 50 110h-18v667h75v-667h1q-66 -44 -66 -108q0 -41 29 -41q26 0 32 34z"/>
<glyph glyph-name="iogonek" horiz-adv-x="180" unicode="į" d="M90 554q-19 0 -33 14t-14 33t14 33.5t33 14.5q20 0 34 -14.5t14 -33.5t-14 -33t-34 -14zM119 -115l35 -18q-16 -53 -68 -53q-32 0 -51 19.5t-19 56.5q0 58 50 110h-10v483h68v-483q-66 -44 -66 -108q0 -41 29 -41q26 0 32 34z"/>
<glyph glyph-name="Idotaccent" horiz-adv-x="201" unicode="İ" d="M101 724q-18 0 -31 13t-13 31t13 31t31 13t31 -13t13 -31t-13 -31t-31 -13zM138 0h-75v667h75v-667z"/>
<glyph glyph-name="dotlessi" horiz-adv-x="180" unicode="ı" d="M124 0h-68v483h68v-483z"/>
<glyph glyph-name="IJ" horiz-adv-x="522" unicode="Ĳ" d="M314 -12q-63 0 -106 46l28 60q28 -38 71 -38q78 0 78 89v522h75v-525q0 -78 -39 -116t-107 -38zM138 0h-75v667h75v-667z"/>
<glyph glyph-name="ij" horiz-adv-x="361" unicode="ĳ" d="M207 -196q-40 0 -58 31l26 49q8 -19 28 -19q33 0 33 64v554h68v-554q0 -67 -24 -96t-73 -29zM270 554q-19 0 -33 14t-14 33t14 33.5t33 14.5q20 0 34 -14.5t14 -33.5t-14 -33t-34 -14zM124 0h-68v483h68v-483zM90 554q-19 0 -33 14t-14 33t14 33.5t33 14.5q20 0 34 -14.5 t14 -33.5t-14 -33t-34 -14z"/>
<glyph glyph-name="Jcircumflex" horiz-adv-x="321" unicode="Ĵ" d="M113 -12q-63 0 -106 46l28 60q29 -38 71 -38q78 0 78 89v522h75v-525q0 -78 -39 -116t-107 -38zM321 723h-41l-60 105l-57 -105h-42l66 144h66z"/>
<glyph glyph-name="jcircumflex" horiz-adv-x="180" unicode="ĵ" d="M27 -196q-40 0 -58 31l26 49q8 -19 28 -19q33 0 33 64v554h68v-554q0 -67 -24 -96t-73 -29zM192 556h-41l-60 105l-57 -105h-42l66 144h66z"/>
<glyph glyph-name="Kcommaaccent" horiz-adv-x="418" unicode="Ķ" d="M407 0h-87l-137 289l-45 -86v-203h-75v667h75v-347l171 347h85l-169 -317zM264 -138q0 -39 -20 -74.5t-50 -57.5l-31 25q23 16 39.5 40.5t17.5 46.5h-4q-4 -1 -6 -1q-17 0 -28.5 12t-11.5 30t12.5 31t30.5 13q21 0 36 -17.5t15 -47.5z"/>
<glyph glyph-name="kcommaaccent" horiz-adv-x="361" unicode="ķ" d="M345 0h-74l-91 219l-56 -96v-123h-68v667h68v-451l148 267h74l-122 -216zM235 -138q0 -39 -20 -74.5t-50 -57.5l-31 25q23 16 39.5 40.5t17.5 46.5h-4q-4 -1 -6 -1q-17 0 -28.5 12t-11.5 30t12.5 31t30.5 13q21 0 36 -17.5t15 -47.5z"/>
<glyph glyph-name="kgreenlandic" horiz-adv-x="361" unicode="ĸ" d="M345 0h-74l-91 219l-56 -96v-123h-68v483h68v-267l148 267h74l-122 -216z"/>
<glyph glyph-name="Lacute" horiz-adv-x="333" unicode="Ĺ" d="M311 0h-248v667h75v-600h173v-67zM296 867l-100 -144h-46l79 144h67z"/>
<glyph glyph-name="lacute" horiz-adv-x="180" unicode="ĺ" d="M124 0h-68v667h68v-667zM200 867l-100 -144h-46l79 144h67z"/>
<glyph glyph-name="Lcommaaccent" horiz-adv-x="333" unicode="Ļ" d="M311 0h-248v667h75v-600h173v-67zM229 -138q0 -39 -20 -74.5t-50 -57.5l-31 25q23 16 39.5 40.5t17.5 46.5h-4q-4 -1 -6 -1q-17 0 -28.5 12t-11.5 30t12.5 31t30.5 13q21 0 36 -17.5t15 -47.5z"/>
<glyph glyph-name="lcommaaccent" horiz-adv-x="180" unicode="ļ" d="M124 0h-68v667h68v-667zM145 -138q0 -39 -20 -74.5t-50 -57.5l-31 25q23 16 39.5 40.5t17.5 46.5h-4q-4 -1 -6 -1q-17 0 -28.5 12t-11.5 30t12.5 31t30.5 13q21 0 36 -17.5t15 -47.5z"/>
<glyph glyph-name="Lcaron" horiz-adv-x="333" unicode="Ľ" d="M311 0h-248v667h75v-600h173v-67zM288 615q0 -39 -20 -74.5t-50 -57.5l-31 25q23 16 39.5 40.5t17.5 46.5l-4 -1h-6q-17 0 -28.5 12t-11.5 30t12.5 31t30.5 13q21 0 36 -17.5t15 -47.5z"/>
<glyph glyph-name="lcaron" horiz-adv-x="261" unicode="ľ" d="M124 0h-68v667h68v-667zM282 615q0 -39 -20 -74.5t-50 -57.5l-31 25q23 16 39.5 40.5t17.5 46.5l-4 -1h-6q-17 0 -28.5 12t-11.5 30t12.5 31t30.5 13q21 0 36 -17.5t15 -47.5z"/>
<glyph glyph-name="Ldot" horiz-adv-x="362" unicode="Ŀ" d="M333 342q0 -21 -15 -36.5t-37 -15.5q-21 0 -36.5 15.5t-15.5 36.5q0 20 15.5 35.5t36.5 15.5t36.5 -15.5t15.5 -35.5zM311 0h-248v667h75v-600h173v-67z"/>
<glyph glyph-name="ldot" horiz-adv-x="287" unicode="ŀ" d="M286 245q0 -21 -15 -36.5t-37 -15.5q-21 0 -36.5 15.5t-15.5 36.5q0 20 15.5 35.5t36.5 15.5q22 0 37 -15t15 -36zM124 0h-68v667h68v-667z"/>
<glyph glyph-name="Lslash" horiz-adv-x="346" unicode="Ł" d="M21 247v67l55 32v321h75v-278l60 35v-66l-60 -35v-256h173v-67h-248v279z"/>
<glyph glyph-name="lslash" horiz-adv-x="222" unicode="ł" d="M21 262v56l56 31v318h68v-279l56 32v-55l-56 -32v-333h-68v294z"/>
<glyph glyph-name="Nacute" horiz-adv-x="436" unicode="Ń" d="M373 0h-72l-163 462v-462h-75v667h75l160 -453v453h75v-667zM327 867l-100 -144h-46l79 144h67z"/>
<glyph glyph-name="nacute" d="M322 0h-68v371q0 63 -46 63q-26 0 -49 -23t-35 -56v-355h-68v483h68v-68q16 34 46.5 57t61.5 23q90 0 90 -105v-390zM298 700l-100 -144h-46l79 144h67z" unicode="ń"/>
<glyph glyph-name="Ncommaaccent" horiz-adv-x="436" unicode="Ņ" d="M373 0h-72l-163 462v-462h-75v667h75l160 -453v453h75v-667zM273 -138q0 -39 -20 -74.5t-50 -57.5l-31 25q23 16 39.5 40.5t17.5 46.5h-4q-4 -1 -6 -1q-17 0 -28.5 12t-11.5 30t12.5 31t30.5 13q21 0 36 -17.5t15 -47.5z"/>
<glyph glyph-name="ncommaaccent" d="M322 0h-68v371q0 63 -46 63q-26 0 -49 -23t-35 -56v-355h-68v483h68v-68q16 34 46.5 57t61.5 23q90 0 90 -105v-390zM244 -138q0 -39 -20 -74.5t-50 -57.5l-31 25q23 16 39.5 40.5t17.5 46.5h-4q-4 -1 -6 -1q-17 0 -28.5 12t-11.5 30t12.5 31t30.5 13q21 0 36 -17.5 t15 -47.5z" unicode="ņ"/>
<glyph glyph-name="Ncaron" horiz-adv-x="436" unicode="Ň" d="M373 0h-72l-163 462v-462h-75v667h75l160 -453v453h75v-667zM253 723h-66l-69 144h42l60 -105l57 105h41z"/>
<glyph glyph-name="ncaron" d="M322 0h-68v371q0 63 -46 63q-26 0 -49 -23t-35 -56v-355h-68v483h68v-68q16 34 46.5 57t61.5 23q90 0 90 -105v-390zM223 556h-66l-69 144h42l60 -105l57 105h41z" unicode="ň"/>
<glyph glyph-name="napostrophe" d="M322 0h-68v371q0 63 -46 63q-26 0 -49 -23t-35 -56v-355h-68v483h68v-68q16 34 46.5 57t61.5 23q90 0 90 -105v-390zM141 676q0 -39 -20 -74.5t-50 -57.5l-31 25q23 16 39.5 40.5t17.5 46.5h-4q-4 -1 -6 -1q-17 0 -28.5 12t-11.5 30t12.5 31t30.5 13q21 0 36 -17.5 t15 -47.5z" unicode="ŉ"/>
<glyph glyph-name="Eng" horiz-adv-x="436" unicode="Ŋ" d="M227 -196q-63 0 -106 46l29 59q27 -38 70 -38q78 0 78 89v49l-160 477v-486h-75v667h75l160 -477v477h75v-709q0 -78 -38.5 -116t-107.5 -38z"/>
<glyph glyph-name="eng" d="M322 390v-461q0 -67 -24 -96t-74 -29q-40 0 -58 31l27 49q8 -19 27 -19q34 0 34 64v442q0 63 -46 63q-26 0 -49 -23t-35 -56v-355h-68v483h68v-68q16 34 46.5 57t61.5 23q90 0 90 -105z" unicode="ŋ"/>
<glyph glyph-name="Omacron" horiz-adv-x="434" unicode="Ō" d="M217 56q50 0 73 77t23 200q0 124 -23 200.5t-73 76.5q-96 0 -96 -277t96 -277zM217 -12q-61 0 -101 48t-56.5 122.5t-16.5 174.5t16.5 174.5t56.5 122.5t101 48q89 0 131.5 -95.5t42.5 -249.5t-42.5 -249.5t-131.5 -95.5zM340 740h-248v45h248v-45z"/>
<glyph glyph-name="omacron" horiz-adv-x="382" unicode="ō" d="M191 49q82 0 82 193q0 192 -82 192t-82 -192q0 -193 82 -193zM191 -12q-78 0 -116 72t-38 182q0 109 38 181t116 72t115.5 -71.5t37.5 -181.5t-37.5 -182t-115.5 -72zM315 573h-248v45h248v-45z"/>
<glyph glyph-name="Obreve" horiz-adv-x="434" unicode="Ŏ" d="M336 780q-45 -61 -119 -61t-119 61l36 28q13 -20 36 -32t47 -12q55 0 83 44zM217 56q50 0 73 77t23 200q0 124 -23 200.5t-73 76.5q-96 0 -96 -277t96 -277zM217 -12q-61 0 -101 48t-56.5 122.5t-16.5 174.5t16.5 174.5t56.5 122.5t101 48q89 0 131.5 -95.5t42.5 -249.5 t-42.5 -249.5t-131.5 -95.5z"/>
<glyph glyph-name="obreve" horiz-adv-x="382" unicode="ŏ" d="M310 613q-45 -61 -119 -61t-119 61l36 28q13 -20 36 -32t47 -12q55 0 83 44zM191 49q82 0 82 193q0 192 -82 192t-82 -192q0 -193 82 -193zM191 -12q-78 0 -116 72t-38 182q0 109 38 181t116 72t115.5 -71.5t37.5 -181.5t-37.5 -182t-115.5 -72z"/>
<glyph glyph-name="Ohungarumlaut" horiz-adv-x="434" unicode="Ő" d="M217 56q50 0 73 77t23 200q0 124 -23 200.5t-73 76.5q-96 0 -96 -277t96 -277zM217 -12q-61 0 -101 48t-56.5 122.5t-16.5 174.5t16.5 174.5t56.5 122.5t101 48q89 0 131.5 -95.5t42.5 -249.5t-42.5 -249.5t-131.5 -95.5zM363 867l-78 -144h-38l56 144h60zM246 867 l-77 -144h-38l56 144h59z"/>
<glyph glyph-name="ohungarumlaut" horiz-adv-x="382" unicode="ő" d="M191 49q82 0 82 193q0 192 -82 192t-82 -192q0 -193 82 -193zM191 -12q-78 0 -116 72t-38 182q0 109 38 181t116 72t115.5 -71.5t37.5 -181.5t-37.5 -182t-115.5 -72zM337 700l-78 -144h-38l56 144h60zM220 700l-77 -144h-38l56 144h59z"/>
<glyph glyph-name="OE" horiz-adv-x="594" unicode="Œ" d="M303 178v311q-11 57 -33 88.5t-53 31.5q-96 0 -96 -276q0 -277 96 -277q30 0 52.5 32t33.5 90zM551 0h-248v66q-32 -78 -98 -78q-58 0 -95 48t-52 122.5t-15 174.5t15 174t52 122t95 48q66 0 98 -76v66h248v-67h-172v-225h165v-67h-165v-241h172v-67z"/>
<glyph glyph-name="oe" horiz-adv-x="608" unicode="œ" d="M273 242q0 192 -82 192t-82 -192q0 -194 82 -194t82 194zM341 270h166q0 69 -19 118.5t-64 49.5q-44 0 -63.5 -51.5t-19.5 -116.5zM575 219h-234q1 -80 27.5 -127t76.5 -47q47 0 80 58l40 -36q-49 -79 -125 -79q-93 0 -130 110q-36 -110 -119 -110q-78 0 -116 72t-38 182 q0 109 38 181t116 72q83 0 118 -107q34 107 117 107q77 0 113 -70t36 -183v-23z"/>
<glyph glyph-name="Racute" horiz-adv-x="409" unicode="Ŕ" d="M193 336q43 0 65.5 36t22.5 96t-22.5 96t-65.5 36h-55v-264h55zM365 0h-81l-87 269h-59v-269h-75v667h140q69 0 112.5 -53.5t43.5 -143.5q0 -80 -27.5 -125t-64.5 -59zM321 867l-100 -144h-46l79 144h67z"/>
<glyph glyph-name="racute" horiz-adv-x="252" unicode="ŕ" d="M124 0h-68v483h68v-77q39 87 112 87v-71q-9 3 -18 3q-29 0 -53.5 -23t-40.5 -58v-344zM255 700l-100 -144h-46l79 144h67z"/>
<glyph glyph-name="Rcommaaccent" horiz-adv-x="409" unicode="Ŗ" d="M193 336q43 0 65.5 36t22.5 96t-22.5 96t-65.5 36h-55v-264h55zM365 0h-81l-87 269h-59v-269h-75v667h140q69 0 112.5 -53.5t43.5 -143.5q0 -80 -27.5 -125t-64.5 -59zM257 -138q0 -39 -20 -74.5t-50 -57.5l-31 25q23 16 39.5 40.5t17.5 46.5h-4q-4 -1 -6 -1 q-17 0 -28.5 12t-11.5 30t12.5 31t30.5 13q21 0 36 -17.5t15 -47.5z"/>
<glyph glyph-name="rcommaaccent" horiz-adv-x="252" unicode="ŗ" d="M124 0h-68v483h68v-77q39 87 112 87v-71q-9 3 -18 3q-29 0 -53.5 -23t-40.5 -58v-344zM180 -138q0 -39 -20 -74.5t-50 -57.5l-31 25q23 16 39.5 40.5t17.5 46.5h-4q-4 -1 -6 -1q-17 0 -28.5 12t-11.5 30t12.5 31t30.5 13q21 0 36 -17.5t15 -47.5z"/>
<glyph glyph-name="Rcaron" horiz-adv-x="409" unicode="Ř" d="M193 336q43 0 65.5 36t22.5 96t-22.5 96t-65.5 36h-55v-264h55zM365 0h-81l-87 269h-59v-269h-75v667h140q69 0 112.5 -53.5t43.5 -143.5q0 -80 -27.5 -125t-64.5 -59zM238 723h-66l-69 144h42l60 -105l57 105h41z"/>
<glyph glyph-name="rcaron" horiz-adv-x="252" unicode="ř" d="M124 0h-68v483h68v-77q39 87 112 87v-71q-9 3 -18 3q-29 0 -53.5 -23t-40.5 -58v-344zM178 556h-66l-69 144h42l60 -105l57 105h41z"/>
<glyph glyph-name="Sacute" horiz-adv-x="354" unicode="Ś" d="M163 -12q-87 0 -143 61l38 60q18 -24 45.5 -38.5t55.5 -14.5q37 0 62 28.5t25 74.5q0 42 -21.5 76t-52 60t-61 53.5t-52 69.5t-21.5 95q0 72 43.5 118.5t110.5 46.5q72 0 119 -47l-33 -58q-34 37 -85 37q-33 0 -55.5 -26t-22.5 -68q0 -35 21.5 -66.5t52 -58t60.5 -56 t51.5 -73.5t21.5 -99q0 -77 -44 -126t-115 -49zM292 867l-100 -144h-46l79 144h67z"/>
<glyph glyph-name="sacute" horiz-adv-x="309" unicode="ś" d="M152 -12q-86 0 -131 61l33 47q40 -52 93 -52q30 0 50.5 19.5t20.5 52.5q0 25 -13.5 46t-33.5 34.5t-44 31t-44 35t-33.5 46.5t-13.5 66q0 52 35.5 86t92.5 34q70 0 115 -54l-32 -46q-31 44 -82 44q-29 0 -46.5 -18t-17.5 -44q0 -28 18.5 -50.5t45.5 -40t54 -37.5 t45.5 -53.5t18.5 -77.5q0 -58 -37.5 -94t-93.5 -36zM268 700l-100 -144h-46l79 144h67z"/>
<glyph glyph-name="Scircumflex" horiz-adv-x="354" unicode="Ŝ" d="M163 -12q-87 0 -143 61l38 60q18 -24 45.5 -38.5t55.5 -14.5q37 0 62 28.5t25 74.5q0 42 -21.5 76t-52 60t-61 53.5t-52 69.5t-21.5 95q0 72 43.5 118.5t110.5 46.5q72 0 119 -47l-33 -58q-34 37 -85 37q-33 0 -55.5 -26t-22.5 -68q0 -35 21.5 -66.5t52 -58t60.5 -56 t51.5 -73.5t21.5 -99q0 -77 -44 -126t-115 -49zM291 723h-41l-60 105l-57 -105h-42l66 144h66z"/>
<glyph glyph-name="scircumflex" horiz-adv-x="309" unicode="ŝ" d="M152 -12q-86 0 -131 61l33 47q40 -52 93 -52q30 0 50.5 19.5t20.5 52.5q0 25 -13.5 46t-33.5 34.5t-44 31t-44 35t-33.5 46.5t-13.5 66q0 52 35.5 86t92.5 34q70 0 115 -54l-32 -46q-31 44 -82 44q-29 0 -46.5 -18t-17.5 -44q0 -28 18.5 -50.5t45.5 -40t54 -37.5 t45.5 -53.5t18.5 -77.5q0 -58 -37.5 -94t-93.5 -36zM259 556h-41l-60 105l-57 -105h-42l66 144h66z"/>
<glyph glyph-name="Scedilla" horiz-adv-x="354" unicode="Ş" d="M158 -191q-40 0 -77 30l17 35q30 -27 59 -27q19 0 33 12t14 31q0 15 -8 24.5t-21 9.5q-14 0 -28 -14l-31 17l23 63q-72 8 -119 59l38 60q18 -24 45.5 -38.5t55.5 -14.5q37 0 62 28.5t25 74.5q0 42 -21.5 76t-52 60t-61 53.5t-52 69.5t-21.5 95q0 72 43.5 118.5 t110.5 46.5q72 0 119 -47l-33 -58q-34 37 -85 37q-33 0 -55.5 -26t-22.5 -68q0 -35 21.5 -66.5t52 -58t60.5 -56t51.5 -73.5t21.5 -99q0 -71 -38.5 -119t-102.5 -55l-18 -45q13 10 29 10q23 0 38.5 -18t15.5 -47q0 -35 -25 -57.5t-63 -22.5z"/>
<glyph glyph-name="scedilla" horiz-adv-x="309" unicode="ş" d="M145 -191q-39 0 -77 30l17 35q30 -27 59 -27q19 0 33 12t14 31q0 15 -8 24.5t-21 9.5q-14 0 -28 -14l-31 17l23 63q-68 8 -105 59l33 47q40 -52 93 -52q30 0 50.5 19.5t20.5 52.5q0 25 -13.5 46t-33.5 34.5t-44 31t-44 35t-33.5 46.5t-13.5 66q0 52 35.5 86t92.5 34 q70 0 115 -54l-32 -46q-31 44 -82 44q-29 0 -46.5 -18t-17.5 -44q0 -28 18.5 -50.5t45.5 -40t54 -37.5t45.5 -53.5t18.5 -77.5q0 -53 -32.5 -88.5t-82.5 -40.5l-18 -45q13 10 29 10q23 0 38.5 -18t15.5 -47q0 -35 -25 -57.5t-63 -22.5z"/>
<glyph glyph-name="Scaron" horiz-adv-x="354" unicode="Š" d="M163 -12q-87 0 -143 61l38 60q18 -24 45.5 -38.5t55.5 -14.5q37 0 62 28.5t25 74.5q0 42 -21.5 76t-52 60t-61 53.5t-52 69.5t-21.5 95q0 72 43.5 118.5t110.5 46.5q72 0 119 -47l-33 -58q-34 37 -85 37q-33 0 -55.5 -26t-22.5 -68q0 -35 21.5 -66.5t52 -58t60.5 -56 t51.5 -73.5t21.5 -99q0 -77 -44 -126t-115 -49zM226 723h-66l-69 144h42l60 -105l57 105h41z"/>
<glyph glyph-name="scaron" horiz-adv-x="309" unicode="š" d="M152 -12q-86 0 -131 61l33 47q40 -52 93 -52q30 0 50.5 19.5t20.5 52.5q0 25 -13.5 46t-33.5 34.5t-44 31t-44 35t-33.5 46.5t-13.5 66q0 52 35.5 86t92.5 34q70 0 115 -54l-32 -46q-31 44 -82 44q-29 0 -46.5 -18t-17.5 -44q0 -28 18.5 -50.5t45.5 -40t54 -37.5 t45.5 -53.5t18.5 -77.5q0 -58 -37.5 -94t-93.5 -36zM194 556h-66l-69 144h42l60 -105l57 105h41z"/>
<glyph glyph-name="Tcommaaccent" horiz-adv-x="322" unicode="Ţ" d="M199 0h-76v600h-105v67h286v-67h-105v-600zM216 -138q0 -39 -20 -74.5t-50 -57.5l-31 25q23 16 39.5 40.5t17.5 46.5h-4q-4 -1 -6 -1q-17 0 -28.5 12t-11.5 30t12.5 31t30.5 13q21 0 36 -17.5t15 -47.5z"/>
<glyph glyph-name="tcommaaccent" horiz-adv-x="233" unicode="ţ" d="M156 -12q-45 0 -65.5 25t-20.5 79v331h-49v60h49v132h69v-132h65v-60h-65v-321q0 -28 6.5 -40.5t23.5 -12.5q21 0 32 17l22 -50q-26 -28 -67 -28zM171 -138q0 -39 -20 -74.5t-50 -57.5l-31 25q23 16 39.5 40.5t17.5 46.5h-4q-4 -1 -6 -1q-17 0 -28.5 12t-11.5 30t12.5 31 t30.5 13q21 0 36 -17.5t15 -47.5z"/>
<glyph glyph-name="Tcaron" horiz-adv-x="322" unicode="Ť" d="M199 0h-76v600h-105v67h286v-67h-105v-600zM196 723h-66l-69 144h42l60 -105l57 105h41z"/>
<glyph glyph-name="tcaron" horiz-adv-x="233" unicode="ť" d="M156 -12q-45 0 -65.5 25t-20.5 79v331h-49v60h49v132h69v-132h65v-60h-65v-321q0 -28 6.5 -40.5t23.5 -12.5q21 0 32 17l22 -50q-26 -28 -67 -28zM285 676q0 -39 -20 -74.5t-50 -57.5l-31 25q23 16 39.5 40.5t17.5 46.5h-4q-4 -1 -6 -1q-17 0 -28.5 12t-11.5 30t12.5 31 t30.5 13q21 0 36 -17.5t15 -47.5z"/>
<glyph glyph-name="Tbar" horiz-adv-x="322" unicode="Ŧ" d="M199 0h-76v298h-75v45h75v257h-105v67h286v-67h-105v-257h73v-45h-73v-298z"/>
<glyph glyph-name="tbar" horiz-adv-x="233" unicode="ŧ" d="M156 -12q-45 0 -65.5 25t-20.5 79v137h-49v45h49v149h-49v60h49v132h69v-132h65v-60h-65v-149h33v-45h-33v-127q0 -28 6.5 -40.5t23.5 -12.5q21 0 32 17l22 -50q-26 -28 -67 -28z"/>
<glyph glyph-name="Utilde" horiz-adv-x="437" unicode="Ũ" d="M259 721q-24 0 -38 23.5t-23.5 47.5t-21.5 24q-31 0 -31 -89h-39q0 59 18.5 96.5t54.5 37.5q24 0 38 -23.5t24 -47.5t22 -24q30 0 30 89h39q0 -59 -18.5 -96.5t-54.5 -37.5zM218 -12q-70 0 -112.5 46t-42.5 138v495h75v-498q0 -114 80 -114q81 0 81 114v498h75v-495 q0 -92 -43 -138t-113 -46z"/>
<glyph glyph-name="utilde" d="M228 554q-24 0 -38 24t-23.5 47.5t-21.5 23.5q-31 0 -31 -89h-39q0 59 18.5 96.5t54.5 37.5q19 0 32 -15t19 -32.5t14.5 -32.5t18.5 -15q30 0 30 89h39q0 -59 -18.5 -96.5t-54.5 -37.5zM322 0h-68v66q-17 -34 -45.5 -56t-62.5 -22q-48 0 -69 25t-21 80v390h68v-372 q0 -62 46 -62q26 0 49 22.5t35 54.5v357h68v-483z" unicode="ũ"/>
<glyph glyph-name="Umacron" horiz-adv-x="437" unicode="Ū" d="M342 740h-248v45h248v-45zM218 -12q-70 0 -112.5 46t-42.5 138v495h75v-498q0 -114 80 -114q81 0 81 114v498h75v-495q0 -92 -43 -138t-113 -46z"/>
<glyph glyph-name="umacron" d="M313 573h-248v45h248v-45zM322 0h-68v66q-17 -34 -45.5 -56t-62.5 -22q-48 0 -69 25t-21 80v390h68v-372q0 -62 46 -62q26 0 49 22.5t35 54.5v357h68v-483z" unicode="ū"/>
<glyph glyph-name="Ubreve" horiz-adv-x="437" unicode="Ŭ" d="M338 780q-45 -61 -119 -61t-119 61l36 28q13 -20 36 -32t47 -12q55 0 83 44zM218 -12q-70 0 -112.5 46t-42.5 138v495h75v-498q0 -114 80 -114q81 0 81 114v498h75v-495q0 -92 -43 -138t-113 -46z"/>
<glyph glyph-name="ubreve" d="M308 613q-45 -61 -119 -61t-119 61l36 28q13 -20 36 -32t47 -12q55 0 83 44zM322 0h-68v66q-17 -34 -45.5 -56t-62.5 -22q-48 0 -69 25t-21 80v390h68v-372q0 -62 46 -62q26 0 49 22.5t35 54.5v357h68v-483z" unicode="ŭ"/>
<glyph glyph-name="Uring" horiz-adv-x="437" unicode="Ů" d="M218 -12q-70 0 -112.5 46t-42.5 138v495h75v-498q0 -114 80 -114q81 0 81 114v498h75v-495q0 -92 -43 -138t-113 -46zM219 740q20 0 33.5 14t13.5 34q0 19 -14 32.5t-33 13.5t-33 -13.5t-14 -32.5q0 -20 13.5 -34t33.5 -14zM219 704q-34 0 -58.5 24.5t-24.5 59.5 q0 34 24.5 58t58.5 24t58 -24t24 -58q0 -35 -24 -59.5t-58 -24.5z"/>
<glyph glyph-name="uring" d="M322 0h-68v66q-17 -34 -45.5 -56t-62.5 -22q-48 0 -69 25t-21 80v390h68v-372q0 -62 46 -62q26 0 49 22.5t35 54.5v357h68v-483zM189 581q20 0 33.5 14t13.5 34q0 19 -14 32.5t-33 13.5t-33 -13.5t-14 -32.5q0 -20 13.5 -34t33.5 -14zM189 545q-34 0 -58.5 24.5 t-24.5 59.5q0 34 24.5 58t58.5 24t58 -24t24 -58q0 -35 -24 -59.5t-58 -24.5z" unicode="ů"/>
<glyph glyph-name="Uhungarumlaut" horiz-adv-x="437" unicode="Ű" d="M364 867l-78 -144h-38l56 144h60zM247 867l-77 -144h-38l56 144h59zM218 -12q-70 0 -112.5 46t-42.5 138v495h75v-498q0 -114 80 -114q81 0 81 114v498h75v-495q0 -92 -43 -138t-113 -46z"/>
<glyph glyph-name="uhungarumlaut" d="M335 700l-78 -144h-38l56 144h60zM218 700l-77 -144h-38l56 144h59zM322 0h-68v66q-17 -34 -45.5 -56t-62.5 -22q-48 0 -69 25t-21 80v390h68v-372q0 -62 46 -62q26 0 49 22.5t35 54.5v357h68v-483z" unicode="ű"/>
<glyph glyph-name="Uogonek" horiz-adv-x="437" unicode="Ų" d="M278 -115l35 -18q-16 -53 -68 -53q-32 0 -51 19.5t-19 56.5q0 54 39 98q-68 2 -109.5 47.5t-41.5 136.5v495h75v-498q0 -114 80 -114q81 0 81 114v498h75v-495q0 -135 -91 -172q-66 -44 -66 -108q0 -41 29 -41q26 0 32 34z"/>
<glyph glyph-name="uogonek" d="M322 0q-66 -44 -66 -108q0 -41 29 -41q26 0 32 34l35 -18q-16 -53 -68 -53q-32 0 -51 19.5t-19 56.5q0 58 50 110h-10v66q-17 -34 -45.5 -56t-62.5 -22q-48 0 -69 25t-21 80v390h68v-372q0 -62 46 -62q26 0 49 22.5t35 54.5v357h68v-483z" unicode="ų"/>
<glyph glyph-name="Wcircumflex" horiz-adv-x="548" unicode="Ŵ" d="M424 0h-80l-70 514l-70 -514h-79l-107 667h78l71 -531l75 531h64l76 -531l70 531h78zM374 723h-41l-60 105l-57 -105h-42l66 144h66z"/>
<glyph glyph-name="wcircumflex" horiz-adv-x="541" unicode="ŵ" d="M423 0h-71l-81 389l-82 -389h-71l-105 483h72l72 -387l77 387h70l79 -387l73 387h72zM371 556h-41l-60 105l-57 -105h-42l66 144h66z"/>
<glyph glyph-name="Ycircumflex" horiz-adv-x="372" unicode="Ŷ" d="M224 0h-75v283l-150 384h82l105 -307l107 307h80l-149 -384v-283zM286 723h-41l-60 105l-57 -105h-42l66 144h66z"/>
<glyph glyph-name="ycircumflex" horiz-adv-x="326" unicode="ŷ" d="M266 556h-41l-60 105l-57 -105h-42l66 144h66zM33 -189l11 60q11 -6 24 -6q17 0 26 10t16 35l19 75l-120 498h74l79 -396l82 396h72l-143 -589q-14 -51 -36.5 -70.5t-61.5 -19.5q-26 0 -42 7z"/>
<glyph glyph-name="Ydieresis" horiz-adv-x="372" unicode="Ÿ" d="M224 0h-75v283l-150 384h82l105 -307l107 307h80l-149 -384v-283zM162 770q0 -18 -13 -30.5t-31 -12.5q-17 0 -30 12.5t-13 30.5t13 30.5t30 12.5q18 0 31 -12.5t13 -30.5zM303 770q0 -18 -13 -30.5t-31 -12.5q-17 0 -30 12.5t-13 30.5t13 30.5t30 12.5q18 0 31 -12.5 t13 -30.5z"/>
<glyph glyph-name="Zacute" horiz-adv-x="340" unicode="Ź" d="M307 0h-274v66l184 534h-184v67h267v-63l-186 -537h193v-67zM279 867l-100 -144h-46l79 144h67z"/>
<glyph glyph-name="zacute" horiz-adv-x="303" unicode="ź" d="M268 0h-234v54l151 369h-151v60h230v-52l-150 -371h154v-60zM260 700l-100 -144h-46l79 144h67z"/>
<glyph glyph-name="Zdotaccent" horiz-adv-x="340" unicode="Ż" d="M169 724q-18 0 -31 13t-13 31t13 31t31 13t31 -13t13 -31t-13 -31t-31 -13zM307 0h-274v66l184 534h-184v67h267v-63l-186 -537h193v-67z"/>
<glyph glyph-name="zdotaccent" horiz-adv-x="303" unicode="ż" d="M150 557q-18 0 -31 13t-13 31t13 31t31 13t31 -13t13 -31t-13 -31t-31 -13zM268 0h-234v54l151 369h-151v60h230v-52l-150 -371h154v-60z"/>
<glyph glyph-name="Zcaron" horiz-adv-x="340" unicode="Ž" d="M307 0h-274v66l184 534h-184v67h267v-63l-186 -537h193v-67zM205 723h-66l-69 144h42l60 -105l57 105h41z"/>
<glyph glyph-name="zcaron" horiz-adv-x="303" unicode="ž" d="M268 0h-234v54l151 369h-151v60h230v-52l-150 -371h154v-60zM184 556h-66l-69 144h42l60 -105l57 105h41z"/>
<glyph glyph-name="longs" horiz-adv-x="224" unicode="ſ" d="M139 0h-69v423h-47v60h47v81q0 53 27 83t76 30q44 0 69 -27l-24 -54q-16 20 -35 20q-44 0 -44 -52v-564z"/>
<glyph glyph-name="florin" horiz-adv-x="364" unicode="ƒ" d="M99 -161h-77l92 417h-47v62h61l56 252q10 48 45 77.5t80 29.5q43 0 65 -25l-30 -56q-10 14 -30 14q-44 0 -57 -56l-52 -236h90v-62h-104z"/>
<glyph glyph-name="Ohorn" horiz-adv-x="434" unicode="Ơ" d="M217 56q50 0 73 77t23 200q0 124 -23 200.5t-73 76.5q-96 0 -96 -277t96 -277zM217 -12q-61 0 -101 48t-56.5 122.5t-16.5 174.5t16.5 174.5t56.5 122.5t101 48q90 0 134 -102q32 32 37 69l-4 -1h-6q-16 0 -27 11.5t-11 28.5t11.5 29.5t29.5 12.5q20 0 34 -17t14 -45 q0 -74 -64 -125q26 -82 26 -206q0 -154 -42.5 -249.5t-131.5 -95.5z"/>
<glyph glyph-name="ohorn" horiz-adv-x="382" unicode="ơ" d="M191 49q82 0 82 193q0 192 -82 192t-82 -192q0 -193 82 -193zM368 530q0 -67 -56 -118q32 -67 32 -170q0 -110 -37.5 -182t-115.5 -72t-116 72t-38 182q0 109 38 181t116 72q62 0 101 -51q30 32 35 67l-4 -1h-6q-16 0 -27 11.5t-11 28.5t11.5 29.5t29.5 12.5q20 0 34 -17 t14 -45z"/>
<glyph glyph-name="Uhorn" horiz-adv-x="437" unicode="Ư" d="M467 729q0 -41 -24 -80.5t-69 -65.5v-411q0 -92 -43 -138t-113 -46t-112.5 46t-42.5 138v495h75v-498q0 -114 80 -114q81 0 81 114v498h75v-41q21 15 35.5 39.5t16.5 44.5q-2 -2 -10 -2q-16 0 -27 12t-11 29t11.5 29t29.5 12q20 0 34 -16.5t14 -44.5z"/>
<glyph glyph-name="uhorn" d="M322 0h-68v66q-17 -34 -45.5 -56t-62.5 -22q-48 0 -69 25t-21 80v390h68v-372q0 -62 46 -62q26 0 49 22.5t35 54.5v357h68v-33q31 34 34 66h-4q-4 -1 -6 -1q-16 0 -27 11.5t-11 28.5t11.5 29t29.5 12q20 0 34 -16t14 -44q0 -80 -75 -134v-402z" unicode="ư"/>
<glyph glyph-name="AEacute" horiz-adv-x="554" unicode="Ǽ" d="M263 220v357l-107 -357h107zM511 0h-248v153h-125l-47 -153h-77l217 667h280v-67h-172v-225h165v-67h-165v-241h172v-67zM411 867l-100 -144h-46l79 144h67z"/>
<glyph glyph-name="aeacute" horiz-adv-x="584" unicode="ǽ" d="M257 168v25q-26 65 -79 65q-34 0 -54.5 -29t-20.5 -79q0 -51 20 -79t55 -28t57 34.5t22 90.5zM323 270h160q0 69 -18 118.5t-61 49.5q-30 0 -49.5 -29t-25.5 -64t-6 -75zM551 219h-228q1 -80 26.5 -127t74.5 -47q46 0 77 58l40 -36q-49 -79 -125 -79q-48 0 -75.5 23 t-48.5 67q-39 -90 -125 -90q-64 0 -99 43t-35 116t34.5 117t92.5 44q64 0 97 -57v80q0 105 -78 105q-53 0 -98 -51l-29 49q55 61 131 61q46 0 74.5 -23.5t36.5 -62.5q34 86 110 86q75 0 111 -70.5t36 -182.5v-23zM394 700l-100 -144h-46l79 144h67z"/>
<glyph glyph-name="Oslashacute" horiz-adv-x="434" unicode="Ǿ" d="M217 56q50 0 73 77t23 200q0 85 -10 145l-152 -366q24 -56 66 -56zM121 333q0 -85 10 -145l151 365q-24 57 -65 57q-96 0 -96 -277zM217 -12q-58 0 -99 44l-13 -32h-52l33 80q-43 90 -43 253q0 100 16.5 174.5t56.5 122.5t101 48q57 0 99 -45l14 34h51l-34 -82 q44 -89 44 -252q0 -154 -42.5 -249.5t-131.5 -95.5zM326 867l-100 -144h-46l79 144h67z"/>
<glyph glyph-name="oslashacute" horiz-adv-x="382" unicode="ǿ" d="M191 49q82 0 82 193q0 55 -9 100l-129 -255q19 -38 56 -38zM109 242q0 -61 8 -102l130 256q-21 38 -56 38q-82 0 -82 -192zM91 0h-45l29 58q-38 68 -38 184q0 109 38 181t116 72q51 0 88 -35l12 23h45l-30 -59q38 -69 38 -182q0 -110 -37.5 -182t-115.5 -72q-53 0 -88 35 zM300 700l-100 -144h-46l79 144h67z"/>
<glyph glyph-name="Scommaaccent" horiz-adv-x="354" unicode="Ș" d="M163 -12q-87 0 -143 61l38 60q18 -24 45.5 -38.5t55.5 -14.5q37 0 62 28.5t25 74.5q0 42 -21.5 76t-52 60t-61 53.5t-52 69.5t-21.5 95q0 72 43.5 118.5t110.5 46.5q72 0 119 -47l-33 -58q-34 37 -85 37q-33 0 -55.5 -26t-22.5 -68q0 -35 21.5 -66.5t52 -58t60.5 -56 t51.5 -73.5t21.5 -99q0 -77 -44 -126t-115 -49zM225 -138q0 -39 -20 -74.5t-50 -57.5l-31 25q23 16 39.5 40.5t17.5 46.5h-4q-4 -1 -6 -1q-17 0 -28.5 12t-11.5 30t12.5 31t30.5 13q21 0 36 -17.5t15 -47.5z"/>
<glyph glyph-name="scommaaccent" horiz-adv-x="310" unicode="ș" d="M152 -12q-86 0 -131 61l33 47q40 -52 93 -52q30 0 50.5 19.5t20.5 52.5q0 25 -13.5 46t-33.5 34.5t-44 31t-44 35t-33.5 46.5t-13.5 66q0 52 35.5 86t92.5 34q70 0 115 -54l-32 -46q-31 44 -82 44q-29 0 -46.5 -18t-17.5 -44q0 -28 18.5 -50.5t45.5 -40t54 -37.5 t45.5 -53.5t18.5 -77.5q0 -58 -37.5 -94t-93.5 -36zM209 -138q0 -39 -20 -74.5t-50 -57.5l-31 25q23 16 39.5 40.5t17.5 46.5h-4q-4 -1 -6 -1q-17 0 -28.5 12t-11.5 30t12.5 31t30.5 13q21 0 36 -17.5t15 -47.5z"/>
<glyph glyph-name="uni021A" horiz-adv-x="322" unicode="Ț" d="M199 0h-76v600h-105v67h286v-67h-105v-600zM216 -138q0 -39 -20 -74.5t-50 -57.5l-31 25q23 16 39.5 40.5t17.5 46.5h-4q-4 -1 -6 -1q-17 0 -28.5 12t-11.5 30t12.5 31t30.5 13q21 0 36 -17.5t15 -47.5z"/>
<glyph glyph-name="uni021B" horiz-adv-x="233" unicode="ț" d="M156 -12q-45 0 -65.5 25t-20.5 79v331h-49v60h49v132h69v-132h65v-60h-65v-321q0 -28 6.5 -40.5t23.5 -12.5q21 0 32 17l22 -50q-26 -28 -67 -28zM171 -138q0 -39 -20 -74.5t-50 -57.5l-31 25q23 16 39.5 40.5t17.5 46.5h-4q-4 -1 -6 -1q-17 0 -28.5 12t-11.5 30t12.5 31 t30.5 13q21 0 36 -17.5t15 -47.5z"/>
<glyph glyph-name="uni0237" horiz-adv-x="180" unicode="ȷ" d="M27 -196q-40 0 -58 31l26 49q8 -19 28 -19q33 0 33 64v554h68v-554q0 -67 -24 -96t-73 -29z"/>
<glyph glyph-name="hsuperior" horiz-adv-x="287" unicode="ʰ" d="M242 326h-53v233q0 44 -34 44q-35 0 -57 -50v-227h-53v434h53v-163q11 21 33 36t44 15q67 0 67 -74v-248z"/>
<glyph glyph-name="uni02BC" horiz-adv-x="228" unicode="ʼ" d="M170 604q0 -43 -22 -82.5t-56 -62.5l-35 28q24 16 42 42.5t21 50.5q-4 -2 -12 -2q-20 0 -33.5 14t-13.5 34q0 21 14.5 36t36.5 15q24 0 41 -19.5t17 -53.5z"/>
<glyph glyph-name="circumflex" horiz-adv-x="200" unicode="ˆ" d="M200 556h-41l-60 105l-57 -105h-42l66 144h66z"/>
<glyph glyph-name="caron" horiz-adv-x="200" unicode="ˇ" d="M135 556h-66l-69 144h42l60 -105l57 105h41z"/>
<glyph glyph-name="uni02C9" horiz-adv-x="248" unicode="ˉ" d="M248 591h-248v45h248v-45z"/>
<glyph glyph-name="uni02CB" horiz-adv-x="146" unicode="ˋ" d="M146 556h-46l-100 144h67z"/>
<glyph glyph-name="breve" horiz-adv-x="238" unicode="˘" d="M238 613q-45 -61 -119 -61t-119 61l36 28q13 -20 36 -32t47 -12q55 0 83 44z"/>
<glyph glyph-name="dotaccent" horiz-adv-x="104" unicode="˙" d="M52 557q-18 0 -31 13t-13 31t13 31t31 13t31 -13t13 -31t-13 -31t-31 -13z"/>
<glyph glyph-name="ring" horiz-adv-x="165" unicode="˚" d="M83 581q20 0 33.5 14t13.5 34q0 19 -14 32.5t-33 13.5t-33 -13.5t-14 -32.5q0 -20 13.5 -34t33.5 -14zM83 545q-34 0 -58.5 24.5t-24.5 59.5q0 34 24.5 58t58.5 24t58 -24t24 -58q0 -35 -24 -59.5t-58 -24.5z"/>
<glyph glyph-name="ogonek" horiz-adv-x="138" unicode="˛" d="M103 -115l35 -18q-16 -53 -68 -53q-32 0 -51 19.5t-19 56.5q0 75 76 132l32 -22q-66 -44 -66 -108q0 -41 29 -41q26 0 32 34z"/>
<glyph glyph-name="tilde" horiz-adv-x="226" unicode="˜" d="M153 554q-24 0 -38 24t-23.5 47.5t-21.5 23.5q-31 0 -31 -89h-39q0 59 18.5 96.5t54.5 37.5q19 0 32 -15t19 -32.5t14.5 -32.5t18.5 -15q30 0 30 89h39q0 -59 -18.5 -96.5t-54.5 -37.5z"/>
<glyph glyph-name="hungarumlaut" horiz-adv-x="232" unicode="˝" d="M232 700l-78 -144h-38l56 144h60zM115 700l-77 -144h-38l56 144h59z"/>
<glyph glyph-name="hookabovecomb" horiz-adv-x="138" unicode="̉" d="M44 736l-31 7q11 47 57 47q25 0 40 -15.5t15 -45.5q0 -32 -20 -62h-34q22 29 22 61t-23 32q-20 0 -26 -24z"/>
<glyph glyph-name="afii10023" horiz-adv-x="352" unicode="Ё" d="M311 0h-248v667h248v-67h-173v-225h166v-67h-166v-241h173v-67zM160 770q0 -18 -13 -30.5t-31 -12.5q-17 0 -30 12.5t-13 30.5t13 30.5t30 12.5q18 0 31 -12.5t13 -30.5zM301 770q0 -18 -13 -30.5t-31 -12.5q-17 0 -30 12.5t-13 30.5t13 30.5t30 12.5q18 0 31 -12.5 t13 -30.5z"/>
<glyph glyph-name="afii10051" horiz-adv-x="476" unicode="Ђ" d="M274 -12v68q85 0 85 117v53q0 59 -27.5 95.5t-75.5 36.5q-35 0 -57 -7v-351h-76v600h-105v67h286v-67h-105v-182q35 7 67 7q81 0 125 -57t44 -142v-53q0 -97 -44.5 -141t-116.5 -44z"/>
<glyph glyph-name="afii10052" horiz-adv-x="351" unicode="Ѓ" d="M138 0h-75v667h248v-67h-173v-600zM297 867l-100 -144h-46l79 144h67z"/>
<glyph glyph-name="afii10053" horiz-adv-x="390" unicode="Є" d="M217 -12q-89 0 -131.5 94.5t-42.5 250.5t42.5 250.5t131.5 94.5q99 0 138 -128l-62 -24q-13 43 -29.5 63.5t-46.5 20.5q-88 0 -95 -235h182v-67h-183q3 -252 96 -252q33 0 50.5 26.5t27.5 74.5l63 -23q-34 -146 -141 -146z"/>
<glyph glyph-name="afii10054" horiz-adv-x="354" unicode="Ѕ" d="M163 -12q-87 0 -143 61l38 60q18 -24 45.5 -38.5t55.5 -14.5q37 0 62 28.5t25 74.5q0 42 -21.5 76t-52 60t-61 53.5t-52 69.5t-21.5 95q0 72 43.5 118.5t110.5 46.5q72 0 119 -47l-33 -58q-34 37 -85 37q-33 0 -55.5 -26t-22.5 -68q0 -35 21.5 -66.5t52 -58t60.5 -56 t51.5 -73.5t21.5 -99q0 -77 -44 -126t-115 -49z"/>
<glyph glyph-name="afii10055" horiz-adv-x="201" unicode="І" d="M138 0h-75v667h75v-667z"/>
<glyph glyph-name="afii10056" horiz-adv-x="201" unicode="Ї" d="M74 770q0 -18 -13 -30.5t-31 -12.5q-17 0 -30 12.5t-13 30.5t13 30.5t30 12.5q18 0 31 -12.5t13 -30.5zM215 770q0 -18 -13 -30.5t-31 -12.5q-17 0 -30 12.5t-13 30.5t13 30.5t30 12.5q18 0 31 -12.5t13 -30.5zM138 0h-75v667h75v-667z"/>
<glyph glyph-name="afii10057" horiz-adv-x="321" unicode="Ј" d="M113 -12q-63 0 -106 46l28 60q29 -38 71 -38q78 0 78 89v522h75v-525q0 -78 -39 -116t-107 -38z"/>
<glyph glyph-name="afii10058" horiz-adv-x="622" unicode="Љ" d="M428 331h-55v-264h55q43 0 65.5 36t22.5 96t-22.5 96t-65.5 36zM19 -12v68q27 0 43 15.5t28.5 70.5t19.5 161l23 364h240v-269h62q79 0 119 -56.5t40 -142.5t-40 -142.5t-119 -56.5h-137v600h-94l-20 -302q-6 -99 -20 -163t-36.5 -95t-47 -41.5t-61.5 -10.5z"/>
<glyph glyph-name="afii10059" horiz-adv-x="622" unicode="Њ" d="M373 67h55q44 0 66 33t22 89q0 55 -22.5 87.5t-65.5 32.5h-55v-242zM63 0v667h75v-290h160v290h75v-290h62q79 0 119 -53.5t40 -135.5t-40 -135t-119 -53h-137v309h-160v-309h-75z"/>
<glyph glyph-name="afii10060" horiz-adv-x="476" unicode="Ћ" d="M352 0v226q0 60 -24 96t-72 36q-35 0 -57 -7v-351h-76v600h-105v67h286v-67h-105v-182q35 7 67 7q80 0 120.5 -56t40.5 -143v-226h-75z"/>
<glyph glyph-name="afii10061" horiz-adv-x="418" unicode="Ќ" d="M407 0h-87l-137 289l-45 -86v-203h-75v667h75v-347l171 347h85l-169 -317zM318 867l-100 -144h-46l79 144h67z"/>
<glyph glyph-name="afii10062" horiz-adv-x="372" unicode="Ў" d="M304 780q-45 -61 -119 -61t-119 61l36 28q13 -20 36 -32t47 -12q55 0 83 44zM79 -12q-44 0 -82 23l21 64q21 -18 53 -18q38 0 52 46l23 78l-147 486h80l107 -367l108 367h79l-179 -587q-29 -92 -115 -92z"/>
<glyph glyph-name="afii10145" horiz-adv-x="436" unicode="Џ" d="M63 0v667h75v-600h160v600h75v-667h-117v-129h-76v129h-117z"/>
<glyph glyph-name="afii10017" horiz-adv-x="364" unicode="А" d="M244 220l-62 357l-62 -357h124zM357 0h-77l-27 153h-142l-27 -153h-77l131 667h87z"/>
<glyph glyph-name="afii10018" horiz-adv-x="387" unicode="Б" d="M193 331h-55v-264h55q43 0 65.5 36t22.5 96t-22.5 96t-65.5 36zM63 667h262v-67h-187v-202h62q78 0 118.5 -56.5t40.5 -142.5t-40.5 -142.5t-118.5 -56.5h-137v667z"/>
<glyph glyph-name="afii10019" horiz-adv-x="403" unicode="В" d="M196 67q86 0 86 120q0 52 -21.5 86.5t-64.5 34.5h-58v-241h58zM192 375q81 0 81 112q0 113 -81 113h-54v-225h54zM213 0h-150v667h144q69 0 106.5 -46t37.5 -124q0 -122 -87 -153q42 -7 69 -55t27 -109q0 -85 -36.5 -132.5t-110.5 -47.5z"/>
<glyph glyph-name="afii10020" horiz-adv-x="351" unicode="Г" d="M138 0h-75v667h248v-67h-173v-600z"/>
<glyph glyph-name="afii10021" horiz-adv-x="455" unicode="Д" d="M185 309q-12 -181 -64 -242h177v533h-94zM17 -123v183q29 5 44 18.5t29 70t21 167.5l22 351h240v-600h60v-190h-76v123h-265v-123h-75z"/>
<glyph glyph-name="afii10022" horiz-adv-x="352" unicode="Е" d="M311 0h-248v667h248v-67h-173v-225h166v-67h-166v-241h173v-67z"/>
<glyph glyph-name="afii10024" horiz-adv-x="574" unicode="Ж" d="M94 0h-87l181 350l-168 317h84l145 -294v294h76v-294l145 294h84l-168 -317l181 -350h-87l-137 289l-18 -35v-254h-76v254l-18 35z"/>
<glyph glyph-name="afii10025" horiz-adv-x="390" unicode="З" d="M187 -12q-54 0 -95 31.5t-63 80.5l56 41q37 -85 99 -85q85 0 85 129q0 63 -26.5 93t-64.5 30h-74v68h69q40 0 64 29t24 84q0 120 -80 120q-57 0 -90 -78l-55 38q23 52 63.5 80t88.5 28q70 0 111 -44t41 -133q0 -55 -27 -98.5t-77 -57.5q51 -9 81 -54.5t30 -109.5 q0 -87 -41 -139.5t-119 -52.5z"/>
<glyph glyph-name="afii10026" horiz-adv-x="436" unicode="И" d="M135 0h-72v667h76v-471l159 471h75v-667h-75v480z"/>
<glyph glyph-name="afii10027" horiz-adv-x="436" unicode="Й" d="M336 780q-45 -61 -119 -61t-119 61l36 28q13 -20 36 -32t47 -12q55 0 83 44zM135 0h-72v667h76v-471l159 471h75v-667h-75v480z"/>
<glyph glyph-name="afii10028" horiz-adv-x="418" unicode="К" d="M407 0h-87l-137 289l-45 -86v-203h-75v667h75v-347l171 347h85l-169 -317z"/>
<glyph glyph-name="afii10029" horiz-adv-x="436" unicode="Л" d="M19 -12v68q27 0 43 15.5t28.5 70.5t19.5 162l23 363h240v-667h-75v600h-94l-20 -302q-6 -99 -20 -163t-36.5 -95t-47 -41.5t-61.5 -10.5z"/>
<glyph glyph-name="afii10030" horiz-adv-x="558" unicode="М" d="M495 0h-74v499l-127 -499h-30l-126 499v-499h-75v667h102l114 -447l116 447h100v-667z"/>
<glyph glyph-name="afii10031" horiz-adv-x="436" unicode="Н" d="M373 0h-75v309h-160v-309h-75v667h75v-290h160v290h75v-667z"/>
<glyph glyph-name="afii10032" horiz-adv-x="434" unicode="О" d="M217 56q50 0 73 77t23 200q0 124 -23 200.5t-73 76.5q-96 0 -96 -277t96 -277zM217 -12q-61 0 -101 48t-56.5 122.5t-16.5 174.5t16.5 174.5t56.5 122.5t101 48q89 0 131.5 -95.5t42.5 -249.5t-42.5 -249.5t-131.5 -95.5z"/>
<glyph glyph-name="afii10033" horiz-adv-x="436" unicode="П" d="M373 0h-75v600h-160v-600h-75v667h310v-667z"/>
<glyph glyph-name="afii10034" horiz-adv-x="387" unicode="Р" d="M193 336q43 0 65.5 36t22.5 96t-22.5 96t-65.5 36h-55v-264h55zM138 0h-75v667h137q78 0 118.5 -56.5t40.5 -142.5t-40.5 -142.5t-118.5 -56.5h-62v-269z"/>
<glyph glyph-name="afii10035" horiz-adv-x="390" unicode="С" d="M217 -12q-89 0 -131.5 94.5t-42.5 250.5t42.5 250.5t131.5 94.5q99 0 138 -128l-62 -24q-13 43 -29.5 63.5t-46.5 20.5q-96 0 -96 -277t96 -277q33 0 50.5 26.5t27.5 74.5l63 -23q-34 -146 -141 -146z"/>
<glyph glyph-name="afii10036" horiz-adv-x="322" unicode="Т" d="M199 0h-76v600h-105v67h286v-67h-105v-600z"/>
<glyph glyph-name="afii10037" horiz-adv-x="372" unicode="У" d="M79 -12q-44 0 -82 23l21 64q21 -18 53 -18q38 0 52 46l23 78l-147 486h80l107 -367l108 367h79l-179 -587q-29 -92 -115 -92z"/>
<glyph glyph-name="afii10038" horiz-adv-x="585" unicode="Ф" d="M121 333q0 -175 133 -198v396q-133 -23 -133 -198zM464 333q0 79 -32.5 132.5t-101.5 65.5v-396q69 11 101.5 65t32.5 133zM330 0h-76v66q-108 12 -159.5 85.5t-51.5 181.5t51.5 181.5t159.5 85.5v67h76v-67q108 -11 160 -85t52 -182t-52 -182t-160 -85v-66z"/>
<glyph glyph-name="afii10039" horiz-adv-x="368" unicode="Х" d="M365 0h-84l-97 268l-97 -268h-83l137 339l-130 328h84l89 -257l89 257h84l-130 -327z"/>
<glyph glyph-name="afii10040" horiz-adv-x="455" unicode="Ц" d="M357 -123v123h-294v667h75v-600h160v600h75v-600h60v-190h-76z"/>
<glyph glyph-name="afii10041" horiz-adv-x="415" unicode="Ч" d="M124 667v-199q0 -61 24 -96.5t72 -35.5q33 0 57 7v324h75v-667h-75v276q-29 -7 -67 -7q-80 0 -121 56.5t-41 142.5v199h76z"/>
<glyph glyph-name="afii10042" horiz-adv-x="629" unicode="Ш" d="M491 667h75v-667h-502v667h75v-600h138v600h76v-600h138v600z"/>
<glyph glyph-name="afii10043" horiz-adv-x="648" unicode="Щ" d="M491 667h75v-600h60v-190h-76v123h-486v667h75v-600h138v600h76v-600h138v600z"/>
<glyph glyph-name="afii10044" horiz-adv-x="448" unicode="Ъ" d="M254 331h-55v-264h55q43 0 65 36t22 96t-22 96t-65 36zM260 0h-137v600h-105v67h181v-269h61q79 0 119.5 -56.5t40.5 -142.5t-40.5 -142.5t-119.5 -56.5z"/>
<glyph glyph-name="afii10045" horiz-adv-x="563" unicode="Ы" d="M500 0h-75v667h75v-667zM193 331h-55v-264h55q43 0 65.5 36t22.5 96t-22.5 96t-65.5 36zM63 667h75v-269h62q78 0 118.5 -56.5t40.5 -142.5t-40.5 -142.5t-118.5 -56.5h-137v667z"/>
<glyph glyph-name="afii10046" horiz-adv-x="387" unicode="Ь" d="M193 331h-55v-264h55q43 0 65.5 36t22.5 96t-22.5 96t-65.5 36zM63 667h75v-269h62q78 0 118.5 -56.5t40.5 -142.5t-40.5 -142.5t-118.5 -56.5h-137v667z"/>
<glyph glyph-name="afii10047" horiz-adv-x="390" unicode="Э" d="M173 -12q-107 0 -141 146l63 23q10 -48 27.5 -74.5t50.5 -26.5q91 0 96 252h-183v67h182q-9 235 -95 235q-30 0 -46.5 -20.5t-29.5 -63.5l-62 24q39 128 138 128q89 0 131.5 -94.5t42.5 -250.5t-42.5 -250.5t-131.5 -94.5z"/>
<glyph glyph-name="afii10048" horiz-adv-x="613" unicode="Ю" d="M396 56q96 0 96 277t-96 277q-50 0 -73 -76.5t-23 -200.5q0 -123 23 -200t73 -77zM396 -12q-86 0 -128.5 88t-45.5 233h-84v-309h-75v667h75v-290h85q6 137 48 219t125 82q61 0 101 -48t56.5 -122.5t16.5 -174.5t-16.5 -174.5t-56.5 -122.5t-101 -48z"/>
<glyph glyph-name="afii10049" horiz-adv-x="409" unicode="Я" d="M216 336h55v264h-55q-43 0 -65.5 -36t-22.5 -96t22.5 -96t65.5 -36zM126 0h-82l99 286q-37 14 -65 59t-28 125q0 90 44 143.5t113 53.5h139v-667h-75v269h-58z"/>
<glyph glyph-name="afii10065" horiz-adv-x="376" unicode="а" d="M176 38q51 0 75 63v92q-24 65 -75 65q-36 0 -54.5 -31.5t-18.5 -78.5t18.5 -78.5t54.5 -31.5zM320 0h-69v48q-16 -30 -41.5 -45t-52.5 -15q-56 0 -90 44.5t-34 116.5q0 71 34 115t90 44q27 0 52.5 -14.5t41.5 -42.5v80q0 53 -17 79t-58 26q-51 0 -95 -51l-29 49 q55 61 135 61q133 0 133 -151v-344z"/>
<glyph glyph-name="afii10066" horiz-adv-x="382" unicode="б" d="M190 -12q-78 0 -115.5 74.5t-37.5 201.5q0 193 29 261t132 93q36 9 50.5 20.5t14.5 28.5h68q0 -48 -31 -72t-86 -38q-62 -15 -89 -47t-31 -96q12 33 39 57t67 24q72 0 108 -71.5t36 -180.5t-38.5 -182t-115.5 -73zM190 49q82 0 82 194q0 191 -82 191q-81 0 -81 -191 q0 -194 81 -194z"/>
<glyph glyph-name="afii10067" horiz-adv-x="373" unicode="в" d="M179 276q72 0 72 76t-72 76h-55v-152h55zM183 55q78 0 78 82q0 35 -19.5 59t-58.5 24h-59v-165h59zM195 0h-139v483h134q65 0 99 -33t34 -90q0 -86 -74 -109q37 -10 60 -44t23 -76q0 -61 -34 -96t-103 -35z"/>
<glyph glyph-name="afii10068" horiz-adv-x="291" unicode="г" d="M269 483v-60h-145v-423h-68v483h213z"/>
<glyph glyph-name="afii10069" horiz-adv-x="397" unicode="д" d="M174 423l-14 -208q-7 -115 -47 -155h141v363h-80zM19 -123v176q22 3 34 12.5t23 46.5t16 108l17 263h213v-423h54v-183h-68v123h-221v-123h-68z"/>
<glyph glyph-name="afii10070" horiz-adv-x="373" unicode="е" d="M272 270q0 69 -19 118.5t-64 49.5q-31 0 -51 -29.5t-26 -64t-6 -74.5h166zM205 -12q-83 0 -125.5 70t-42.5 184q0 112 39 182.5t115 70.5q77 0 113 -69.5t36 -182.5v-24h-234q0 -80 27 -127t77 -47q47 0 80 58l41 -36q-51 -79 -126 -79z"/>
<glyph glyph-name="afii10072" horiz-adv-x="473" unicode="ж" d="M90 0h-74l121 267l-122 216h74l113 -206v206h69v-206l113 206h74l-122 -216l121 -267h-74l-91 219l-21 -37v-182h-69v182l-21 37z"/>
<glyph glyph-name="afii10073" horiz-adv-x="350" unicode="з" d="M165 -12q-98 0 -145 79l40 38q36 -61 102 -61q39 0 61 25t22 66q0 81 -84 81h-72v57h70q37 0 59 22.5t22 62.5q0 38 -23 59.5t-61 21.5q-60 0 -91 -60l-41 39q46 77 132 77q67 0 109 -35.5t42 -94.5q0 -40 -24 -75t-64 -44q40 -7 67 -39t27 -78q0 -61 -39 -101t-109 -40z "/>
<glyph glyph-name="afii10074" d="M127 0h-71v483h68v-334l124 334h74v-483h-68v342z" unicode="и"/>
<glyph glyph-name="afii10075" d="M308 613q-45 -61 -119 -61t-119 61l36 28q13 -20 36 -32t47 -12q55 0 83 44zM127 0h-71v483h68v-334l124 334h74v-483h-68v342z" unicode="й"/>
<glyph glyph-name="afii10076" horiz-adv-x="361" unicode="к" d="M345 0h-74l-91 219l-56 -96v-123h-68v483h68v-267l148 267h74l-122 -216z"/>
<glyph glyph-name="afii10077" d="M19 -12v61q32 0 49 34t24 137l17 263h213v-483h-68v423h-80l-14 -208q-8 -131 -42.5 -179t-98.5 -48z" unicode="л"/>
<glyph glyph-name="afii10078" horiz-adv-x="479" unicode="м" d="M423 0h-67v349l-101 -349h-31l-100 349v-349h-68v483h90l94 -323l95 323h88v-483z"/>
<glyph glyph-name="afii10079" d="M124 0h-68v483h68v-201h130v201h68v-483h-68v222h-130v-222z" unicode="н"/>
<glyph glyph-name="afii10080" horiz-adv-x="382" unicode="о" d="M191 49q82 0 82 193q0 192 -82 192t-82 -192q0 -193 82 -193zM191 -12q-78 0 -116 72t-38 182q0 109 38 181t116 72t115.5 -71.5t37.5 -181.5t-37.5 -182t-115.5 -72z"/>
<glyph glyph-name="afii10081" d="M322 0h-68v423h-130v-423h-68v483h266v-483z" unicode="п"/>
<glyph glyph-name="afii10082" horiz-adv-x="384" unicode="р" d="M198 49q77 0 77 193q0 192 -77 192q-23 0 -44 -23.5t-30 -56.5v-224q9 -33 30.5 -57t43.5 -24zM215 -12q-26 0 -51.5 20.5t-39.5 58.5v-251h-68v667h68v-65q15 36 40.5 56.5t50.5 20.5q66 0 99 -68.5t33 -184.5q0 -115 -33 -184.5t-99 -69.5z"/>
<glyph glyph-name="afii10083" horiz-adv-x="317" unicode="с" d="M196 -12q-75 0 -117 71t-42 183q0 111 41.5 182t117.5 71q59 0 99 -44l-28 -52q-28 35 -62 35q-49 0 -72.5 -55t-23.5 -137t23.5 -137.5t72.5 -55.5q34 0 62 35l28 -52q-36 -44 -99 -44z"/>
<glyph glyph-name="afii10084" horiz-adv-x="277" unicode="т" d="M173 0h-69v423h-82v60h233v-60h-82v-423z"/>
<glyph glyph-name="afii10085" horiz-adv-x="326" unicode="у" d="M33 -189l11 60q11 -6 24 -6q17 0 26 10t16 35l19 75l-120 498h74l79 -396l82 396h72l-143 -589q-14 -51 -36.5 -70.5t-61.5 -19.5q-26 0 -42 7z"/>
<glyph glyph-name="afii10086" horiz-adv-x="560" unicode="ф" d="M376 49q36 0 53 54t17 139q0 192 -68 192q-20 0 -38 -23.5t-26 -56.5v-224q8 -33 25.5 -57t36.5 -24zM181 434q-67 0 -67 -192q0 -193 69 -193q20 0 37.5 23.5t25.5 56.5v224q-8 33 -26.5 57t-38.5 24zM162 495q25 0 47.5 -19.5t36.5 -56.5v248h68v-247q14 35 37 55 t46 20q60 0 90 -68.5t30 -184.5q0 -115 -30 -184.5t-90 -69.5q-24 0 -47 19.5t-36 57.5v-249h-68v248q-14 -37 -37 -56.5t-47 -19.5q-59 0 -89 69t-30 185q0 115 30 184t89 69z"/>
<glyph glyph-name="afii10087" horiz-adv-x="326" unicode="х" d="M313 0h-73l-77 191l-78 -191h-73l109 244l-103 239h73l72 -184l72 184h72l-103 -239z"/>
<glyph glyph-name="afii10088" horiz-adv-x="397" unicode="ц" d="M308 -123v123h-252v483h68v-423h130v423h68v-423h54v-183h-68z"/>
<glyph glyph-name="afii10089" horiz-adv-x="367" unicode="ч" d="M45 483h69v-170q0 -33 13.5 -48t44.5 -15q42 0 71 23v210h68v-483h-68v220q-38 -31 -90 -31q-59 0 -83.5 25.5t-24.5 79.5v189z"/>
<glyph glyph-name="afii10090" horiz-adv-x="548" unicode="ш" d="M424 483h68v-483h-436v483h68v-423h116v423h68v-423h116v423z"/>
<glyph glyph-name="afii10091" horiz-adv-x="567" unicode="щ" d="M424 483h68v-423h54v-183h-68v123h-422v483h68v-423h116v423h68v-423h116v423z"/>
<glyph glyph-name="afii10092" horiz-adv-x="407" unicode="ъ" d="M221 237h-48v-181h48q39 0 59.5 24.5t20.5 65.5t-20 66t-60 25zM228 0h-124v423h-82v60h151v-190h55q71 0 108 -41.5t37 -105.5q0 -63 -37 -104.5t-108 -41.5z"/>
<glyph glyph-name="afii10093" horiz-adv-x="512" unicode="ы" d="M456 0h-69v483h69v-483zM173 237h-49v-181h49q39 0 59.5 24.5t20.5 65.5t-20.5 66t-59.5 25zM56 483h68v-190h56q71 0 107.5 -42t36.5 -105t-37 -104.5t-107 -41.5h-124v483z"/>
<glyph glyph-name="afii10094" horiz-adv-x="358" unicode="ь" d="M173 237h-49v-181h49q39 0 59.5 24.5t20.5 65.5t-20.5 66t-59.5 25zM56 483h68v-190h56q71 0 107.5 -42t36.5 -105t-37 -104.5t-107 -41.5h-124v483z"/>
<glyph glyph-name="afii10095" horiz-adv-x="317" unicode="э" d="M121 -12q-63 0 -99 44l28 48q29 -35 63 -35q44 0 67.5 48t27.5 122h-147v60h147q-5 72 -28 117.5t-67 45.5q-34 0 -63 -35l-28 48q40 44 99 44q76 0 117.5 -71t41.5 -182q0 -112 -42 -183t-117 -71z"/>
<glyph glyph-name="afii10096" horiz-adv-x="543" unicode="ю" d="M352 49q81 0 81 193q0 192 -81 192q-82 0 -82 -192q0 -193 82 -193zM352 -12q-75 0 -113 66t-41 168h-74v-222h-68v483h68v-201h75q7 94 44.5 153.5t108.5 59.5q78 0 115.5 -71.5t37.5 -181.5t-37.5 -182t-115.5 -72z"/>
<glyph glyph-name="afii10097" d="M198 246h56v181h-56q-40 0 -60.5 -24.5t-20.5 -65.5t20.5 -66t60.5 -25zM118 0h-78l87 204q-34 11 -57.5 45t-23.5 88q0 64 38 105t106 41h132v-483h-68v190h-61z" unicode="я"/>
<glyph glyph-name="afii10071" horiz-adv-x="373" unicode="ё" d="M272 270q0 69 -19 118.5t-64 49.5q-31 0 -51 -29.5t-26 -64t-6 -74.5h166zM205 -12q-83 0 -125.5 70t-42.5 184q0 112 39 182.5t115 70.5q77 0 113 -69.5t36 -182.5v-24h-234q0 -80 27 -127t77 -47q47 0 80 58l41 -36q-51 -79 -126 -79zM164 603q0 -18 -13 -30.5 t-31 -12.5q-17 0 -30 12.5t-13 30.5t13 30.5t30 12.5q18 0 31 -12.5t13 -30.5zM305 603q0 -18 -13 -30.5t-31 -12.5q-17 0 -30 12.5t-13 30.5t13 30.5t30 12.5q18 0 31 -12.5t13 -30.5z"/>
<glyph glyph-name="afii10099" horiz-adv-x="392" unicode="ђ" d="M255 536h-116v-121q16 33 46 56.5t61 23.5q90 0 90 -105v-461q0 -67 -24 -96t-73 -29q-40 0 -59 31l27 49q8 -19 27 -19q34 0 34 64v442q0 63 -46 63q-25 0 -48 -23t-35 -56v-355h-69v536h-49v45h49v86h69v-86h116v-45z"/>
<glyph glyph-name="afii10100" horiz-adv-x="291" unicode="ѓ" d="M269 483v-60h-145v-423h-68v483h213zM272 700l-100 -144h-46l79 144h67z"/>
<glyph glyph-name="afii10101" horiz-adv-x="317" unicode="є" d="M196 -12q-75 0 -117 71t-42 183q0 111 41.5 182t117.5 71q59 0 99 -44l-28 -48q-28 35 -62 35q-44 0 -67.5 -45.5t-27.5 -117.5h146v-60h-146q3 -74 26.5 -122t68.5 -48q34 0 62 35l28 -48q-36 -44 -99 -44z"/>
<glyph glyph-name="afii10102" horiz-adv-x="309" unicode="ѕ" d="M152 -12q-86 0 -131 61l33 47q40 -52 93 -52q30 0 50.5 19.5t20.5 52.5q0 25 -13.5 46t-33.5 34.5t-44 31t-44 35t-33.5 46.5t-13.5 66q0 52 35.5 86t92.5 34q70 0 115 -54l-32 -46q-31 44 -82 44q-29 0 -46.5 -18t-17.5 -44q0 -28 18.5 -50.5t45.5 -40t54 -37.5 t45.5 -53.5t18.5 -77.5q0 -58 -37.5 -94t-93.5 -36z"/>
<glyph glyph-name="afii10103" horiz-adv-x="180" unicode="і" d="M124 0h-68v483h68v-483zM90 554q-19 0 -33 14t-14 33t14 33.5t33 14.5q20 0 34 -14.5t14 -33.5t-14 -33t-34 -14z"/>
<glyph glyph-name="afii10104" horiz-adv-x="180" unicode="ї" d="M124 0h-68v483h68v-483zM63 603q0 -18 -13 -30.5t-31 -12.5q-17 0 -30 12.5t-13 30.5t13 30.5t30 12.5q18 0 31 -12.5t13 -30.5zM204 603q0 -18 -13 -30.5t-31 -12.5q-17 0 -30 12.5t-13 30.5t13 30.5t30 12.5q18 0 31 -12.5t13 -30.5z"/>
<glyph glyph-name="afii10105" horiz-adv-x="180" unicode="ј" d="M27 -196q-40 0 -58 31l26 49q8 -19 28 -19q33 0 33 64v554h68v-554q0 -67 -24 -96t-73 -29zM90 554q-19 0 -33 14t-14 33t14 33.5t33 14.5q20 0 34 -14.5t14 -33.5t-14 -33t-34 -14z"/>
<glyph glyph-name="afii10106" horiz-adv-x="557" unicode="љ" d="M370 237h-48v-181h48q40 0 60.5 24.5t20.5 65.5t-20.5 66t-60.5 25zM19 -12v61q32 0 49 34t24 137l17 263h213v-190h55q71 0 108 -41.5t37 -105.5q0 -63 -37 -104.5t-108 -41.5h-123v423h-80l-14 -208q-8 -131 -42.5 -179t-98.5 -48z"/>
<glyph glyph-name="afii10107" horiz-adv-x="557" unicode="њ" d="M370 226h-48v-170h48q40 0 60.5 22.5t20.5 62.5q0 39 -20.5 62t-60.5 23zM124 0h-68v483h68v-201h130v201h68v-201h55q72 0 108.5 -39.5t36.5 -102.5q0 -61 -37 -100.5t-108 -39.5h-123v222h-130v-222z"/>
<glyph glyph-name="afii10108" horiz-adv-x="392" unicode="ћ" d="M254 536h-116v-121q16 34 46.5 57t61.5 23q48 0 69 -25t21 -80v-390h-68v372q0 62 -46 62q-26 0 -49 -23t-35 -56v-355h-68v536h-49v45h49v86h68v-86h116v-45z"/>
<glyph glyph-name="afii10109" horiz-adv-x="361" unicode="ќ" d="M345 0h-74l-91 219l-56 -96v-123h-68v483h68v-267l148 267h74l-122 -216zM290 700l-100 -144h-46l79 144h67z"/>
<glyph glyph-name="afii10110" horiz-adv-x="326" unicode="ў" d="M281 613q-45 -61 -119 -61t-119 61l36 28q13 -20 36 -32t47 -12q55 0 83 44zM33 -189l11 60q11 -6 24 -6q17 0 26 10t16 35l19 75l-120 498h74l79 -396l82 396h72l-143 -589q-14 -51 -36.5 -70.5t-61.5 -19.5q-26 0 -42 7z"/>
<glyph glyph-name="afii10193" d="M155 -124v124h-99v483h68v-423h130v423h68v-483h-99v-124h-68z" unicode="џ"/>
<glyph glyph-name="afii10050" horiz-adv-x="351" unicode="Ґ" d="M138 600v-600h-75v667h173v123h75v-190h-173z"/>
<glyph glyph-name="afii10098" horiz-adv-x="291" unicode="ґ" d="M124 423v-423h-68v483h144v124h69v-184h-145z"/>
<glyph glyph-name="uni1E02" horiz-adv-x="403" unicode="Ḃ" d="M201 724q-18 0 -31 13t-13 31t13 31t31 13t31 -13t13 -31t-13 -31t-31 -13zM196 67q86 0 86 120q0 52 -21.5 86.5t-64.5 34.5h-58v-241h58zM192 375q81 0 81 112q0 113 -81 113h-54v-225h54zM213 0h-150v667h144q69 0 106.5 -46t37.5 -124q0 -122 -87 -153q42 -7 69 -55 t27 -109q0 -85 -36.5 -132.5t-110.5 -47.5z"/>
<glyph glyph-name="uni1E03" horiz-adv-x="384" unicode="ḃ" d="M200 724q-18 0 -31 13t-13 31t13 31t31 13t31 -13t13 -31t-13 -31t-31 -13zM124 0h-68v667h68v-251q14 38 39.5 58.5t51.5 20.5q66 0 99 -69.5t33 -184.5q0 -116 -33 -184.5t-99 -68.5q-25 0 -50.5 20.5t-40.5 56.5v-65zM124 129q9 -33 30 -56.5t44 -23.5q77 0 77 192 q0 193 -77 193q-23 0 -44 -24.5t-30 -57.5v-223z"/>
<glyph glyph-name="uni1E0A" horiz-adv-x="427" unicode="Ḋ" d="M214 724q-18 0 -31 13t-13 31t13 31t31 13t31 -13t13 -31t-13 -31t-31 -13zM190 67q116 0 116 266q0 267 -116 267h-52v-533h52zM190 0h-127v667h127q99 0 147 -90.5t48 -243.5q0 -154 -47.5 -243.5t-147.5 -89.5z"/>
<glyph glyph-name="uni1E0B" horiz-adv-x="384" unicode="ḋ" d="M186 724q-18 0 -31 13t-13 31t13 31t31 13t31 -13t13 -31t-13 -31t-31 -13zM186 49q23 0 44.5 24t29.5 56v224q-9 32 -30 56.5t-44 24.5q-77 0 -77 -193q0 -192 77 -192zM328 0h-68v65q-15 -36 -40.5 -56.5t-50.5 -20.5q-66 0 -99 68.5t-33 184.5q0 115 33 184.5t99 69.5 q26 0 51.5 -20.5t39.5 -58.5v251h68v-667z"/>
<glyph glyph-name="uni1E1E" horiz-adv-x="351" unicode="Ḟ" d="M138 0h-75v667h248v-67h-173v-225h166v-67h-166v-308zM190 724q-18 0 -31 13t-13 31t13 31t31 13t31 -13t13 -31t-13 -31t-31 -13z"/>
<glyph glyph-name="uni1E1F" horiz-adv-x="224" unicode="ḟ" d="M139 0h-69v423h-47v60h47v81q0 53 27 83t76 30q44 0 69 -27l-24 -54q-16 20 -35 20q-44 0 -44 -52v-81h65v-60h-65v-423zM171 724q-18 0 -31 13t-13 31t13 31t31 13t31 -13t13 -31t-13 -31t-31 -13z"/>
<glyph glyph-name="uni1E22" horiz-adv-x="436" unicode="Ḣ" d="M218 724q-18 0 -31 13t-13 31t13 31t31 13t31 -13t13 -31t-13 -31t-31 -13zM373 0h-75v309h-160v-309h-75v667h75v-290h160v290h75v-667z"/>
<glyph glyph-name="uni1E23" d="M189 724q-18 0 -31 13t-13 31t13 31t31 13t31 -13t13 -31t-13 -31t-31 -13zM322 0h-68v372q0 62 -46 62q-26 0 -49 -23t-35 -56v-355h-68v667h68v-252q16 34 46.5 57t61.5 23q48 0 69 -25t21 -80v-390z" unicode="ḣ"/>
<glyph glyph-name="uni1E56" horiz-adv-x="387" unicode="Ṗ" d="M194 724q-18 0 -31 13t-13 31t13 31t31 13t31 -13t13 -31t-13 -31t-31 -13zM193 336q43 0 65.5 36t22.5 96t-22.5 96t-65.5 36h-55v-264h55zM138 0h-75v667h137q78 0 118.5 -56.5t40.5 -142.5t-40.5 -142.5t-118.5 -56.5h-62v-269z"/>
<glyph glyph-name="uni1E57" horiz-adv-x="384" unicode="ṗ" d="M201 557q-18 0 -31 13t-13 31t13 31t31 13t31 -13t13 -31t-13 -31t-31 -13zM198 49q77 0 77 193q0 192 -77 192q-23 0 -44 -23.5t-30 -56.5v-224q9 -33 30.5 -57t43.5 -24zM215 -12q-26 0 -51.5 20.5t-39.5 58.5v-251h-68v667h68v-65q15 36 40.5 56.5t50.5 20.5 q66 0 99 -68.5t33 -184.5q0 -115 -33 -184.5t-99 -69.5z"/>
<glyph glyph-name="uni1E60" horiz-adv-x="354" unicode="Ṡ" d="M177 724q-18 0 -31 13t-13 31t13 31t31 13t31 -13t13 -31t-13 -31t-31 -13zM163 -12q-87 0 -143 61l38 60q18 -24 45.5 -38.5t55.5 -14.5q37 0 62 28.5t25 74.5q0 42 -21.5 76t-52 60t-61 53.5t-52 69.5t-21.5 95q0 72 43.5 118.5t110.5 46.5q72 0 119 -47l-33 -58 q-34 37 -85 37q-33 0 -55.5 -26t-22.5 -68q0 -35 21.5 -66.5t52 -58t60.5 -56t51.5 -73.5t21.5 -99q0 -77 -44 -126t-115 -49z"/>
<glyph glyph-name="uni1E61" horiz-adv-x="309" unicode="ṡ" d="M155 557q-18 0 -31 13t-13 31t13 31t31 13t31 -13t13 -31t-13 -31t-31 -13zM152 -12q-86 0 -131 61l33 47q40 -52 93 -52q30 0 50.5 19.5t20.5 52.5q0 25 -13.5 46t-33.5 34.5t-44 31t-44 35t-33.5 46.5t-13.5 66q0 52 35.5 86t92.5 34q70 0 115 -54l-32 -46 q-31 44 -82 44q-29 0 -46.5 -18t-17.5 -44q0 -28 18.5 -50.5t45.5 -40t54 -37.5t45.5 -53.5t18.5 -77.5q0 -58 -37.5 -94t-93.5 -36z"/>
<glyph glyph-name="uni1E6A" horiz-adv-x="322" unicode="Ṫ" d="M161 724q-18 0 -31 13t-13 31t13 31t31 13t31 -13t13 -31t-13 -31t-31 -13zM199 0h-76v600h-105v67h286v-67h-105v-600z"/>
<glyph glyph-name="uni1E6B" horiz-adv-x="233" unicode="ṫ" d="M106 724q-18 0 -31 13t-13 31t13 31t31 13t31 -13t13 -31t-13 -31t-31 -13zM156 -12q-45 0 -65.5 25t-20.5 79v331h-49v60h49v132h69v-132h65v-60h-65v-321q0 -28 6.5 -40.5t23.5 -12.5q21 0 32 17l22 -50q-26 -28 -67 -28z"/>
<glyph glyph-name="Wgrave" horiz-adv-x="548" unicode="Ẁ" d="M310 723h-46l-100 144h67zM424 0h-80l-70 514l-70 -514h-79l-107 667h78l71 -531l75 531h64l76 -531l70 531h78z"/>
<glyph glyph-name="wgrave" horiz-adv-x="541" unicode="ẁ" d="M307 556h-46l-100 144h67zM423 0h-71l-81 389l-82 -389h-71l-105 483h72l72 -387l77 387h70l79 -387l73 387h72z"/>
<glyph glyph-name="Wacute" horiz-adv-x="548" unicode="Ẃ" d="M424 0h-80l-70 514l-70 -514h-79l-107 667h78l71 -531l75 531h64l76 -531l70 531h78zM388 867l-100 -144h-46l79 144h67z"/>
<glyph glyph-name="wacute" horiz-adv-x="541" unicode="ẃ" d="M423 0h-71l-81 389l-82 -389h-71l-105 483h72l72 -387l77 387h70l79 -387l73 387h72zM380 700l-100 -144h-46l79 144h67z"/>
<glyph glyph-name="Wdieresis" horiz-adv-x="548" unicode="Ẅ" d="M424 0h-80l-70 514l-70 -514h-79l-107 667h78l71 -531l75 531h64l76 -531l70 531h78zM247 770q0 -18 -13 -30.5t-31 -12.5q-17 0 -30 12.5t-13 30.5t13 30.5t30 12.5q18 0 31 -12.5t13 -30.5zM388 770q0 -18 -13 -30.5t-31 -12.5q-17 0 -30 12.5t-13 30.5t13 30.5 t30 12.5q18 0 31 -12.5t13 -30.5z"/>
<glyph glyph-name="wdieresis" horiz-adv-x="541" unicode="ẅ" d="M423 0h-71l-81 389l-82 -389h-71l-105 483h72l72 -387l77 387h70l79 -387l73 387h72zM244 603q0 -18 -13 -30.5t-31 -12.5q-17 0 -30 12.5t-13 30.5t13 30.5t30 12.5q18 0 31 -12.5t13 -30.5zM385 603q0 -18 -13 -30.5t-31 -12.5q-17 0 -30 12.5t-13 30.5t13 30.5 t30 12.5q18 0 31 -12.5t13 -30.5z"/>
<glyph glyph-name="Ygrave" horiz-adv-x="372" unicode="Ỳ" d="M223 723h-46l-100 144h67zM224 0h-75v283l-150 384h82l105 -307l107 307h80l-149 -384v-283z"/>
<glyph glyph-name="ygrave" horiz-adv-x="326" unicode="ỳ" d="M199 556h-46l-100 144h67zM33 -189l11 60q11 -6 24 -6q17 0 26 10t16 35l19 75l-120 498h74l79 -396l82 396h72l-143 -589q-14 -51 -36.5 -70.5t-61.5 -19.5q-26 0 -42 7z"/>
<glyph glyph-name="endash" horiz-adv-x="460" unicode="–" d="M430 211h-400v61h400v-61z"/>
<glyph glyph-name="emdash" horiz-adv-x="640" unicode="—" d="M610 211h-580v61h580v-61z"/>
<glyph glyph-name="quoteleft" horiz-adv-x="228" unicode="‘" d="M58 531q0 43 22 82.5t56 63.5l36 -28q-24 -17 -42.5 -43t-21.5 -50q1 0 5.5 1t7.5 1q20 0 33 -14t13 -35t-14.5 -35.5t-36.5 -14.5q-24 0 -41 19.5t-17 52.5z"/>
<glyph glyph-name="quoteright" horiz-adv-x="228" unicode="’" d="M170 604q0 -43 -22 -82.5t-56 -62.5l-35 28q24 16 42 42.5t21 50.5q-4 -2 -12 -2q-20 0 -33.5 14t-13.5 34q0 21 14.5 36t36.5 15q24 0 41 -19.5t17 -53.5z"/>
<glyph glyph-name="quotesinglbase" horiz-adv-x="227" unicode="‚" d="M170 20q0 -43 -22 -82t-56 -63l-35 28q24 17 42 43t21 50q-1 0 -5.5 -0.5t-6.5 -0.5q-20 0 -33.5 13.5t-13.5 34.5t14.5 35.5t36.5 14.5q24 0 41 -19.5t17 -53.5z"/>
<glyph glyph-name="quotedblleft" horiz-adv-x="382" unicode="“" d="M212 531q0 43 22 82.5t56 63.5l36 -28q-25 -17 -43 -43t-20 -50l5 1q4 1 7 1q20 0 33 -14t13 -35q0 -20 -14.5 -35t-35.5 -15q-25 0 -42 19.5t-17 52.5zM58 531q0 43 22 82.5t56 63.5l35 -28q-24 -17 -42 -43t-21 -50l5 1q5 1 7 1q20 0 33 -14t13 -35q0 -20 -14.5 -35 t-35.5 -15q-24 0 -41 19.5t-17 52.5z"/>
<glyph glyph-name="quotedblright" horiz-adv-x="382" unicode="”" d="M170 604q0 -43 -22 -82.5t-56 -62.5l-35 28q24 16 42 42.5t21 50.5q-4 -2 -12 -2q-20 0 -33.5 14t-13.5 34q0 21 14.5 36t36.5 15q24 0 41 -19.5t17 -53.5zM325 604q0 -43 -22.5 -82.5t-56.5 -62.5l-35 28q24 16 42.5 42.5t20.5 50.5q-2 -2 -12 -2q-19 0 -32.5 14 t-13.5 34q0 21 14.5 36t36.5 15q24 0 41 -19.5t17 -53.5z"/>
<glyph glyph-name="quotedblbase" horiz-adv-x="381" unicode="„" d="M325 20q0 -43 -22 -82t-57 -63l-35 28q25 17 43 43t20 50h-5q-5 -1 -7 -1q-20 0 -33 13.5t-13 34.5t15 35.5t36 14.5q24 0 41 -19.5t17 -53.5zM170 20q0 -43 -22 -82t-56 -63l-35 28q24 17 42 43t21 50q-1 0 -5.5 -0.5t-6.5 -0.5q-20 0 -33.5 13.5t-13.5 34.5t14.5 35.5 t36.5 14.5q24 0 41 -19.5t17 -53.5z"/>
<glyph glyph-name="bullet" horiz-adv-x="358" unicode="•" d="M286 242q0 -44 -31 -74.5t-75 -30.5t-75 30.5t-31 74.5t31 75t75 31t75 -31t31 -75z"/>
<glyph glyph-name="guilsinglleft" horiz-adv-x="208" unicode="‹" d="M178 63h-58l-90 180l90 177h58l-90 -177z"/>
<glyph glyph-name="guilsinglright" horiz-adv-x="208" unicode="›" d="M178 243l-90 -180h-58l90 180l-90 177h58z"/>
<glyph glyph-name="fraction" horiz-adv-x="115" unicode="⁄" d="M215 667l-274 -667h-41l273 667h42z"/>
<glyph glyph-name="zerosuperior" horiz-adv-x="265" unicode="⁰" d="M190 621q0 160 -57 160q-58 0 -58 -160q0 -161 58 -161q57 0 57 161zM248 621q0 -53 -10.5 -97.5t-37.5 -77t-67 -32.5q-59 0 -87.5 61t-28.5 146q0 84 28.5 145t87.5 61q40 0 67 -32t37.5 -76.5t10.5 -97.5z"/>
<glyph glyph-name="foursuperior" horiz-adv-x="265" unicode="⁴" d="M158 568v189l-93 -189h93zM249 523h-36v-102h-55v102h-141v46l128 252h68v-253h36v-45z"/>
<glyph glyph-name="fivesuperior" horiz-adv-x="265" unicode="⁵" d="M241 546q0 -57 -30.5 -94.5t-81.5 -37.5q-73 0 -108 66l37 32q25 -52 69 -52q26 0 42 25t16 61q0 41 -14.5 63t-39.5 22q-33 0 -58 -40l-41 15v215h191v-46h-137v-136q22 34 64 34q39 0 65 -33t26 -94z"/>
<glyph glyph-name="sixsuperior" horiz-adv-x="265" unicode="⁶" d="M187 544q0 86 -52 86q-35 0 -58 -58q5 -112 57 -112q26 0 39.5 25t13.5 59zM243 545q0 -55 -28 -93t-78 -38q-42 0 -69 30.5t-37 74.5t-10 102q0 90 31.5 148t94.5 58q57 0 86 -49l-30 -36q-20 39 -55 39q-25 0 -41.5 -23.5t-22.5 -56t-6 -71.5v-12q23 57 74 57 q39 0 65 -34t26 -96z"/>
<glyph glyph-name="sevensuperior" horiz-adv-x="238" unicode="⁷" d="M222 783l-109 -362h-54l109 354h-151v46h205v-38z"/>
<glyph glyph-name="eightsuperior" horiz-adv-x="265" unicode="⁸" d="M186 525q0 34 -20 57t-34 25q-14 -3 -34 -26t-20 -57q0 -32 15 -49t39 -17q23 0 38.5 17.5t15.5 49.5zM182 719q0 30 -13.5 46.5t-36.5 16.5q-50 0 -50 -63q0 -22 11.5 -39.5t21.5 -24.5t17 -9q7 2 17 9t21.5 24.5t11.5 39.5zM241 520q0 -50 -29 -78t-80 -28 q-52 0 -81 28t-29 78q0 36 21.5 66t49.5 41q-27 11 -46.5 37.5t-19.5 61.5q0 49 30.5 75t74.5 26t74.5 -26t30.5 -75q0 -35 -20 -61.5t-46 -37.5q27 -11 48.5 -41t21.5 -66z"/>
<glyph glyph-name="ninesuperior" horiz-adv-x="265" unicode="⁹" d="M79 697q0 -86 52 -86q19 0 34 17t23 42q-3 111 -57 111q-26 0 -39 -25t-13 -59zM23 696q0 55 28.5 93t77.5 38q42 0 69 -30.5t37 -74.5t10 -102q0 -90 -31 -148t-95 -58q-57 0 -86 49l30 36q19 -39 55 -39q35 0 52.5 45t17.5 107v11q-23 -57 -75 -57q-39 0 -64.5 34 t-25.5 96z"/>
<glyph glyph-name="parenleftsuperior" horiz-adv-x="133" unicode="⁽" d="M121 368l-28 -12q-65 121 -65 265t65 265l28 -12q-48 -121 -48 -253t48 -253z"/>
<glyph glyph-name="parenrightsuperior" horiz-adv-x="133" unicode="⁾" d="M105 621q0 -141 -65 -265l-29 12q49 119 49 253t-49 253l29 12q65 -124 65 -265z"/>
<glyph glyph-name="nsuperior" horiz-adv-x="287" unicode="ⁿ" d="M242 326h-53v233q0 44 -34 44q-17 0 -32.5 -14.5t-23.5 -34.5v-228h-54v314h54v-43q11 21 32.5 36t43.5 15q39 0 53 -19.5t14 -57.5v-245z"/>
<glyph glyph-name="zeroinferior" horiz-adv-x="265" unicode="₀" d="M190 54q0 160 -57 160q-58 0 -58 -160q0 -161 58 -161q57 0 57 161zM248 54q0 -53 -10.5 -97.5t-37.5 -77t-67 -32.5q-59 0 -87.5 61t-28.5 146q0 84 28.5 145t87.5 61q40 0 67 -32t37.5 -76.5t10.5 -97.5z"/>
<glyph glyph-name="oneinferior" horiz-adv-x="215" unicode="₁" d="M162 -146h-55v328l-60 -63l-32 33l99 102h48v-400z"/>
<glyph glyph-name="twoinferior" horiz-adv-x="265" unicode="₂" d="M241 -146h-210v42q99 130 126 174.5t27 83.5q0 27 -15 43.5t-39 16.5q-45 0 -70 -51l-36 32q40 65 109 65q48 0 77 -28t29 -77q0 -42 -27 -90t-112 -165h141v-46z"/>
<glyph glyph-name="threeinferior" horiz-adv-x="265" unicode="₃" d="M243 -37q0 -52 -29.5 -84t-82.5 -32q-75 0 -111 66l39 32q25 -52 70 -52q58 0 58 73q0 38 -18 54.5t-43 16.5q-22 0 -27 -1v46q5 -1 24 -1q27 0 43.5 17t16.5 49q0 67 -54 67q-42 0 -68 -48l-37 30q36 64 107 64q48 0 77 -27t29 -80q0 -33 -18 -59t-46 -33q28 -6 49 -33 t21 -65z"/>
<glyph glyph-name="fourinferior" horiz-adv-x="265" unicode="₄" d="M158 1v189l-93 -189h93zM249 -44h-36v-102h-55v102h-141v46l128 252h68v-253h36v-45z"/>
<glyph glyph-name="fiveinferior" horiz-adv-x="265" unicode="₅" d="M241 -21q0 -57 -30.5 -94.5t-81.5 -37.5q-73 0 -108 66l37 32q25 -52 69 -52q26 0 42 25t16 61q0 41 -14.5 63t-39.5 22q-33 0 -58 -40l-41 15v215h191v-46h-137v-136q22 34 64 34q39 0 65 -33t26 -94z"/>
<glyph glyph-name="sixinferior" horiz-adv-x="265" unicode="₆" d="M187 -23q0 86 -52 86q-35 0 -58 -58q5 -112 57 -112q26 0 39.5 25t13.5 59zM243 -22q0 -55 -28 -93t-78 -38q-42 0 -69 30.5t-37 74.5t-10 102q0 90 31.5 148t94.5 58q57 0 86 -49l-30 -36q-20 39 -55 39q-25 0 -41.5 -23.5t-22.5 -56t-6 -71.5v-12q23 57 74 57 q39 0 65 -34t26 -96z"/>
<glyph glyph-name="seveninferior" horiz-adv-x="238" unicode="₇" d="M222 216l-109 -362h-54l109 354h-151v46h205v-38z"/>
<glyph glyph-name="eightinferior" horiz-adv-x="265" unicode="₈" d="M186 -42q0 34 -20 57t-34 25q-14 -3 -34 -26t-20 -57q0 -32 15 -49t39 -17q23 0 38.5 17.5t15.5 49.5zM182 152q0 30 -13.5 46.5t-36.5 16.5q-50 0 -50 -63q0 -22 11.5 -39.5t21.5 -24.5t17 -9q7 2 17 9t21.5 24.5t11.5 39.5zM241 -47q0 -50 -29 -78t-80 -28 q-52 0 -81 28t-29 78q0 36 21.5 66t49.5 41q-27 11 -46.5 37.5t-19.5 61.5q0 49 30.5 75t74.5 26t74.5 -26t30.5 -75q0 -35 -20 -61.5t-46 -37.5q27 -11 48.5 -41t21.5 -66z"/>
<glyph glyph-name="nineinferior" horiz-adv-x="265" unicode="₉" d="M79 130q0 -86 52 -86q19 0 34 17t23 42q-3 111 -57 111q-26 0 -39 -25t-13 -59zM23 129q0 55 28.5 93t77.5 38q42 0 69 -30.5t37 -74.5t10 -102q0 -90 -31 -148t-95 -58q-57 0 -86 49l30 36q19 -39 55 -39q35 0 52.5 45t17.5 107v11q-23 -57 -75 -57q-39 0 -64.5 34 t-25.5 96z"/>
<glyph glyph-name="parenleftinferior" horiz-adv-x="133" unicode="₍" d="M121 -199l-28 -12q-65 121 -65 265t65 265l28 -12q-48 -121 -48 -253t48 -253z"/>
<glyph glyph-name="parenrightinferior" horiz-adv-x="133" unicode="₎" d="M105 54q0 -141 -65 -265l-29 12q49 119 49 253t-49 253l29 12q65 -124 65 -265z"/>
<glyph glyph-name="colonmonetary" horiz-adv-x="364" unicode="₡" d="M113 333v-34l62 300q-62 -47 -62 -266zM129 154q11 -44 28 -68l103 497q-15 21 -37 25zM209 -12q-14 0 -26 3l-19 -91h-45l22 106q-20 13 -37 33l-28 -139h-45l40 196q-36 88 -36 237q0 148 38 241t118 103l19 91h46l-19 -93q20 -4 39 -15l22 108h46l-30 -145 q18 -27 33 -73l-53 -21l-98 -472q4 -1 13 -1q33 0 50.5 26.5t27.5 74.5l63 -23q-34 -146 -141 -146z"/>
<glyph glyph-name="frenchfranc" horiz-adv-x="368" unicode="₣" d="M155 0h-75v140h-59v45h59v482h248v-67h-173v-225h166v-67h-166v-123h102v-45h-102v-140z"/>
<glyph glyph-name="lira" horiz-adv-x="380" unicode="₤" d="M30 327v44h43q-24 53 -24 116q0 78 44 134t112 56q53 0 89.5 -30t48.5 -84l-60 -28q-23 78 -75 78q-32 0 -55.5 -34.5t-23.5 -93.5q0 -58 26 -114h100v-44h-79q18 -38 23 -72h56v-44h-55q-2 -37 -20 -74.5t-44 -59.5q18 10 38 10q23 0 52.5 -15.5t46.5 -15.5q44 0 65 34 l27 -59q-12 -18 -40.5 -30.5t-57.5 -12.5q-35 0 -67 20.5t-51 20.5q-31 0 -78 -36l-27 55q40 27 64 70.5t24 88.5v4h-102v44h95q-6 23 -31 72h-64z"/>
<glyph glyph-name="uni20A6" horiz-adv-x="470" unicode="₦" d="M298 243l17 -49v49h-17zM155 482v-51h17zM250 386l33 -98h32v98h-65zM155 386v-98h65l-33 98h-32zM390 0h-72l-83 243h-80v-243h-75v243h-59v45h59v98h-59v45h59v236h75l80 -236h80v236h75v-236h56v-45h-56v-98h56v-45h-56v-243z"/>
<glyph glyph-name="peseta" horiz-adv-x="441" unicode="₧" d="M210 336q38 0 60 28.5t27 78.5h-142v-107h55zM155 600v-108h142q-5 50 -27 79t-60 29h-55zM428 443h-53q-6 -77 -46 -125.5t-112 -48.5h-62v-269h-75v443h-59v49h59v175h137q72 0 112 -49t46 -126h53v-49z"/>
<glyph glyph-name="rupee" horiz-adv-x="681" unicode="₨" d="M193 336q43 0 65.5 36t22.5 96t-22.5 96t-65.5 36h-55v-264h55zM365 0h-81l-87 269h-59v-269h-75v667h140q69 0 112.5 -53.5t43.5 -143.5q0 -80 -27.5 -125t-64.5 -59zM524 -12q-86 0 -131 61l33 47q40 -52 93 -52q30 0 50.5 19.5t20.5 52.5q0 25 -13.5 46t-33.5 34.5 t-44 31t-44 35t-33.5 46.5t-13.5 66q0 52 35.5 86t92.5 34q70 0 115 -54l-32 -46q-31 44 -82 44q-29 0 -46.5 -18t-17.5 -44q0 -28 18.5 -50.5t45.5 -40t54 -37.5t45.5 -53.5t18.5 -77.5q0 -58 -37.5 -94t-93.5 -36z"/>
<glyph glyph-name="uni20A9" horiz-adv-x="578" unicode="₩" d="M289 514l-12 -83h23zM382 243l15 -107l14 107h-29zM167 243l15 -107l15 107h-30zM271 386l-13 -98h62l-14 98h-35zM361 386l14 -98h42l13 98h-69zM148 386l13 -98h42l14 98h-69zM439 0h-80l-33 243h-74l-33 -243h-79l-39 243h-73v45h65l-15 98h-50v45h43l-38 236h78 l31 -236h82l33 236h64l34 -236h81l31 236h78l-38 -236h38v-45h-45l-16 -98h61v-45h-68z"/>
<glyph glyph-name="afii57636" horiz-adv-x="497" unicode="₪" d="M195 550q74 0 106 -46.5t32 -158.5v-193h-57v243q0 55 -19.5 78.5t-61.5 23.5h-83v-497h-56v550h139zM303 0h-138v397h56v-344h82q42 0 62 23.5t20 78.5v395h56v-345q0 -113 -32 -159t-106 -46z"/>
<glyph glyph-name="dong" horiz-adv-x="397" unicode="₫" d="M186 49q23 0 44.5 24t29.5 56v224q-9 32 -30 56.5t-44 24.5q-77 0 -77 -193q0 -192 77 -192zM328 0h-68v65q-15 -36 -40.5 -56.5t-50.5 -20.5q-66 0 -99 68.5t-33 184.5q0 115 33 184.5t99 69.5q26 0 51.5 -20.5t39.5 -58.5v120h-120v45h120v86h68v-86h45v-45h-45v-536z M317 -140h-248v45h248v-45z"/>
<glyph glyph-name="Euro" horiz-adv-x="403" unicode="€" d="M230 -12q-75 0 -117 67.5t-53 183.5h-44v48h41q-1 15 -1 46q0 32 1 48h-41v49h44q12 115 54 181.5t116 66.5q99 0 138 -128l-62 -24q-13 43 -29.5 63.5t-46.5 20.5q-77 0 -92 -180h119v-49h-122q-1 -16 -1 -48q0 -31 1 -46h122v-48h-120q17 -183 93 -183q33 0 50.5 26.5 t27.5 74.5l63 -23q-34 -146 -141 -146z"/>
<glyph glyph-name="afii61352" horiz-adv-x="725" unicode="№" d="M373 0h-72l-163 462v-462h-75v667h75l160 -453v453h75v-667zM580 395q58 0 58 120q0 119 -58 119q-57 0 -57 -119q0 -120 57 -120zM580 350q-55 0 -84 47.5t-29 117.5t29 117.5t84 47.5q56 0 84.5 -47t28.5 -118t-28.5 -118t-84.5 -47z"/>
<glyph glyph-name="uni2215" horiz-adv-x="115" unicode="∕" d="M215 667l-274 -667h-41l273 667h42z"/>
</font>
</defs>
</svg>
